<mxfile host="app.diagrams.net" modified="2021-07-22T14:05:45.126Z" agent="5.0 (Windows NT 10.0; Win64; x64) AppleWebKit/537.36 (KHTML, like Gecko) Chrome/91.0.4472.164 Safari/537.36" etag="LeUKXpQ6wvPfoUOhccYh" version="14.9.1" type="github">
  <diagram id="MMWVp20vbc8uq2uRVW6l" name="Page-1">
    <mxGraphModel dx="6979" dy="2579" grid="1" gridSize="10" guides="1" tooltips="1" connect="1" arrows="1" fold="1" page="1" pageScale="1" pageWidth="827" pageHeight="1169" math="0" shadow="0">
      <root>
        <mxCell id="0" />
        <mxCell id="1" parent="0" />
        <mxCell id="bJq6qHO7lRjsnfCfAAI0-23" value="" style="group" vertex="1" connectable="0" parent="1">
          <mxGeometry x="210" y="160" width="502.5" height="411.92" as="geometry" />
        </mxCell>
        <mxCell id="bJq6qHO7lRjsnfCfAAI0-24" value="" style="group" vertex="1" connectable="0" parent="bJq6qHO7lRjsnfCfAAI0-23">
          <mxGeometry x="-160" y="-120" width="560" height="450.00000000000006" as="geometry" />
        </mxCell>
        <mxCell id="bJq6qHO7lRjsnfCfAAI0-22" value="" style="group" vertex="1" connectable="0" parent="bJq6qHO7lRjsnfCfAAI0-24">
          <mxGeometry x="-180" y="-20.50999999999999" width="740" height="460.00000000000006" as="geometry" />
        </mxCell>
        <mxCell id="bJq6qHO7lRjsnfCfAAI0-20" value="" style="rounded=0;whiteSpace=wrap;html=1;fillColor=#d5e8d4;strokeColor=#82b366;" vertex="1" parent="bJq6qHO7lRjsnfCfAAI0-22">
          <mxGeometry width="740" height="460.00000000000006" as="geometry" />
        </mxCell>
        <mxCell id="bJq6qHO7lRjsnfCfAAI0-21" value="Login" style="rounded=1;whiteSpace=wrap;html=1;fontSize=16;fillColor=#fff2cc;strokeColor=#d6b656;" vertex="1" parent="bJq6qHO7lRjsnfCfAAI0-22">
          <mxGeometry x="634.82" y="-10" width="123.33333333333334" height="31.363636363636363" as="geometry" />
        </mxCell>
        <mxCell id="bJq6qHO7lRjsnfCfAAI0-1" value="" style="ellipse;html=1;shape=startState;fillColor=#000000;strokeColor=#ff0000;" vertex="1" parent="bJq6qHO7lRjsnfCfAAI0-24">
          <mxGeometry x="689.1600000000001" y="-20" width="54.34" height="48.97" as="geometry" />
        </mxCell>
        <mxCell id="bJq6qHO7lRjsnfCfAAI0-2" value="" style="edgeStyle=orthogonalEdgeStyle;html=1;verticalAlign=bottom;endArrow=open;endSize=8;strokeColor=#ff0000;entryX=0.5;entryY=0;entryDx=0;entryDy=0;" edge="1" source="bJq6qHO7lRjsnfCfAAI0-1" parent="bJq6qHO7lRjsnfCfAAI0-24" target="bJq6qHO7lRjsnfCfAAI0-3">
          <mxGeometry relative="1" as="geometry">
            <mxPoint x="716.3294339622641" y="77.69230769230766" as="targetPoint" />
          </mxGeometry>
        </mxCell>
        <mxCell id="bJq6qHO7lRjsnfCfAAI0-3" value="&lt;font style=&quot;font-size: 15px&quot;&gt;Inserire&lt;br&gt;credenziali&lt;/font&gt;" style="rounded=1;whiteSpace=wrap;html=1;" vertex="1" parent="bJq6qHO7lRjsnfCfAAI0-24">
          <mxGeometry x="634.82" y="67.94871794871793" width="163.0188679245283" height="58.461538461538446" as="geometry" />
        </mxCell>
        <mxCell id="bJq6qHO7lRjsnfCfAAI0-12" style="edgeStyle=orthogonalEdgeStyle;rounded=0;orthogonalLoop=1;jettySize=auto;html=1;exitX=0;exitY=0.5;exitDx=0;exitDy=0;exitPerimeter=0;entryX=0;entryY=0.5;entryDx=0;entryDy=0;" edge="1" parent="bJq6qHO7lRjsnfCfAAI0-24" source="bJq6qHO7lRjsnfCfAAI0-4" target="bJq6qHO7lRjsnfCfAAI0-3">
          <mxGeometry relative="1" as="geometry" />
        </mxCell>
        <mxCell id="bJq6qHO7lRjsnfCfAAI0-13" value="[Credenziali errate]" style="edgeLabel;html=1;align=center;verticalAlign=middle;resizable=0;points=[];" vertex="1" connectable="0" parent="bJq6qHO7lRjsnfCfAAI0-12">
          <mxGeometry x="-0.0968" relative="1" as="geometry">
            <mxPoint as="offset" />
          </mxGeometry>
        </mxCell>
        <mxCell id="bJq6qHO7lRjsnfCfAAI0-4" value="" style="strokeWidth=2;html=1;shape=mxgraph.flowchart.decision;whiteSpace=wrap;" vertex="1" parent="bJq6qHO7lRjsnfCfAAI0-24">
          <mxGeometry x="648.4049056603774" y="165.38461538461533" width="135.8490566037736" height="68.20512820512819" as="geometry" />
        </mxCell>
        <mxCell id="bJq6qHO7lRjsnfCfAAI0-5" style="edgeStyle=orthogonalEdgeStyle;rounded=0;orthogonalLoop=1;jettySize=auto;html=1;exitX=0.5;exitY=1;exitDx=0;exitDy=0;entryX=0.5;entryY=0;entryDx=0;entryDy=0;entryPerimeter=0;" edge="1" parent="bJq6qHO7lRjsnfCfAAI0-24" source="bJq6qHO7lRjsnfCfAAI0-3" target="bJq6qHO7lRjsnfCfAAI0-4">
          <mxGeometry relative="1" as="geometry" />
        </mxCell>
        <mxCell id="bJq6qHO7lRjsnfCfAAI0-6" value="" style="ellipse;html=1;shape=endState;fillColor=#000000;strokeColor=#ff0000;" vertex="1" parent="bJq6qHO7lRjsnfCfAAI0-24">
          <mxGeometry x="913.3100000000001" y="331.03" width="54.34" height="48.97" as="geometry" />
        </mxCell>
        <mxCell id="bJq6qHO7lRjsnfCfAAI0-19" style="edgeStyle=orthogonalEdgeStyle;rounded=0;orthogonalLoop=1;jettySize=auto;html=1;exitX=0.5;exitY=1;exitDx=0;exitDy=0;entryX=0.5;entryY=0;entryDx=0;entryDy=0;" edge="1" parent="bJq6qHO7lRjsnfCfAAI0-24" source="bJq6qHO7lRjsnfCfAAI0-18" target="bJq6qHO7lRjsnfCfAAI0-6">
          <mxGeometry relative="1" as="geometry" />
        </mxCell>
        <mxCell id="bJq6qHO7lRjsnfCfAAI0-18" value="&lt;span style=&quot;font-size: 15px&quot;&gt;Mostra HomeView&lt;br&gt;&lt;/span&gt;" style="rounded=1;whiteSpace=wrap;html=1;" vertex="1" parent="bJq6qHO7lRjsnfCfAAI0-24">
          <mxGeometry x="858.9709433962265" y="253.0769230769231" width="135.8490566037736" height="48.71794871794871" as="geometry" />
        </mxCell>
        <mxCell id="bJq6qHO7lRjsnfCfAAI0-14" style="edgeStyle=orthogonalEdgeStyle;rounded=0;orthogonalLoop=1;jettySize=auto;html=1;exitX=1;exitY=0.5;exitDx=0;exitDy=0;exitPerimeter=0;entryX=0.5;entryY=0;entryDx=0;entryDy=0;" edge="1" parent="bJq6qHO7lRjsnfCfAAI0-24" source="bJq6qHO7lRjsnfCfAAI0-4" target="bJq6qHO7lRjsnfCfAAI0-18">
          <mxGeometry relative="1" as="geometry">
            <mxPoint x="967.6501886792454" y="233.58974358974353" as="targetPoint" />
          </mxGeometry>
        </mxCell>
        <mxCell id="bJq6qHO7lRjsnfCfAAI0-15" value="[Credenziali corrette]" style="edgeLabel;html=1;align=center;verticalAlign=middle;resizable=0;points=[];" vertex="1" connectable="0" parent="bJq6qHO7lRjsnfCfAAI0-14">
          <mxGeometry x="0.037" y="2" relative="1" as="geometry">
            <mxPoint as="offset" />
          </mxGeometry>
        </mxCell>
        <mxCell id="bJq6qHO7lRjsnfCfAAI0-64" value="" style="group" vertex="1" connectable="0" parent="1">
          <mxGeometry x="-120" y="530" width="740" height="480" as="geometry" />
        </mxCell>
        <mxCell id="bJq6qHO7lRjsnfCfAAI0-65" value="" style="rounded=0;whiteSpace=wrap;html=1;fillColor=#d5e8d4;strokeColor=#82b366;" vertex="1" parent="bJq6qHO7lRjsnfCfAAI0-64">
          <mxGeometry x="644.82" y="-10" width="470" height="480" as="geometry" />
        </mxCell>
        <mxCell id="bJq6qHO7lRjsnfCfAAI0-66" value="Elimina cliente/dipendente/fornitore" style="rounded=1;whiteSpace=wrap;html=1;fontSize=16;fillColor=#fff2cc;strokeColor=#d6b656;" vertex="1" parent="bJq6qHO7lRjsnfCfAAI0-64">
          <mxGeometry x="644.82" y="-10" width="210" height="50" as="geometry" />
        </mxCell>
        <mxCell id="bJq6qHO7lRjsnfCfAAI0-43" value="" style="ellipse;html=1;shape=startState;fillColor=#000000;strokeColor=#ff0000;" vertex="1" parent="bJq6qHO7lRjsnfCfAAI0-64">
          <mxGeometry x="934.1600000000001" width="54.34" height="48.97" as="geometry" />
        </mxCell>
        <mxCell id="bJq6qHO7lRjsnfCfAAI0-44" value="" style="edgeStyle=orthogonalEdgeStyle;html=1;verticalAlign=bottom;endArrow=open;endSize=8;strokeColor=#ff0000;entryX=0.5;entryY=0;entryDx=0;entryDy=0;" edge="1" parent="bJq6qHO7lRjsnfCfAAI0-64" source="bJq6qHO7lRjsnfCfAAI0-43" target="bJq6qHO7lRjsnfCfAAI0-45">
          <mxGeometry relative="1" as="geometry">
            <mxPoint x="926.3294339622643" y="77.69230769230762" as="targetPoint" />
          </mxGeometry>
        </mxCell>
        <mxCell id="bJq6qHO7lRjsnfCfAAI0-45" value="&lt;span style=&quot;font-size: 15px&quot;&gt;Mosta cliente/dipendente/fornitore&lt;/span&gt;" style="rounded=1;whiteSpace=wrap;html=1;" vertex="1" parent="bJq6qHO7lRjsnfCfAAI0-64">
          <mxGeometry x="864.82" y="87.95000000000005" width="193.02" height="58.46" as="geometry" />
        </mxCell>
        <mxCell id="bJq6qHO7lRjsnfCfAAI0-49" style="edgeStyle=orthogonalEdgeStyle;rounded=0;orthogonalLoop=1;jettySize=auto;html=1;exitX=0.5;exitY=1;exitDx=0;exitDy=0;entryX=0.5;entryY=0;entryDx=0;entryDy=0;" edge="1" parent="bJq6qHO7lRjsnfCfAAI0-64" source="bJq6qHO7lRjsnfCfAAI0-45" target="bJq6qHO7lRjsnfCfAAI0-56">
          <mxGeometry relative="1" as="geometry">
            <mxPoint x="961.82" y="180" as="targetPoint" />
          </mxGeometry>
        </mxCell>
        <mxCell id="bJq6qHO7lRjsnfCfAAI0-50" value="" style="ellipse;html=1;shape=endState;fillColor=#000000;strokeColor=#ff0000;" vertex="1" parent="bJq6qHO7lRjsnfCfAAI0-64">
          <mxGeometry x="935.58" y="380" width="54.34" height="50" as="geometry" />
        </mxCell>
        <mxCell id="bJq6qHO7lRjsnfCfAAI0-51" style="edgeStyle=orthogonalEdgeStyle;rounded=0;orthogonalLoop=1;jettySize=auto;html=1;exitX=0.5;exitY=1;exitDx=0;exitDy=0;entryX=0.5;entryY=0;entryDx=0;entryDy=0;" edge="1" parent="bJq6qHO7lRjsnfCfAAI0-64" source="bJq6qHO7lRjsnfCfAAI0-52" target="bJq6qHO7lRjsnfCfAAI0-50">
          <mxGeometry relative="1" as="geometry" />
        </mxCell>
        <mxCell id="bJq6qHO7lRjsnfCfAAI0-52" value="&lt;font style=&quot;font-size: 16px&quot;&gt;Cliente/dipendente/fornitore&lt;br&gt;eliminato dal registro&lt;br&gt;&lt;/font&gt;" style="rounded=1;whiteSpace=wrap;html=1;" vertex="1" parent="bJq6qHO7lRjsnfCfAAI0-64">
          <mxGeometry x="854.82" y="280" width="215.85" height="48.72" as="geometry" />
        </mxCell>
        <mxCell id="bJq6qHO7lRjsnfCfAAI0-57" style="edgeStyle=orthogonalEdgeStyle;rounded=0;orthogonalLoop=1;jettySize=auto;html=1;exitX=0.5;exitY=1;exitDx=0;exitDy=0;entryX=0.5;entryY=0;entryDx=0;entryDy=0;fontSize=16;" edge="1" parent="bJq6qHO7lRjsnfCfAAI0-64" source="bJq6qHO7lRjsnfCfAAI0-56" target="bJq6qHO7lRjsnfCfAAI0-52">
          <mxGeometry relative="1" as="geometry">
            <mxPoint x="961.3294339622638" y="273.0746153846153" as="targetPoint" />
          </mxGeometry>
        </mxCell>
        <mxCell id="bJq6qHO7lRjsnfCfAAI0-56" value="&lt;span style=&quot;font-size: 15px&quot;&gt;Elimina cliente/dipendente/fornitore&lt;/span&gt;" style="rounded=1;whiteSpace=wrap;html=1;" vertex="1" parent="bJq6qHO7lRjsnfCfAAI0-64">
          <mxGeometry x="864.82" y="183.46000000000004" width="193.02" height="58.46" as="geometry" />
        </mxCell>
        <mxCell id="bJq6qHO7lRjsnfCfAAI0-67" value="" style="group" vertex="1" connectable="0" parent="1">
          <mxGeometry x="-130" y="1080" width="740" height="480" as="geometry" />
        </mxCell>
        <mxCell id="bJq6qHO7lRjsnfCfAAI0-68" value="" style="rounded=0;whiteSpace=wrap;html=1;fillColor=#d5e8d4;strokeColor=#82b366;" vertex="1" parent="bJq6qHO7lRjsnfCfAAI0-67">
          <mxGeometry x="644.82" y="-10" width="630" height="480" as="geometry" />
        </mxCell>
        <mxCell id="bJq6qHO7lRjsnfCfAAI0-69" value="Aggiungi cliente/dipendente/fornitore" style="rounded=1;whiteSpace=wrap;html=1;fontSize=16;fillColor=#fff2cc;strokeColor=#d6b656;" vertex="1" parent="bJq6qHO7lRjsnfCfAAI0-67">
          <mxGeometry x="644.82" y="-10" width="210" height="50" as="geometry" />
        </mxCell>
        <mxCell id="bJq6qHO7lRjsnfCfAAI0-70" value="" style="ellipse;html=1;shape=startState;fillColor=#000000;strokeColor=#ff0000;" vertex="1" parent="bJq6qHO7lRjsnfCfAAI0-67">
          <mxGeometry x="934.1600000000001" width="54.34" height="48.97" as="geometry" />
        </mxCell>
        <mxCell id="bJq6qHO7lRjsnfCfAAI0-71" value="" style="edgeStyle=orthogonalEdgeStyle;html=1;verticalAlign=bottom;endArrow=open;endSize=8;strokeColor=#ff0000;entryX=0.5;entryY=0;entryDx=0;entryDy=0;" edge="1" parent="bJq6qHO7lRjsnfCfAAI0-67" source="bJq6qHO7lRjsnfCfAAI0-70" target="bJq6qHO7lRjsnfCfAAI0-72">
          <mxGeometry relative="1" as="geometry">
            <mxPoint x="926.3294339622643" y="77.69230769230762" as="targetPoint" />
          </mxGeometry>
        </mxCell>
        <mxCell id="bJq6qHO7lRjsnfCfAAI0-72" value="&lt;span style=&quot;font-size: 15px&quot;&gt;Aggiungi cliente/dipendente/fornitore&lt;/span&gt;" style="rounded=1;whiteSpace=wrap;html=1;" vertex="1" parent="bJq6qHO7lRjsnfCfAAI0-67">
          <mxGeometry x="864.82" y="87.95000000000005" width="193.02" height="58.46" as="geometry" />
        </mxCell>
        <mxCell id="bJq6qHO7lRjsnfCfAAI0-73" value="" style="strokeWidth=2;html=1;shape=mxgraph.flowchart.decision;whiteSpace=wrap;" vertex="1" parent="bJq6qHO7lRjsnfCfAAI0-67">
          <mxGeometry x="893.4049056603774" y="195.8946153846154" width="135.8490566037736" height="68.20512820512819" as="geometry" />
        </mxCell>
        <mxCell id="bJq6qHO7lRjsnfCfAAI0-74" style="edgeStyle=orthogonalEdgeStyle;rounded=0;orthogonalLoop=1;jettySize=auto;html=1;exitX=0.5;exitY=1;exitDx=0;exitDy=0;entryX=0.5;entryY=0;entryDx=0;entryDy=0;entryPerimeter=0;" edge="1" parent="bJq6qHO7lRjsnfCfAAI0-67" source="bJq6qHO7lRjsnfCfAAI0-72" target="bJq6qHO7lRjsnfCfAAI0-73">
          <mxGeometry relative="1" as="geometry">
            <mxPoint x="961.3300000000003" y="183.46000000000004" as="targetPoint" />
          </mxGeometry>
        </mxCell>
        <mxCell id="bJq6qHO7lRjsnfCfAAI0-75" value="" style="ellipse;html=1;shape=endState;fillColor=#000000;strokeColor=#ff0000;" vertex="1" parent="bJq6qHO7lRjsnfCfAAI0-67">
          <mxGeometry x="1115.5700000000002" y="410" width="54.34" height="50" as="geometry" />
        </mxCell>
        <mxCell id="bJq6qHO7lRjsnfCfAAI0-76" style="edgeStyle=orthogonalEdgeStyle;rounded=0;orthogonalLoop=1;jettySize=auto;html=1;exitX=0.5;exitY=1;exitDx=0;exitDy=0;entryX=0.5;entryY=0;entryDx=0;entryDy=0;" edge="1" parent="bJq6qHO7lRjsnfCfAAI0-67" source="bJq6qHO7lRjsnfCfAAI0-77" target="bJq6qHO7lRjsnfCfAAI0-75">
          <mxGeometry relative="1" as="geometry" />
        </mxCell>
        <mxCell id="bJq6qHO7lRjsnfCfAAI0-77" value="&lt;font style=&quot;font-size: 16px&quot;&gt;Cliente/dipendente/fornitore&lt;br&gt;aggiunto al registro&lt;br&gt;&lt;/font&gt;" style="rounded=1;whiteSpace=wrap;html=1;" vertex="1" parent="bJq6qHO7lRjsnfCfAAI0-67">
          <mxGeometry x="1034.8200000000002" y="330" width="215.85" height="48.72" as="geometry" />
        </mxCell>
        <mxCell id="bJq6qHO7lRjsnfCfAAI0-78" style="edgeStyle=orthogonalEdgeStyle;rounded=0;orthogonalLoop=1;jettySize=auto;html=1;exitX=1;exitY=0.5;exitDx=0;exitDy=0;exitPerimeter=0;entryX=0.5;entryY=0;entryDx=0;entryDy=0;" edge="1" parent="bJq6qHO7lRjsnfCfAAI0-67" source="bJq6qHO7lRjsnfCfAAI0-73" target="bJq6qHO7lRjsnfCfAAI0-77">
          <mxGeometry relative="1" as="geometry">
            <mxPoint x="1177.6501886792453" y="233.58974358974353" as="targetPoint" />
          </mxGeometry>
        </mxCell>
        <mxCell id="bJq6qHO7lRjsnfCfAAI0-79" value="[Successo]" style="edgeLabel;html=1;align=center;verticalAlign=middle;resizable=0;points=[];" vertex="1" connectable="0" parent="bJq6qHO7lRjsnfCfAAI0-78">
          <mxGeometry x="0.037" y="2" relative="1" as="geometry">
            <mxPoint x="-11" y="2" as="offset" />
          </mxGeometry>
        </mxCell>
        <mxCell id="bJq6qHO7lRjsnfCfAAI0-82" value="" style="shape=sumEllipse;perimeter=ellipsePerimeter;whiteSpace=wrap;html=1;backgroundOutline=1;fontSize=16;" vertex="1" parent="bJq6qHO7lRjsnfCfAAI0-67">
          <mxGeometry x="714.82" y="290" width="40" height="40" as="geometry" />
        </mxCell>
        <mxCell id="bJq6qHO7lRjsnfCfAAI0-83" style="edgeStyle=orthogonalEdgeStyle;rounded=0;orthogonalLoop=1;jettySize=auto;html=1;exitX=0;exitY=0.5;exitDx=0;exitDy=0;exitPerimeter=0;entryX=0.5;entryY=0;entryDx=0;entryDy=0;" edge="1" parent="bJq6qHO7lRjsnfCfAAI0-67" source="bJq6qHO7lRjsnfCfAAI0-73" target="bJq6qHO7lRjsnfCfAAI0-82">
          <mxGeometry relative="1" as="geometry">
            <mxPoint x="746.32" y="369.99871794871797" as="targetPoint" />
          </mxGeometry>
        </mxCell>
        <mxCell id="bJq6qHO7lRjsnfCfAAI0-84" value="[Informazioni non sufficienti]" style="edgeLabel;html=1;align=center;verticalAlign=middle;resizable=0;points=[];" vertex="1" connectable="0" parent="bJq6qHO7lRjsnfCfAAI0-83">
          <mxGeometry x="-0.0968" relative="1" as="geometry">
            <mxPoint x="16" as="offset" />
          </mxGeometry>
        </mxCell>
        <mxCell id="bJq6qHO7lRjsnfCfAAI0-85" value="" style="group" vertex="1" connectable="0" parent="1">
          <mxGeometry x="-285.17999999999995" y="520" width="740" height="480" as="geometry" />
        </mxCell>
        <mxCell id="bJq6qHO7lRjsnfCfAAI0-86" value="" style="rounded=0;whiteSpace=wrap;html=1;fillColor=#d5e8d4;strokeColor=#82b366;" vertex="1" parent="bJq6qHO7lRjsnfCfAAI0-85">
          <mxGeometry x="10" width="740" height="480" as="geometry" />
        </mxCell>
        <mxCell id="bJq6qHO7lRjsnfCfAAI0-87" value="Modifica cliente/dipendente/fornitore" style="rounded=1;whiteSpace=wrap;html=1;fontSize=16;fillColor=#fff2cc;strokeColor=#d6b656;" vertex="1" parent="bJq6qHO7lRjsnfCfAAI0-85">
          <mxGeometry x="10" width="210" height="50" as="geometry" />
        </mxCell>
        <mxCell id="bJq6qHO7lRjsnfCfAAI0-88" value="" style="ellipse;html=1;shape=startState;fillColor=#000000;strokeColor=#ff0000;" vertex="1" parent="bJq6qHO7lRjsnfCfAAI0-85">
          <mxGeometry x="299.34000000000003" y="10" width="54.34" height="48.97" as="geometry" />
        </mxCell>
        <mxCell id="bJq6qHO7lRjsnfCfAAI0-89" value="" style="edgeStyle=orthogonalEdgeStyle;html=1;verticalAlign=bottom;endArrow=open;endSize=8;strokeColor=#ff0000;entryX=0.5;entryY=0;entryDx=0;entryDy=0;" edge="1" parent="bJq6qHO7lRjsnfCfAAI0-85" source="bJq6qHO7lRjsnfCfAAI0-88" target="bJq6qHO7lRjsnfCfAAI0-90">
          <mxGeometry relative="1" as="geometry">
            <mxPoint x="291.5094339622642" y="87.69230769230762" as="targetPoint" />
          </mxGeometry>
        </mxCell>
        <mxCell id="bJq6qHO7lRjsnfCfAAI0-90" value="&lt;span style=&quot;font-size: 15px&quot;&gt;Mosta cliente/dipendente/fornitore&lt;/span&gt;" style="rounded=1;whiteSpace=wrap;html=1;" vertex="1" parent="bJq6qHO7lRjsnfCfAAI0-85">
          <mxGeometry x="230" y="97.95000000000005" width="193.02" height="58.46" as="geometry" />
        </mxCell>
        <mxCell id="bJq6qHO7lRjsnfCfAAI0-91" value="" style="strokeWidth=2;html=1;shape=mxgraph.flowchart.decision;whiteSpace=wrap;" vertex="1" parent="bJq6qHO7lRjsnfCfAAI0-85">
          <mxGeometry x="258.58490566037733" y="283.0746153846154" width="135.8490566037736" height="68.20512820512819" as="geometry" />
        </mxCell>
        <mxCell id="bJq6qHO7lRjsnfCfAAI0-92" style="edgeStyle=orthogonalEdgeStyle;rounded=0;orthogonalLoop=1;jettySize=auto;html=1;exitX=0.5;exitY=1;exitDx=0;exitDy=0;entryX=0.5;entryY=0;entryDx=0;entryDy=0;" edge="1" parent="bJq6qHO7lRjsnfCfAAI0-85" source="bJq6qHO7lRjsnfCfAAI0-90" target="bJq6qHO7lRjsnfCfAAI0-99">
          <mxGeometry relative="1" as="geometry">
            <mxPoint x="327" y="190" as="targetPoint" />
          </mxGeometry>
        </mxCell>
        <mxCell id="bJq6qHO7lRjsnfCfAAI0-93" value="" style="ellipse;html=1;shape=endState;fillColor=#000000;strokeColor=#ff0000;" vertex="1" parent="bJq6qHO7lRjsnfCfAAI0-85">
          <mxGeometry x="480.75" y="420" width="54.34" height="50" as="geometry" />
        </mxCell>
        <mxCell id="bJq6qHO7lRjsnfCfAAI0-94" style="edgeStyle=orthogonalEdgeStyle;rounded=0;orthogonalLoop=1;jettySize=auto;html=1;exitX=0.5;exitY=1;exitDx=0;exitDy=0;entryX=0.5;entryY=0;entryDx=0;entryDy=0;" edge="1" parent="bJq6qHO7lRjsnfCfAAI0-85" source="bJq6qHO7lRjsnfCfAAI0-95" target="bJq6qHO7lRjsnfCfAAI0-93">
          <mxGeometry relative="1" as="geometry" />
        </mxCell>
        <mxCell id="bJq6qHO7lRjsnfCfAAI0-95" value="&lt;font style=&quot;font-size: 16px&quot;&gt;Cliente/dipendente/fornitore&lt;br&gt;modificato nel registro&lt;br&gt;&lt;/font&gt;" style="rounded=1;whiteSpace=wrap;html=1;" vertex="1" parent="bJq6qHO7lRjsnfCfAAI0-85">
          <mxGeometry x="400" y="340" width="215.85" height="48.72" as="geometry" />
        </mxCell>
        <mxCell id="bJq6qHO7lRjsnfCfAAI0-96" style="edgeStyle=orthogonalEdgeStyle;rounded=0;orthogonalLoop=1;jettySize=auto;html=1;exitX=1;exitY=0.5;exitDx=0;exitDy=0;exitPerimeter=0;entryX=0.5;entryY=0;entryDx=0;entryDy=0;" edge="1" parent="bJq6qHO7lRjsnfCfAAI0-85" source="bJq6qHO7lRjsnfCfAAI0-91" target="bJq6qHO7lRjsnfCfAAI0-95">
          <mxGeometry relative="1" as="geometry">
            <mxPoint x="542.8301886792453" y="243.58974358974353" as="targetPoint" />
          </mxGeometry>
        </mxCell>
        <mxCell id="bJq6qHO7lRjsnfCfAAI0-97" value="[Salva]" style="edgeLabel;html=1;align=center;verticalAlign=middle;resizable=0;points=[];" vertex="1" connectable="0" parent="bJq6qHO7lRjsnfCfAAI0-96">
          <mxGeometry x="0.037" y="2" relative="1" as="geometry">
            <mxPoint x="-11" y="2" as="offset" />
          </mxGeometry>
        </mxCell>
        <mxCell id="bJq6qHO7lRjsnfCfAAI0-98" style="edgeStyle=orthogonalEdgeStyle;rounded=0;orthogonalLoop=1;jettySize=auto;html=1;exitX=0.5;exitY=1;exitDx=0;exitDy=0;entryX=0.5;entryY=0;entryDx=0;entryDy=0;entryPerimeter=0;fontSize=16;" edge="1" parent="bJq6qHO7lRjsnfCfAAI0-85" source="bJq6qHO7lRjsnfCfAAI0-99" target="bJq6qHO7lRjsnfCfAAI0-91">
          <mxGeometry relative="1" as="geometry" />
        </mxCell>
        <mxCell id="bJq6qHO7lRjsnfCfAAI0-99" value="&lt;span style=&quot;font-size: 15px&quot;&gt;Modifica cliente/dipendente/fornitore&lt;/span&gt;" style="rounded=1;whiteSpace=wrap;html=1;" vertex="1" parent="bJq6qHO7lRjsnfCfAAI0-85">
          <mxGeometry x="230" y="193.46000000000004" width="193.02" height="58.46" as="geometry" />
        </mxCell>
        <mxCell id="bJq6qHO7lRjsnfCfAAI0-100" value="" style="shape=sumEllipse;perimeter=ellipsePerimeter;whiteSpace=wrap;html=1;backgroundOutline=1;fontSize=16;" vertex="1" parent="bJq6qHO7lRjsnfCfAAI0-85">
          <mxGeometry x="170" y="380" width="40" height="40" as="geometry" />
        </mxCell>
        <mxCell id="bJq6qHO7lRjsnfCfAAI0-101" style="edgeStyle=orthogonalEdgeStyle;rounded=0;orthogonalLoop=1;jettySize=auto;html=1;exitX=0;exitY=0.5;exitDx=0;exitDy=0;exitPerimeter=0;entryX=0.5;entryY=0;entryDx=0;entryDy=0;" edge="1" parent="bJq6qHO7lRjsnfCfAAI0-85" source="bJq6qHO7lRjsnfCfAAI0-91" target="bJq6qHO7lRjsnfCfAAI0-100">
          <mxGeometry relative="1" as="geometry">
            <mxPoint x="111.5" y="379.99871794871797" as="targetPoint" />
          </mxGeometry>
        </mxCell>
        <mxCell id="bJq6qHO7lRjsnfCfAAI0-102" value="[Annulla]" style="edgeLabel;html=1;align=center;verticalAlign=middle;resizable=0;points=[];" vertex="1" connectable="0" parent="bJq6qHO7lRjsnfCfAAI0-101">
          <mxGeometry x="-0.0968" relative="1" as="geometry">
            <mxPoint x="20" as="offset" />
          </mxGeometry>
        </mxCell>
        <mxCell id="bJq6qHO7lRjsnfCfAAI0-103" value="" style="group" vertex="1" connectable="0" parent="1">
          <mxGeometry x="-265.17999999999995" y="1060" width="740" height="480" as="geometry" />
        </mxCell>
        <mxCell id="bJq6qHO7lRjsnfCfAAI0-104" value="" style="rounded=0;whiteSpace=wrap;html=1;fillColor=#d5e8d4;strokeColor=#82b366;" vertex="1" parent="bJq6qHO7lRjsnfCfAAI0-103">
          <mxGeometry x="10" width="640" height="480" as="geometry" />
        </mxCell>
        <mxCell id="bJq6qHO7lRjsnfCfAAI0-105" value="Visualizza cliente/dipendente/fornitore" style="rounded=1;whiteSpace=wrap;html=1;fontSize=16;fillColor=#fff2cc;strokeColor=#d6b656;" vertex="1" parent="bJq6qHO7lRjsnfCfAAI0-103">
          <mxGeometry x="10" width="210" height="50" as="geometry" />
        </mxCell>
        <mxCell id="bJq6qHO7lRjsnfCfAAI0-106" value="" style="ellipse;html=1;shape=startState;fillColor=#000000;strokeColor=#ff0000;" vertex="1" parent="bJq6qHO7lRjsnfCfAAI0-103">
          <mxGeometry x="299.34000000000003" y="10" width="54.34" height="48.97" as="geometry" />
        </mxCell>
        <mxCell id="bJq6qHO7lRjsnfCfAAI0-107" value="" style="edgeStyle=orthogonalEdgeStyle;html=1;verticalAlign=bottom;endArrow=open;endSize=8;strokeColor=#ff0000;entryX=0.5;entryY=0;entryDx=0;entryDy=0;" edge="1" parent="bJq6qHO7lRjsnfCfAAI0-103" source="bJq6qHO7lRjsnfCfAAI0-106" target="bJq6qHO7lRjsnfCfAAI0-108">
          <mxGeometry relative="1" as="geometry">
            <mxPoint x="291.5094339622642" y="87.69230769230762" as="targetPoint" />
          </mxGeometry>
        </mxCell>
        <mxCell id="bJq6qHO7lRjsnfCfAAI0-108" value="&lt;span style=&quot;font-size: 15px&quot;&gt;Mostra lista cliente/dipendente/fornitore&lt;/span&gt;" style="rounded=1;whiteSpace=wrap;html=1;" vertex="1" parent="bJq6qHO7lRjsnfCfAAI0-103">
          <mxGeometry x="230" y="97.95000000000005" width="193.02" height="58.46" as="geometry" />
        </mxCell>
        <mxCell id="bJq6qHO7lRjsnfCfAAI0-109" value="" style="strokeWidth=2;html=1;shape=mxgraph.flowchart.decision;whiteSpace=wrap;" vertex="1" parent="bJq6qHO7lRjsnfCfAAI0-103">
          <mxGeometry x="258.58490566037733" y="220.00461538461542" width="135.8490566037736" height="68.20512820512819" as="geometry" />
        </mxCell>
        <mxCell id="bJq6qHO7lRjsnfCfAAI0-110" style="edgeStyle=orthogonalEdgeStyle;rounded=0;orthogonalLoop=1;jettySize=auto;html=1;exitX=0.5;exitY=1;exitDx=0;exitDy=0;entryX=0.5;entryY=0;entryDx=0;entryDy=0;entryPerimeter=0;" edge="1" parent="bJq6qHO7lRjsnfCfAAI0-103" source="bJq6qHO7lRjsnfCfAAI0-108" target="bJq6qHO7lRjsnfCfAAI0-109">
          <mxGeometry relative="1" as="geometry">
            <mxPoint x="326.5100000000002" y="193.46000000000004" as="targetPoint" />
          </mxGeometry>
        </mxCell>
        <mxCell id="bJq6qHO7lRjsnfCfAAI0-111" value="" style="ellipse;html=1;shape=endState;fillColor=#000000;strokeColor=#ff0000;" vertex="1" parent="bJq6qHO7lRjsnfCfAAI0-103">
          <mxGeometry x="480.75" y="420" width="54.34" height="50" as="geometry" />
        </mxCell>
        <mxCell id="bJq6qHO7lRjsnfCfAAI0-112" style="edgeStyle=orthogonalEdgeStyle;rounded=0;orthogonalLoop=1;jettySize=auto;html=1;exitX=0.5;exitY=1;exitDx=0;exitDy=0;entryX=0.5;entryY=0;entryDx=0;entryDy=0;" edge="1" parent="bJq6qHO7lRjsnfCfAAI0-103" source="bJq6qHO7lRjsnfCfAAI0-113" target="bJq6qHO7lRjsnfCfAAI0-111">
          <mxGeometry relative="1" as="geometry" />
        </mxCell>
        <mxCell id="bJq6qHO7lRjsnfCfAAI0-113" value="&lt;font style=&quot;font-size: 16px&quot;&gt;Visualizza informazioni&lt;br&gt;cliente/dipendente/fornitore&lt;br&gt;&lt;/font&gt;" style="rounded=1;whiteSpace=wrap;html=1;" vertex="1" parent="bJq6qHO7lRjsnfCfAAI0-103">
          <mxGeometry x="400" y="340" width="215.85" height="48.72" as="geometry" />
        </mxCell>
        <mxCell id="bJq6qHO7lRjsnfCfAAI0-114" style="edgeStyle=orthogonalEdgeStyle;rounded=0;orthogonalLoop=1;jettySize=auto;html=1;exitX=1;exitY=0.5;exitDx=0;exitDy=0;exitPerimeter=0;entryX=0.5;entryY=0;entryDx=0;entryDy=0;" edge="1" parent="bJq6qHO7lRjsnfCfAAI0-103" source="bJq6qHO7lRjsnfCfAAI0-109" target="bJq6qHO7lRjsnfCfAAI0-113">
          <mxGeometry relative="1" as="geometry">
            <mxPoint x="542.8301886792453" y="243.58974358974353" as="targetPoint" />
          </mxGeometry>
        </mxCell>
        <mxCell id="bJq6qHO7lRjsnfCfAAI0-115" value="[Esistente]" style="edgeLabel;html=1;align=center;verticalAlign=middle;resizable=0;points=[];" vertex="1" connectable="0" parent="bJq6qHO7lRjsnfCfAAI0-114">
          <mxGeometry x="0.037" y="2" relative="1" as="geometry">
            <mxPoint x="-11" y="2" as="offset" />
          </mxGeometry>
        </mxCell>
        <mxCell id="bJq6qHO7lRjsnfCfAAI0-118" value="" style="shape=sumEllipse;perimeter=ellipsePerimeter;whiteSpace=wrap;html=1;backgroundOutline=1;fontSize=16;" vertex="1" parent="bJq6qHO7lRjsnfCfAAI0-103">
          <mxGeometry x="170" y="380" width="40" height="40" as="geometry" />
        </mxCell>
        <mxCell id="bJq6qHO7lRjsnfCfAAI0-119" style="edgeStyle=orthogonalEdgeStyle;rounded=0;orthogonalLoop=1;jettySize=auto;html=1;exitX=0;exitY=0.5;exitDx=0;exitDy=0;exitPerimeter=0;entryX=0.5;entryY=0;entryDx=0;entryDy=0;" edge="1" parent="bJq6qHO7lRjsnfCfAAI0-103" source="bJq6qHO7lRjsnfCfAAI0-109" target="bJq6qHO7lRjsnfCfAAI0-118">
          <mxGeometry relative="1" as="geometry">
            <mxPoint x="111.5" y="379.99871794871797" as="targetPoint" />
          </mxGeometry>
        </mxCell>
        <mxCell id="bJq6qHO7lRjsnfCfAAI0-120" value="[Non esistente]" style="edgeLabel;html=1;align=center;verticalAlign=middle;resizable=0;points=[];" vertex="1" connectable="0" parent="bJq6qHO7lRjsnfCfAAI0-119">
          <mxGeometry x="-0.0968" relative="1" as="geometry">
            <mxPoint x="20" as="offset" />
          </mxGeometry>
        </mxCell>
        <mxCell id="bJq6qHO7lRjsnfCfAAI0-121" value="" style="group" vertex="1" connectable="0" parent="1">
          <mxGeometry x="-1075.1799999999998" y="520" width="740" height="480" as="geometry" />
        </mxCell>
        <mxCell id="bJq6qHO7lRjsnfCfAAI0-122" value="" style="rounded=0;whiteSpace=wrap;html=1;fillColor=#d5e8d4;strokeColor=#82b366;" vertex="1" parent="bJq6qHO7lRjsnfCfAAI0-121">
          <mxGeometry x="10" width="450" height="370" as="geometry" />
        </mxCell>
        <mxCell id="bJq6qHO7lRjsnfCfAAI0-123" value="Crea PDF cliente/dipendente/fornitore" style="rounded=1;whiteSpace=wrap;html=1;fontSize=16;fillColor=#fff2cc;strokeColor=#d6b656;" vertex="1" parent="bJq6qHO7lRjsnfCfAAI0-121">
          <mxGeometry x="10" width="210" height="50" as="geometry" />
        </mxCell>
        <mxCell id="bJq6qHO7lRjsnfCfAAI0-124" value="" style="ellipse;html=1;shape=startState;fillColor=#000000;strokeColor=#ff0000;" vertex="1" parent="bJq6qHO7lRjsnfCfAAI0-121">
          <mxGeometry x="299.34000000000003" y="10" width="54.34" height="48.97" as="geometry" />
        </mxCell>
        <mxCell id="bJq6qHO7lRjsnfCfAAI0-125" value="" style="edgeStyle=orthogonalEdgeStyle;html=1;verticalAlign=bottom;endArrow=open;endSize=8;strokeColor=#ff0000;entryX=0.5;entryY=0;entryDx=0;entryDy=0;" edge="1" parent="bJq6qHO7lRjsnfCfAAI0-121" source="bJq6qHO7lRjsnfCfAAI0-124" target="bJq6qHO7lRjsnfCfAAI0-126">
          <mxGeometry relative="1" as="geometry">
            <mxPoint x="291.5094339622642" y="87.69230769230762" as="targetPoint" />
          </mxGeometry>
        </mxCell>
        <mxCell id="bJq6qHO7lRjsnfCfAAI0-126" value="&lt;span style=&quot;font-size: 15px&quot;&gt;Mosta registro cliente/dipendente/fornitore&lt;/span&gt;" style="rounded=1;whiteSpace=wrap;html=1;" vertex="1" parent="bJq6qHO7lRjsnfCfAAI0-121">
          <mxGeometry x="230" y="97.95000000000005" width="193.02" height="58.46" as="geometry" />
        </mxCell>
        <mxCell id="bJq6qHO7lRjsnfCfAAI0-128" style="edgeStyle=orthogonalEdgeStyle;rounded=0;orthogonalLoop=1;jettySize=auto;html=1;exitX=0.5;exitY=1;exitDx=0;exitDy=0;entryX=0.5;entryY=0;entryDx=0;entryDy=0;" edge="1" parent="bJq6qHO7lRjsnfCfAAI0-121" source="bJq6qHO7lRjsnfCfAAI0-126" target="bJq6qHO7lRjsnfCfAAI0-135">
          <mxGeometry relative="1" as="geometry">
            <mxPoint x="327" y="190" as="targetPoint" />
          </mxGeometry>
        </mxCell>
        <mxCell id="bJq6qHO7lRjsnfCfAAI0-129" value="" style="ellipse;html=1;shape=endState;fillColor=#000000;strokeColor=#ff0000;" vertex="1" parent="bJq6qHO7lRjsnfCfAAI0-121">
          <mxGeometry x="299.34000000000003" y="290" width="54.34" height="50" as="geometry" />
        </mxCell>
        <mxCell id="bJq6qHO7lRjsnfCfAAI0-140" style="edgeStyle=orthogonalEdgeStyle;rounded=0;orthogonalLoop=1;jettySize=auto;html=1;exitX=0.5;exitY=1;exitDx=0;exitDy=0;entryX=0.5;entryY=0;entryDx=0;entryDy=0;fontSize=16;" edge="1" parent="bJq6qHO7lRjsnfCfAAI0-121" source="bJq6qHO7lRjsnfCfAAI0-135" target="bJq6qHO7lRjsnfCfAAI0-129">
          <mxGeometry relative="1" as="geometry" />
        </mxCell>
        <mxCell id="bJq6qHO7lRjsnfCfAAI0-135" value="&lt;span style=&quot;font-size: 15px&quot;&gt;Crea PDF&lt;/span&gt;" style="rounded=1;whiteSpace=wrap;html=1;" vertex="1" parent="bJq6qHO7lRjsnfCfAAI0-121">
          <mxGeometry x="245" y="193.46" width="163.02" height="58.46" as="geometry" />
        </mxCell>
        <mxCell id="bJq6qHO7lRjsnfCfAAI0-141" value="" style="group" vertex="1" connectable="0" parent="1">
          <mxGeometry x="-1065.1799999999998" y="930" width="740" height="480" as="geometry" />
        </mxCell>
        <mxCell id="bJq6qHO7lRjsnfCfAAI0-142" value="" style="rounded=0;whiteSpace=wrap;html=1;fillColor=#d5e8d4;strokeColor=#82b366;" vertex="1" parent="bJq6qHO7lRjsnfCfAAI0-141">
          <mxGeometry x="10" width="740" height="480" as="geometry" />
        </mxCell>
        <mxCell id="bJq6qHO7lRjsnfCfAAI0-143" value="Prenota camera" style="rounded=1;whiteSpace=wrap;html=1;fontSize=16;fillColor=#fff2cc;strokeColor=#d6b656;" vertex="1" parent="bJq6qHO7lRjsnfCfAAI0-141">
          <mxGeometry x="10" width="210" height="50" as="geometry" />
        </mxCell>
        <mxCell id="bJq6qHO7lRjsnfCfAAI0-144" value="" style="ellipse;html=1;shape=startState;fillColor=#000000;strokeColor=#ff0000;" vertex="1" parent="bJq6qHO7lRjsnfCfAAI0-141">
          <mxGeometry x="299.34000000000003" y="10" width="54.34" height="48.97" as="geometry" />
        </mxCell>
        <mxCell id="bJq6qHO7lRjsnfCfAAI0-145" value="" style="edgeStyle=orthogonalEdgeStyle;html=1;verticalAlign=bottom;endArrow=open;endSize=8;strokeColor=#ff0000;entryX=0.5;entryY=0;entryDx=0;entryDy=0;" edge="1" parent="bJq6qHO7lRjsnfCfAAI0-141" source="bJq6qHO7lRjsnfCfAAI0-144" target="bJq6qHO7lRjsnfCfAAI0-146">
          <mxGeometry relative="1" as="geometry">
            <mxPoint x="291.5094339622642" y="87.69230769230762" as="targetPoint" />
          </mxGeometry>
        </mxCell>
        <mxCell id="bJq6qHO7lRjsnfCfAAI0-185" style="edgeStyle=orthogonalEdgeStyle;rounded=0;orthogonalLoop=1;jettySize=auto;html=1;fontSize=16;" edge="1" parent="bJq6qHO7lRjsnfCfAAI0-141" source="bJq6qHO7lRjsnfCfAAI0-146" target="bJq6qHO7lRjsnfCfAAI0-184">
          <mxGeometry relative="1" as="geometry" />
        </mxCell>
        <mxCell id="bJq6qHO7lRjsnfCfAAI0-146" value="&lt;span style=&quot;font-size: 15px&quot;&gt;Ricerca camera&lt;/span&gt;&lt;br style=&quot;font-size: 15px&quot;&gt;&lt;span style=&quot;font-size: 15px&quot;&gt;disponibile&lt;/span&gt;&lt;span style=&quot;font-size: 15px&quot;&gt;&lt;br&gt;&lt;/span&gt;" style="rounded=1;whiteSpace=wrap;html=1;" vertex="1" parent="bJq6qHO7lRjsnfCfAAI0-141">
          <mxGeometry x="238.72" y="80" width="175.57" height="40" as="geometry" />
        </mxCell>
        <mxCell id="bJq6qHO7lRjsnfCfAAI0-164" style="edgeStyle=orthogonalEdgeStyle;rounded=0;orthogonalLoop=1;jettySize=auto;html=1;entryX=0.5;entryY=0;entryDx=0;entryDy=0;fontSize=16;" edge="1" parent="bJq6qHO7lRjsnfCfAAI0-141" source="bJq6qHO7lRjsnfCfAAI0-147" target="bJq6qHO7lRjsnfCfAAI0-159">
          <mxGeometry relative="1" as="geometry" />
        </mxCell>
        <mxCell id="bJq6qHO7lRjsnfCfAAI0-165" value="&lt;font style=&quot;font-size: 12px&quot;&gt;[Cliente non registrato&lt;/font&gt;]" style="edgeLabel;html=1;align=center;verticalAlign=middle;resizable=0;points=[];fontSize=16;" vertex="1" connectable="0" parent="bJq6qHO7lRjsnfCfAAI0-164">
          <mxGeometry x="-0.1296" relative="1" as="geometry">
            <mxPoint as="offset" />
          </mxGeometry>
        </mxCell>
        <mxCell id="bJq6qHO7lRjsnfCfAAI0-147" value="" style="strokeWidth=2;html=1;shape=mxgraph.flowchart.decision;whiteSpace=wrap;" vertex="1" parent="bJq6qHO7lRjsnfCfAAI0-141">
          <mxGeometry x="258.58490566037733" y="231.7946153846154" width="135.8490566037736" height="68.20512820512819" as="geometry" />
        </mxCell>
        <mxCell id="bJq6qHO7lRjsnfCfAAI0-149" value="" style="ellipse;html=1;shape=endState;fillColor=#000000;strokeColor=#ff0000;" vertex="1" parent="bJq6qHO7lRjsnfCfAAI0-141">
          <mxGeometry x="520.75" y="380" width="54.34" height="50" as="geometry" />
        </mxCell>
        <mxCell id="bJq6qHO7lRjsnfCfAAI0-150" style="edgeStyle=orthogonalEdgeStyle;rounded=0;orthogonalLoop=1;jettySize=auto;html=1;exitX=0.5;exitY=1;exitDx=0;exitDy=0;entryX=0.5;entryY=0;entryDx=0;entryDy=0;" edge="1" parent="bJq6qHO7lRjsnfCfAAI0-141" source="bJq6qHO7lRjsnfCfAAI0-151" target="bJq6qHO7lRjsnfCfAAI0-149">
          <mxGeometry relative="1" as="geometry" />
        </mxCell>
        <mxCell id="bJq6qHO7lRjsnfCfAAI0-151" value="&lt;font style=&quot;font-size: 16px&quot;&gt;Prenota camera&lt;br&gt;&lt;/font&gt;" style="rounded=1;whiteSpace=wrap;html=1;" vertex="1" parent="bJq6qHO7lRjsnfCfAAI0-141">
          <mxGeometry x="470" y="300" width="155.84" height="48.72" as="geometry" />
        </mxCell>
        <mxCell id="bJq6qHO7lRjsnfCfAAI0-152" style="edgeStyle=orthogonalEdgeStyle;rounded=0;orthogonalLoop=1;jettySize=auto;html=1;exitX=1;exitY=0.5;exitDx=0;exitDy=0;exitPerimeter=0;entryX=0.5;entryY=0;entryDx=0;entryDy=0;" edge="1" parent="bJq6qHO7lRjsnfCfAAI0-141" source="bJq6qHO7lRjsnfCfAAI0-147" target="bJq6qHO7lRjsnfCfAAI0-151">
          <mxGeometry relative="1" as="geometry">
            <mxPoint x="542.8301886792453" y="243.58974358974353" as="targetPoint" />
          </mxGeometry>
        </mxCell>
        <mxCell id="bJq6qHO7lRjsnfCfAAI0-153" value="&lt;font style=&quot;font-size: 12px&quot;&gt;[Cliente già registrato]&lt;/font&gt;" style="edgeLabel;html=1;align=center;verticalAlign=middle;resizable=0;points=[];" vertex="1" connectable="0" parent="bJq6qHO7lRjsnfCfAAI0-152">
          <mxGeometry x="0.037" y="2" relative="1" as="geometry">
            <mxPoint x="-11" y="2" as="offset" />
          </mxGeometry>
        </mxCell>
        <mxCell id="bJq6qHO7lRjsnfCfAAI0-166" style="edgeStyle=orthogonalEdgeStyle;rounded=0;orthogonalLoop=1;jettySize=auto;html=1;exitX=1;exitY=0.5;exitDx=0;exitDy=0;entryX=0;entryY=0.5;entryDx=0;entryDy=0;fontSize=16;" edge="1" parent="bJq6qHO7lRjsnfCfAAI0-141" source="bJq6qHO7lRjsnfCfAAI0-159" target="bJq6qHO7lRjsnfCfAAI0-151">
          <mxGeometry relative="1" as="geometry" />
        </mxCell>
        <mxCell id="bJq6qHO7lRjsnfCfAAI0-159" value="&lt;font style=&quot;font-size: 16px&quot;&gt;Aggiungi Cliente&lt;br&gt;&lt;/font&gt;" style="rounded=1;whiteSpace=wrap;html=1;" vertex="1" parent="bJq6qHO7lRjsnfCfAAI0-141">
          <mxGeometry x="60" y="320" width="160" height="48.72" as="geometry" />
        </mxCell>
        <mxCell id="bJq6qHO7lRjsnfCfAAI0-186" style="edgeStyle=orthogonalEdgeStyle;rounded=0;orthogonalLoop=1;jettySize=auto;html=1;fontSize=16;" edge="1" parent="bJq6qHO7lRjsnfCfAAI0-141" source="bJq6qHO7lRjsnfCfAAI0-184" target="bJq6qHO7lRjsnfCfAAI0-147">
          <mxGeometry relative="1" as="geometry" />
        </mxCell>
        <mxCell id="bJq6qHO7lRjsnfCfAAI0-184" value="&lt;span style=&quot;font-size: 15px&quot;&gt;Seleziona camera&lt;br&gt;&lt;/span&gt;" style="rounded=1;whiteSpace=wrap;html=1;" vertex="1" parent="bJq6qHO7lRjsnfCfAAI0-141">
          <mxGeometry x="251.65" y="150" width="148.35" height="48.46" as="geometry" />
        </mxCell>
        <mxCell id="bJq6qHO7lRjsnfCfAAI0-188" value="" style="group" vertex="1" connectable="0" parent="1">
          <mxGeometry x="-1045.1799999999998" y="1460" width="740" height="480" as="geometry" />
        </mxCell>
        <mxCell id="bJq6qHO7lRjsnfCfAAI0-189" value="" style="rounded=0;whiteSpace=wrap;html=1;fillColor=#d5e8d4;strokeColor=#82b366;" vertex="1" parent="bJq6qHO7lRjsnfCfAAI0-188">
          <mxGeometry x="10" width="740" height="480" as="geometry" />
        </mxCell>
        <mxCell id="bJq6qHO7lRjsnfCfAAI0-190" value="Prenota tavolo" style="rounded=1;whiteSpace=wrap;html=1;fontSize=16;fillColor=#fff2cc;strokeColor=#d6b656;" vertex="1" parent="bJq6qHO7lRjsnfCfAAI0-188">
          <mxGeometry x="10" width="210" height="50" as="geometry" />
        </mxCell>
        <mxCell id="bJq6qHO7lRjsnfCfAAI0-191" value="" style="ellipse;html=1;shape=startState;fillColor=#000000;strokeColor=#ff0000;" vertex="1" parent="bJq6qHO7lRjsnfCfAAI0-188">
          <mxGeometry x="299.34000000000003" y="10" width="54.34" height="48.97" as="geometry" />
        </mxCell>
        <mxCell id="bJq6qHO7lRjsnfCfAAI0-192" value="" style="edgeStyle=orthogonalEdgeStyle;html=1;verticalAlign=bottom;endArrow=open;endSize=8;strokeColor=#ff0000;entryX=0.5;entryY=0;entryDx=0;entryDy=0;" edge="1" parent="bJq6qHO7lRjsnfCfAAI0-188" source="bJq6qHO7lRjsnfCfAAI0-191" target="bJq6qHO7lRjsnfCfAAI0-194">
          <mxGeometry relative="1" as="geometry">
            <mxPoint x="291.5094339622642" y="87.69230769230762" as="targetPoint" />
          </mxGeometry>
        </mxCell>
        <mxCell id="bJq6qHO7lRjsnfCfAAI0-193" style="edgeStyle=orthogonalEdgeStyle;rounded=0;orthogonalLoop=1;jettySize=auto;html=1;fontSize=16;" edge="1" parent="bJq6qHO7lRjsnfCfAAI0-188" source="bJq6qHO7lRjsnfCfAAI0-194" target="bJq6qHO7lRjsnfCfAAI0-206">
          <mxGeometry relative="1" as="geometry" />
        </mxCell>
        <mxCell id="bJq6qHO7lRjsnfCfAAI0-194" value="&lt;span style=&quot;font-size: 15px&quot;&gt;Ricerca tavolo&lt;/span&gt;&lt;br style=&quot;font-size: 15px&quot;&gt;&lt;span style=&quot;font-size: 15px&quot;&gt;disponibile&lt;/span&gt;&lt;span style=&quot;font-size: 15px&quot;&gt;&lt;br&gt;&lt;/span&gt;" style="rounded=1;whiteSpace=wrap;html=1;" vertex="1" parent="bJq6qHO7lRjsnfCfAAI0-188">
          <mxGeometry x="238.72" y="80" width="175.57" height="40" as="geometry" />
        </mxCell>
        <mxCell id="bJq6qHO7lRjsnfCfAAI0-195" style="edgeStyle=orthogonalEdgeStyle;rounded=0;orthogonalLoop=1;jettySize=auto;html=1;entryX=0.5;entryY=0;entryDx=0;entryDy=0;fontSize=16;" edge="1" parent="bJq6qHO7lRjsnfCfAAI0-188" source="bJq6qHO7lRjsnfCfAAI0-197" target="bJq6qHO7lRjsnfCfAAI0-207">
          <mxGeometry relative="1" as="geometry">
            <mxPoint x="140" y="320" as="targetPoint" />
          </mxGeometry>
        </mxCell>
        <mxCell id="bJq6qHO7lRjsnfCfAAI0-196" value="&lt;font style=&quot;font-size: 12px&quot;&gt;[Cliente non registrato&lt;/font&gt;]" style="edgeLabel;html=1;align=center;verticalAlign=middle;resizable=0;points=[];fontSize=16;" vertex="1" connectable="0" parent="bJq6qHO7lRjsnfCfAAI0-195">
          <mxGeometry x="-0.1296" relative="1" as="geometry">
            <mxPoint as="offset" />
          </mxGeometry>
        </mxCell>
        <mxCell id="bJq6qHO7lRjsnfCfAAI0-197" value="" style="strokeWidth=2;html=1;shape=mxgraph.flowchart.decision;whiteSpace=wrap;" vertex="1" parent="bJq6qHO7lRjsnfCfAAI0-188">
          <mxGeometry x="258.58490566037733" y="231.7946153846154" width="135.8490566037736" height="68.20512820512819" as="geometry" />
        </mxCell>
        <mxCell id="bJq6qHO7lRjsnfCfAAI0-198" value="" style="ellipse;html=1;shape=endState;fillColor=#000000;strokeColor=#ff0000;" vertex="1" parent="bJq6qHO7lRjsnfCfAAI0-188">
          <mxGeometry x="520.75" y="380" width="54.34" height="50" as="geometry" />
        </mxCell>
        <mxCell id="bJq6qHO7lRjsnfCfAAI0-199" style="edgeStyle=orthogonalEdgeStyle;rounded=0;orthogonalLoop=1;jettySize=auto;html=1;exitX=0.5;exitY=1;exitDx=0;exitDy=0;entryX=0.5;entryY=0;entryDx=0;entryDy=0;" edge="1" parent="bJq6qHO7lRjsnfCfAAI0-188" source="bJq6qHO7lRjsnfCfAAI0-200" target="bJq6qHO7lRjsnfCfAAI0-198">
          <mxGeometry relative="1" as="geometry" />
        </mxCell>
        <mxCell id="bJq6qHO7lRjsnfCfAAI0-200" value="&lt;font style=&quot;font-size: 16px&quot;&gt;Prenota tavolo&lt;br&gt;&lt;/font&gt;" style="rounded=1;whiteSpace=wrap;html=1;" vertex="1" parent="bJq6qHO7lRjsnfCfAAI0-188">
          <mxGeometry x="470" y="300" width="155.84" height="48.72" as="geometry" />
        </mxCell>
        <mxCell id="bJq6qHO7lRjsnfCfAAI0-201" style="edgeStyle=orthogonalEdgeStyle;rounded=0;orthogonalLoop=1;jettySize=auto;html=1;exitX=1;exitY=0.5;exitDx=0;exitDy=0;exitPerimeter=0;entryX=0.5;entryY=0;entryDx=0;entryDy=0;" edge="1" parent="bJq6qHO7lRjsnfCfAAI0-188" source="bJq6qHO7lRjsnfCfAAI0-197" target="bJq6qHO7lRjsnfCfAAI0-200">
          <mxGeometry relative="1" as="geometry">
            <mxPoint x="542.8301886792453" y="243.58974358974353" as="targetPoint" />
          </mxGeometry>
        </mxCell>
        <mxCell id="bJq6qHO7lRjsnfCfAAI0-202" value="&lt;font style=&quot;font-size: 12px&quot;&gt;[Cliente già registrato]&lt;/font&gt;" style="edgeLabel;html=1;align=center;verticalAlign=middle;resizable=0;points=[];" vertex="1" connectable="0" parent="bJq6qHO7lRjsnfCfAAI0-201">
          <mxGeometry x="0.037" y="2" relative="1" as="geometry">
            <mxPoint x="-11" y="2" as="offset" />
          </mxGeometry>
        </mxCell>
        <mxCell id="bJq6qHO7lRjsnfCfAAI0-205" style="edgeStyle=orthogonalEdgeStyle;rounded=0;orthogonalLoop=1;jettySize=auto;html=1;fontSize=16;" edge="1" parent="bJq6qHO7lRjsnfCfAAI0-188" source="bJq6qHO7lRjsnfCfAAI0-206" target="bJq6qHO7lRjsnfCfAAI0-197">
          <mxGeometry relative="1" as="geometry" />
        </mxCell>
        <mxCell id="bJq6qHO7lRjsnfCfAAI0-206" value="&lt;span style=&quot;font-size: 15px&quot;&gt;Seleziona tavolo&lt;br&gt;&lt;/span&gt;" style="rounded=1;whiteSpace=wrap;html=1;" vertex="1" parent="bJq6qHO7lRjsnfCfAAI0-188">
          <mxGeometry x="251.65" y="150" width="148.35" height="48.46" as="geometry" />
        </mxCell>
        <mxCell id="bJq6qHO7lRjsnfCfAAI0-207" value="" style="shape=sumEllipse;perimeter=ellipsePerimeter;whiteSpace=wrap;html=1;backgroundOutline=1;fontSize=16;" vertex="1" parent="bJq6qHO7lRjsnfCfAAI0-188">
          <mxGeometry x="120" y="330" width="40" height="40" as="geometry" />
        </mxCell>
        <mxCell id="bJq6qHO7lRjsnfCfAAI0-208" value="" style="group" vertex="1" connectable="0" parent="1">
          <mxGeometry x="-265.17999999999995" y="1630" width="740" height="480" as="geometry" />
        </mxCell>
        <mxCell id="bJq6qHO7lRjsnfCfAAI0-209" value="" style="rounded=0;whiteSpace=wrap;html=1;fillColor=#d5e8d4;strokeColor=#82b366;" vertex="1" parent="bJq6qHO7lRjsnfCfAAI0-208">
          <mxGeometry x="10" width="740" height="480" as="geometry" />
        </mxCell>
        <mxCell id="bJq6qHO7lRjsnfCfAAI0-210" value="Prenota ombrellone" style="rounded=1;whiteSpace=wrap;html=1;fontSize=16;fillColor=#fff2cc;strokeColor=#d6b656;" vertex="1" parent="bJq6qHO7lRjsnfCfAAI0-208">
          <mxGeometry x="10" width="210" height="50" as="geometry" />
        </mxCell>
        <mxCell id="bJq6qHO7lRjsnfCfAAI0-211" value="" style="ellipse;html=1;shape=startState;fillColor=#000000;strokeColor=#ff0000;" vertex="1" parent="bJq6qHO7lRjsnfCfAAI0-208">
          <mxGeometry x="299.34000000000003" y="10" width="54.34" height="48.97" as="geometry" />
        </mxCell>
        <mxCell id="bJq6qHO7lRjsnfCfAAI0-212" value="" style="edgeStyle=orthogonalEdgeStyle;html=1;verticalAlign=bottom;endArrow=open;endSize=8;strokeColor=#ff0000;entryX=0.5;entryY=0;entryDx=0;entryDy=0;" edge="1" parent="bJq6qHO7lRjsnfCfAAI0-208" source="bJq6qHO7lRjsnfCfAAI0-211" target="bJq6qHO7lRjsnfCfAAI0-214">
          <mxGeometry relative="1" as="geometry">
            <mxPoint x="291.5094339622642" y="87.69230769230762" as="targetPoint" />
          </mxGeometry>
        </mxCell>
        <mxCell id="bJq6qHO7lRjsnfCfAAI0-213" style="edgeStyle=orthogonalEdgeStyle;rounded=0;orthogonalLoop=1;jettySize=auto;html=1;fontSize=16;" edge="1" parent="bJq6qHO7lRjsnfCfAAI0-208" source="bJq6qHO7lRjsnfCfAAI0-214" target="bJq6qHO7lRjsnfCfAAI0-224">
          <mxGeometry relative="1" as="geometry" />
        </mxCell>
        <mxCell id="bJq6qHO7lRjsnfCfAAI0-214" value="&lt;span style=&quot;font-size: 15px&quot;&gt;Ricerca ombrellone&lt;/span&gt;&lt;br style=&quot;font-size: 15px&quot;&gt;&lt;span style=&quot;font-size: 15px&quot;&gt;disponibile&lt;/span&gt;&lt;span style=&quot;font-size: 15px&quot;&gt;&lt;br&gt;&lt;/span&gt;" style="rounded=1;whiteSpace=wrap;html=1;" vertex="1" parent="bJq6qHO7lRjsnfCfAAI0-208">
          <mxGeometry x="238.72" y="80" width="175.57" height="40" as="geometry" />
        </mxCell>
        <mxCell id="bJq6qHO7lRjsnfCfAAI0-215" style="edgeStyle=orthogonalEdgeStyle;rounded=0;orthogonalLoop=1;jettySize=auto;html=1;entryX=0.5;entryY=0;entryDx=0;entryDy=0;fontSize=16;" edge="1" parent="bJq6qHO7lRjsnfCfAAI0-208" source="bJq6qHO7lRjsnfCfAAI0-217" target="bJq6qHO7lRjsnfCfAAI0-225">
          <mxGeometry relative="1" as="geometry">
            <mxPoint x="140" y="320" as="targetPoint" />
          </mxGeometry>
        </mxCell>
        <mxCell id="bJq6qHO7lRjsnfCfAAI0-216" value="&lt;font style=&quot;font-size: 12px&quot;&gt;[Cliente non registrato&lt;/font&gt;]" style="edgeLabel;html=1;align=center;verticalAlign=middle;resizable=0;points=[];fontSize=16;" vertex="1" connectable="0" parent="bJq6qHO7lRjsnfCfAAI0-215">
          <mxGeometry x="-0.1296" relative="1" as="geometry">
            <mxPoint as="offset" />
          </mxGeometry>
        </mxCell>
        <mxCell id="bJq6qHO7lRjsnfCfAAI0-217" value="" style="strokeWidth=2;html=1;shape=mxgraph.flowchart.decision;whiteSpace=wrap;" vertex="1" parent="bJq6qHO7lRjsnfCfAAI0-208">
          <mxGeometry x="258.58490566037733" y="231.7946153846154" width="135.8490566037736" height="68.20512820512819" as="geometry" />
        </mxCell>
        <mxCell id="bJq6qHO7lRjsnfCfAAI0-218" value="" style="ellipse;html=1;shape=endState;fillColor=#000000;strokeColor=#ff0000;" vertex="1" parent="bJq6qHO7lRjsnfCfAAI0-208">
          <mxGeometry x="520.75" y="380" width="54.34" height="50" as="geometry" />
        </mxCell>
        <mxCell id="bJq6qHO7lRjsnfCfAAI0-219" style="edgeStyle=orthogonalEdgeStyle;rounded=0;orthogonalLoop=1;jettySize=auto;html=1;exitX=0.5;exitY=1;exitDx=0;exitDy=0;entryX=0.5;entryY=0;entryDx=0;entryDy=0;" edge="1" parent="bJq6qHO7lRjsnfCfAAI0-208" source="bJq6qHO7lRjsnfCfAAI0-220" target="bJq6qHO7lRjsnfCfAAI0-218">
          <mxGeometry relative="1" as="geometry" />
        </mxCell>
        <mxCell id="bJq6qHO7lRjsnfCfAAI0-220" value="&lt;font style=&quot;font-size: 16px&quot;&gt;Prenota ombrellone&lt;br&gt;&lt;/font&gt;" style="rounded=1;whiteSpace=wrap;html=1;" vertex="1" parent="bJq6qHO7lRjsnfCfAAI0-208">
          <mxGeometry x="470" y="300" width="155.84" height="48.72" as="geometry" />
        </mxCell>
        <mxCell id="bJq6qHO7lRjsnfCfAAI0-221" style="edgeStyle=orthogonalEdgeStyle;rounded=0;orthogonalLoop=1;jettySize=auto;html=1;exitX=1;exitY=0.5;exitDx=0;exitDy=0;exitPerimeter=0;entryX=0.5;entryY=0;entryDx=0;entryDy=0;" edge="1" parent="bJq6qHO7lRjsnfCfAAI0-208" source="bJq6qHO7lRjsnfCfAAI0-217" target="bJq6qHO7lRjsnfCfAAI0-220">
          <mxGeometry relative="1" as="geometry">
            <mxPoint x="542.8301886792453" y="243.58974358974353" as="targetPoint" />
          </mxGeometry>
        </mxCell>
        <mxCell id="bJq6qHO7lRjsnfCfAAI0-222" value="&lt;font style=&quot;font-size: 12px&quot;&gt;[Cliente già registrato]&lt;/font&gt;" style="edgeLabel;html=1;align=center;verticalAlign=middle;resizable=0;points=[];" vertex="1" connectable="0" parent="bJq6qHO7lRjsnfCfAAI0-221">
          <mxGeometry x="0.037" y="2" relative="1" as="geometry">
            <mxPoint x="-11" y="2" as="offset" />
          </mxGeometry>
        </mxCell>
        <mxCell id="bJq6qHO7lRjsnfCfAAI0-223" style="edgeStyle=orthogonalEdgeStyle;rounded=0;orthogonalLoop=1;jettySize=auto;html=1;fontSize=16;" edge="1" parent="bJq6qHO7lRjsnfCfAAI0-208" source="bJq6qHO7lRjsnfCfAAI0-224" target="bJq6qHO7lRjsnfCfAAI0-217">
          <mxGeometry relative="1" as="geometry" />
        </mxCell>
        <mxCell id="bJq6qHO7lRjsnfCfAAI0-224" value="&lt;span style=&quot;font-size: 15px&quot;&gt;Seleziona ombrellone&lt;br&gt;&lt;/span&gt;" style="rounded=1;whiteSpace=wrap;html=1;" vertex="1" parent="bJq6qHO7lRjsnfCfAAI0-208">
          <mxGeometry x="250" y="150" width="150" height="48.46" as="geometry" />
        </mxCell>
        <mxCell id="bJq6qHO7lRjsnfCfAAI0-225" value="" style="shape=sumEllipse;perimeter=ellipsePerimeter;whiteSpace=wrap;html=1;backgroundOutline=1;fontSize=16;" vertex="1" parent="bJq6qHO7lRjsnfCfAAI0-208">
          <mxGeometry x="120" y="330" width="40" height="40" as="geometry" />
        </mxCell>
        <mxCell id="bJq6qHO7lRjsnfCfAAI0-226" value="" style="group" vertex="1" connectable="0" parent="1">
          <mxGeometry x="-2500" y="860" width="830" height="530" as="geometry" />
        </mxCell>
        <mxCell id="bJq6qHO7lRjsnfCfAAI0-227" value="" style="rounded=0;whiteSpace=wrap;html=1;fillColor=#d5e8d4;strokeColor=#82b366;" vertex="1" parent="bJq6qHO7lRjsnfCfAAI0-226">
          <mxGeometry x="730" y="-320" width="660" height="390" as="geometry" />
        </mxCell>
        <mxCell id="bJq6qHO7lRjsnfCfAAI0-228" value="Rimozione prenotazione&lt;br&gt;camera" style="rounded=1;whiteSpace=wrap;html=1;fontSize=16;fillColor=#fff2cc;strokeColor=#d6b656;" vertex="1" parent="bJq6qHO7lRjsnfCfAAI0-226">
          <mxGeometry x="730" y="-320" width="210" height="50" as="geometry" />
        </mxCell>
        <mxCell id="bJq6qHO7lRjsnfCfAAI0-229" value="" style="ellipse;html=1;shape=startState;fillColor=#000000;strokeColor=#ff0000;" vertex="1" parent="bJq6qHO7lRjsnfCfAAI0-226">
          <mxGeometry x="989.34" y="-310" width="54.34" height="48.97" as="geometry" />
        </mxCell>
        <mxCell id="bJq6qHO7lRjsnfCfAAI0-230" value="" style="edgeStyle=orthogonalEdgeStyle;html=1;verticalAlign=bottom;endArrow=open;endSize=8;strokeColor=#ff0000;entryX=0.5;entryY=0;entryDx=0;entryDy=0;" edge="1" parent="bJq6qHO7lRjsnfCfAAI0-226" source="bJq6qHO7lRjsnfCfAAI0-229" target="bJq6qHO7lRjsnfCfAAI0-232">
          <mxGeometry relative="1" as="geometry">
            <mxPoint x="981.5094339622642" y="-232.30769230769238" as="targetPoint" />
          </mxGeometry>
        </mxCell>
        <mxCell id="bJq6qHO7lRjsnfCfAAI0-245" style="edgeStyle=orthogonalEdgeStyle;rounded=0;orthogonalLoop=1;jettySize=auto;html=1;exitX=0.5;exitY=1;exitDx=0;exitDy=0;entryX=0.5;entryY=0;entryDx=0;entryDy=0;entryPerimeter=0;fontSize=16;" edge="1" parent="bJq6qHO7lRjsnfCfAAI0-226" source="bJq6qHO7lRjsnfCfAAI0-232" target="bJq6qHO7lRjsnfCfAAI0-235">
          <mxGeometry relative="1" as="geometry" />
        </mxCell>
        <mxCell id="bJq6qHO7lRjsnfCfAAI0-232" value="&lt;span style=&quot;font-size: 15px&quot;&gt;Mostra prenotazione&lt;br&gt;&lt;/span&gt;" style="rounded=1;whiteSpace=wrap;html=1;" vertex="1" parent="bJq6qHO7lRjsnfCfAAI0-226">
          <mxGeometry x="928.72" y="-240" width="175.57" height="40" as="geometry" />
        </mxCell>
        <mxCell id="bJq6qHO7lRjsnfCfAAI0-235" value="" style="strokeWidth=2;html=1;shape=mxgraph.flowchart.decision;whiteSpace=wrap;" vertex="1" parent="bJq6qHO7lRjsnfCfAAI0-226">
          <mxGeometry x="948.5849056603773" y="-169.99538461538458" width="135.8490566037736" height="68.20512820512819" as="geometry" />
        </mxCell>
        <mxCell id="bJq6qHO7lRjsnfCfAAI0-236" value="" style="ellipse;html=1;shape=endState;fillColor=#000000;strokeColor=#ff0000;" vertex="1" parent="bJq6qHO7lRjsnfCfAAI0-226">
          <mxGeometry x="1170.75" y="-11" width="54.34" height="50" as="geometry" />
        </mxCell>
        <mxCell id="bJq6qHO7lRjsnfCfAAI0-237" style="edgeStyle=orthogonalEdgeStyle;rounded=0;orthogonalLoop=1;jettySize=auto;html=1;exitX=0.5;exitY=1;exitDx=0;exitDy=0;entryX=0.5;entryY=0;entryDx=0;entryDy=0;" edge="1" parent="bJq6qHO7lRjsnfCfAAI0-226" source="bJq6qHO7lRjsnfCfAAI0-238" target="bJq6qHO7lRjsnfCfAAI0-236">
          <mxGeometry relative="1" as="geometry" />
        </mxCell>
        <mxCell id="bJq6qHO7lRjsnfCfAAI0-238" value="&lt;font style=&quot;font-size: 16px&quot;&gt;Elimina&lt;br&gt;&amp;nbsp;prenotazione&lt;br&gt;&lt;/font&gt;" style="rounded=1;whiteSpace=wrap;html=1;" vertex="1" parent="bJq6qHO7lRjsnfCfAAI0-226">
          <mxGeometry x="1120" y="-104.36000000000001" width="155.84" height="48.72" as="geometry" />
        </mxCell>
        <mxCell id="bJq6qHO7lRjsnfCfAAI0-239" style="edgeStyle=orthogonalEdgeStyle;rounded=0;orthogonalLoop=1;jettySize=auto;html=1;exitX=1;exitY=0.5;exitDx=0;exitDy=0;exitPerimeter=0;entryX=0.5;entryY=0;entryDx=0;entryDy=0;" edge="1" parent="bJq6qHO7lRjsnfCfAAI0-226" source="bJq6qHO7lRjsnfCfAAI0-235" target="bJq6qHO7lRjsnfCfAAI0-238">
          <mxGeometry relative="1" as="geometry">
            <mxPoint x="1232.8301886792453" y="-76.41025641025647" as="targetPoint" />
          </mxGeometry>
        </mxCell>
        <mxCell id="bJq6qHO7lRjsnfCfAAI0-240" value="&lt;span style=&quot;font-size: 12px&quot;&gt;[Esistente]&lt;/span&gt;" style="edgeLabel;html=1;align=center;verticalAlign=middle;resizable=0;points=[];" vertex="1" connectable="0" parent="bJq6qHO7lRjsnfCfAAI0-239">
          <mxGeometry x="0.037" y="2" relative="1" as="geometry">
            <mxPoint x="-11" y="2" as="offset" />
          </mxGeometry>
        </mxCell>
        <mxCell id="bJq6qHO7lRjsnfCfAAI0-278" value="" style="rounded=0;whiteSpace=wrap;html=1;fillColor=#d5e8d4;strokeColor=#82b366;" vertex="1" parent="bJq6qHO7lRjsnfCfAAI0-226">
          <mxGeometry x="420" y="140" width="410" height="390" as="geometry" />
        </mxCell>
        <mxCell id="bJq6qHO7lRjsnfCfAAI0-279" value="Ricerca ombrellone disponibile" style="rounded=1;whiteSpace=wrap;html=1;fontSize=16;fillColor=#fff2cc;strokeColor=#d6b656;" vertex="1" parent="bJq6qHO7lRjsnfCfAAI0-226">
          <mxGeometry x="420" y="140" width="210" height="50" as="geometry" />
        </mxCell>
        <mxCell id="bJq6qHO7lRjsnfCfAAI0-280" value="" style="ellipse;html=1;shape=startState;fillColor=#000000;strokeColor=#ff0000;" vertex="1" parent="bJq6qHO7lRjsnfCfAAI0-226">
          <mxGeometry x="670.7600000000002" y="160" width="54.34" height="48.97" as="geometry" />
        </mxCell>
        <mxCell id="bJq6qHO7lRjsnfCfAAI0-281" value="" style="edgeStyle=orthogonalEdgeStyle;html=1;verticalAlign=bottom;endArrow=open;endSize=8;strokeColor=#ff0000;entryX=0.5;entryY=0;entryDx=0;entryDy=0;" edge="1" parent="bJq6qHO7lRjsnfCfAAI0-226" source="bJq6qHO7lRjsnfCfAAI0-280" target="bJq6qHO7lRjsnfCfAAI0-283">
          <mxGeometry relative="1" as="geometry">
            <mxPoint x="3171.509433962264" y="-632.3076923076924" as="targetPoint" />
          </mxGeometry>
        </mxCell>
        <mxCell id="bJq6qHO7lRjsnfCfAAI0-283" value="&lt;span style=&quot;font-size: 15px&quot;&gt;Inserire parametri di&amp;nbsp;&lt;br&gt;ricerca&lt;br&gt;&lt;/span&gt;" style="rounded=1;whiteSpace=wrap;html=1;" vertex="1" parent="bJq6qHO7lRjsnfCfAAI0-226">
          <mxGeometry x="610.1399999999999" y="240" width="175.57" height="40" as="geometry" />
        </mxCell>
        <mxCell id="bJq6qHO7lRjsnfCfAAI0-285" value="" style="ellipse;html=1;shape=endState;fillColor=#000000;strokeColor=#ff0000;" vertex="1" parent="bJq6qHO7lRjsnfCfAAI0-226">
          <mxGeometry x="670.75" y="410" width="54.34" height="50" as="geometry" />
        </mxCell>
        <mxCell id="bJq6qHO7lRjsnfCfAAI0-286" style="edgeStyle=orthogonalEdgeStyle;rounded=0;orthogonalLoop=1;jettySize=auto;html=1;exitX=0.5;exitY=1;exitDx=0;exitDy=0;entryX=0.5;entryY=0;entryDx=0;entryDy=0;" edge="1" parent="bJq6qHO7lRjsnfCfAAI0-226" source="bJq6qHO7lRjsnfCfAAI0-287" target="bJq6qHO7lRjsnfCfAAI0-285">
          <mxGeometry relative="1" as="geometry" />
        </mxCell>
        <mxCell id="bJq6qHO7lRjsnfCfAAI0-287" value="&lt;font style=&quot;font-size: 16px&quot;&gt;Mostra ombrellone disponibile&lt;br&gt;&lt;/font&gt;" style="rounded=1;whiteSpace=wrap;html=1;" vertex="1" parent="bJq6qHO7lRjsnfCfAAI0-226">
          <mxGeometry x="620" y="330" width="155.84" height="48.72" as="geometry" />
        </mxCell>
        <mxCell id="bJq6qHO7lRjsnfCfAAI0-282" style="edgeStyle=orthogonalEdgeStyle;rounded=0;orthogonalLoop=1;jettySize=auto;html=1;exitX=0.5;exitY=1;exitDx=0;exitDy=0;entryX=0.5;entryY=0;entryDx=0;entryDy=0;fontSize=16;" edge="1" parent="bJq6qHO7lRjsnfCfAAI0-226" source="bJq6qHO7lRjsnfCfAAI0-283" target="bJq6qHO7lRjsnfCfAAI0-287">
          <mxGeometry relative="1" as="geometry">
            <mxPoint x="697.9294339622647" y="320.0046153846147" as="targetPoint" />
          </mxGeometry>
        </mxCell>
        <mxCell id="bJq6qHO7lRjsnfCfAAI0-347" value="" style="rounded=0;whiteSpace=wrap;html=1;fillColor=#d5e8d4;strokeColor=#82b366;" vertex="1" parent="bJq6qHO7lRjsnfCfAAI0-226">
          <mxGeometry x="-580" y="-310" width="450" height="390" as="geometry" />
        </mxCell>
        <mxCell id="bJq6qHO7lRjsnfCfAAI0-348" value="Aggiungi voce&lt;br&gt;listino bar" style="rounded=1;whiteSpace=wrap;html=1;fontSize=16;fillColor=#fff2cc;strokeColor=#d6b656;" vertex="1" parent="bJq6qHO7lRjsnfCfAAI0-226">
          <mxGeometry x="-580" y="-310" width="210" height="50" as="geometry" />
        </mxCell>
        <mxCell id="bJq6qHO7lRjsnfCfAAI0-349" value="" style="ellipse;html=1;shape=startState;fillColor=#000000;strokeColor=#ff0000;" vertex="1" parent="bJq6qHO7lRjsnfCfAAI0-226">
          <mxGeometry x="-324.8199999999997" y="-300" width="54.34" height="48.97" as="geometry" />
        </mxCell>
        <mxCell id="bJq6qHO7lRjsnfCfAAI0-350" value="" style="edgeStyle=orthogonalEdgeStyle;html=1;verticalAlign=bottom;endArrow=open;endSize=8;strokeColor=#ff0000;entryX=0.5;entryY=0;entryDx=0;entryDy=0;" edge="1" parent="bJq6qHO7lRjsnfCfAAI0-226" source="bJq6qHO7lRjsnfCfAAI0-349" target="bJq6qHO7lRjsnfCfAAI0-352">
          <mxGeometry relative="1" as="geometry">
            <mxPoint x="2167.3494339622644" y="-1082.3076923076924" as="targetPoint" />
          </mxGeometry>
        </mxCell>
        <mxCell id="bJq6qHO7lRjsnfCfAAI0-352" value="&lt;span style=&quot;font-size: 15px&quot;&gt;Mostra listino&lt;br&gt;&lt;/span&gt;" style="rounded=1;whiteSpace=wrap;html=1;" vertex="1" parent="bJq6qHO7lRjsnfCfAAI0-226">
          <mxGeometry x="-385.44000000000005" y="-230" width="175.57" height="40" as="geometry" />
        </mxCell>
        <mxCell id="bJq6qHO7lRjsnfCfAAI0-353" value="" style="ellipse;html=1;shape=endState;fillColor=#000000;strokeColor=#ff0000;" vertex="1" parent="bJq6qHO7lRjsnfCfAAI0-226">
          <mxGeometry x="-324.8199999999997" y="-1" width="54.34" height="50" as="geometry" />
        </mxCell>
        <mxCell id="bJq6qHO7lRjsnfCfAAI0-355" value="&lt;font style=&quot;font-size: 16px&quot;&gt;Inserisci informazioni&lt;br&gt;nuova consumazione&lt;br&gt;&lt;/font&gt;" style="rounded=1;whiteSpace=wrap;html=1;" vertex="1" parent="bJq6qHO7lRjsnfCfAAI0-226">
          <mxGeometry x="-380.5" y="-159.9999999999999" width="165.71" height="59.36" as="geometry" />
        </mxCell>
        <mxCell id="bJq6qHO7lRjsnfCfAAI0-351" style="edgeStyle=orthogonalEdgeStyle;rounded=0;orthogonalLoop=1;jettySize=auto;html=1;exitX=0.5;exitY=1;exitDx=0;exitDy=0;entryX=0.5;entryY=0;entryDx=0;entryDy=0;fontSize=16;" edge="1" parent="bJq6qHO7lRjsnfCfAAI0-226" source="bJq6qHO7lRjsnfCfAAI0-352" target="bJq6qHO7lRjsnfCfAAI0-355">
          <mxGeometry relative="1" as="geometry">
            <mxPoint x="-297.65056603773564" y="-159.99538461538464" as="targetPoint" />
          </mxGeometry>
        </mxCell>
        <mxCell id="bJq6qHO7lRjsnfCfAAI0-356" style="edgeStyle=orthogonalEdgeStyle;rounded=0;orthogonalLoop=1;jettySize=auto;html=1;exitX=0.5;exitY=1;exitDx=0;exitDy=0;entryX=0.5;entryY=0;entryDx=0;entryDy=0;fontSize=16;" edge="1" parent="bJq6qHO7lRjsnfCfAAI0-226" source="bJq6qHO7lRjsnfCfAAI0-357" target="bJq6qHO7lRjsnfCfAAI0-353">
          <mxGeometry relative="1" as="geometry" />
        </mxCell>
        <mxCell id="bJq6qHO7lRjsnfCfAAI0-357" value="&lt;font style=&quot;font-size: 16px&quot;&gt;Aggiungi nuova consumaione&lt;br&gt;&lt;/font&gt;" style="rounded=1;whiteSpace=wrap;html=1;" vertex="1" parent="bJq6qHO7lRjsnfCfAAI0-226">
          <mxGeometry x="-380.50000000000045" y="-70.00000000000023" width="165.71" height="48.72" as="geometry" />
        </mxCell>
        <mxCell id="bJq6qHO7lRjsnfCfAAI0-354" style="edgeStyle=orthogonalEdgeStyle;rounded=0;orthogonalLoop=1;jettySize=auto;html=1;exitX=0.5;exitY=1;exitDx=0;exitDy=0;entryX=0.5;entryY=0;entryDx=0;entryDy=0;fontSize=16;" edge="1" parent="bJq6qHO7lRjsnfCfAAI0-226" source="bJq6qHO7lRjsnfCfAAI0-355" target="bJq6qHO7lRjsnfCfAAI0-357">
          <mxGeometry relative="1" as="geometry" />
        </mxCell>
        <mxCell id="bJq6qHO7lRjsnfCfAAI0-391" value="" style="rounded=0;whiteSpace=wrap;html=1;fillColor=#d5e8d4;strokeColor=#82b366;" vertex="1" parent="bJq6qHO7lRjsnfCfAAI0-226">
          <mxGeometry x="-70" y="-310" width="450" height="390" as="geometry" />
        </mxCell>
        <mxCell id="bJq6qHO7lRjsnfCfAAI0-392" value="Rimuovi voce listino&lt;br&gt;bar" style="rounded=1;whiteSpace=wrap;html=1;fontSize=16;fillColor=#fff2cc;strokeColor=#d6b656;" vertex="1" parent="bJq6qHO7lRjsnfCfAAI0-226">
          <mxGeometry x="-70" y="-310" width="210" height="50" as="geometry" />
        </mxCell>
        <mxCell id="bJq6qHO7lRjsnfCfAAI0-393" value="" style="ellipse;html=1;shape=startState;fillColor=#000000;strokeColor=#ff0000;" vertex="1" parent="bJq6qHO7lRjsnfCfAAI0-226">
          <mxGeometry x="185.1800000000003" y="-300" width="54.34" height="48.97" as="geometry" />
        </mxCell>
        <mxCell id="bJq6qHO7lRjsnfCfAAI0-394" value="" style="edgeStyle=orthogonalEdgeStyle;html=1;verticalAlign=bottom;endArrow=open;endSize=8;strokeColor=#ff0000;entryX=0.5;entryY=0;entryDx=0;entryDy=0;" edge="1" parent="bJq6qHO7lRjsnfCfAAI0-226" source="bJq6qHO7lRjsnfCfAAI0-393" target="bJq6qHO7lRjsnfCfAAI0-396">
          <mxGeometry relative="1" as="geometry">
            <mxPoint x="2677.3494339622644" y="-1082.3076923076924" as="targetPoint" />
          </mxGeometry>
        </mxCell>
        <mxCell id="bJq6qHO7lRjsnfCfAAI0-396" value="&lt;span style=&quot;font-size: 15px&quot;&gt;Mostra listino&lt;br&gt;&lt;/span&gt;" style="rounded=1;whiteSpace=wrap;html=1;" vertex="1" parent="bJq6qHO7lRjsnfCfAAI0-226">
          <mxGeometry x="124.55999999999995" y="-230" width="175.57" height="40" as="geometry" />
        </mxCell>
        <mxCell id="bJq6qHO7lRjsnfCfAAI0-397" value="" style="ellipse;html=1;shape=endState;fillColor=#000000;strokeColor=#ff0000;" vertex="1" parent="bJq6qHO7lRjsnfCfAAI0-226">
          <mxGeometry x="185.1800000000003" y="-1" width="54.34" height="50" as="geometry" />
        </mxCell>
        <mxCell id="bJq6qHO7lRjsnfCfAAI0-399" value="&lt;font style=&quot;font-size: 16px&quot;&gt;Seleziona consumazione&lt;br&gt;&lt;/font&gt;" style="rounded=1;whiteSpace=wrap;html=1;" vertex="1" parent="bJq6qHO7lRjsnfCfAAI0-226">
          <mxGeometry x="129.5" y="-159.9999999999999" width="165.71" height="59.36" as="geometry" />
        </mxCell>
        <mxCell id="bJq6qHO7lRjsnfCfAAI0-395" style="edgeStyle=orthogonalEdgeStyle;rounded=0;orthogonalLoop=1;jettySize=auto;html=1;exitX=0.5;exitY=1;exitDx=0;exitDy=0;entryX=0.5;entryY=0;entryDx=0;entryDy=0;fontSize=16;" edge="1" parent="bJq6qHO7lRjsnfCfAAI0-226" source="bJq6qHO7lRjsnfCfAAI0-396" target="bJq6qHO7lRjsnfCfAAI0-399">
          <mxGeometry relative="1" as="geometry">
            <mxPoint x="212.34943396226436" y="-159.99538461538464" as="targetPoint" />
          </mxGeometry>
        </mxCell>
        <mxCell id="bJq6qHO7lRjsnfCfAAI0-400" style="edgeStyle=orthogonalEdgeStyle;rounded=0;orthogonalLoop=1;jettySize=auto;html=1;exitX=0.5;exitY=1;exitDx=0;exitDy=0;entryX=0.5;entryY=0;entryDx=0;entryDy=0;fontSize=16;" edge="1" parent="bJq6qHO7lRjsnfCfAAI0-226" source="bJq6qHO7lRjsnfCfAAI0-401" target="bJq6qHO7lRjsnfCfAAI0-397">
          <mxGeometry relative="1" as="geometry" />
        </mxCell>
        <mxCell id="bJq6qHO7lRjsnfCfAAI0-401" value="&lt;font style=&quot;font-size: 16px&quot;&gt;Rimuovi consumazione&lt;br&gt;&lt;/font&gt;" style="rounded=1;whiteSpace=wrap;html=1;" vertex="1" parent="bJq6qHO7lRjsnfCfAAI0-226">
          <mxGeometry x="129.49999999999955" y="-70.00000000000023" width="165.71" height="48.72" as="geometry" />
        </mxCell>
        <mxCell id="bJq6qHO7lRjsnfCfAAI0-398" style="edgeStyle=orthogonalEdgeStyle;rounded=0;orthogonalLoop=1;jettySize=auto;html=1;exitX=0.5;exitY=1;exitDx=0;exitDy=0;entryX=0.5;entryY=0;entryDx=0;entryDy=0;fontSize=16;" edge="1" parent="bJq6qHO7lRjsnfCfAAI0-226" source="bJq6qHO7lRjsnfCfAAI0-399" target="bJq6qHO7lRjsnfCfAAI0-401">
          <mxGeometry relative="1" as="geometry" />
        </mxCell>
        <mxCell id="bJq6qHO7lRjsnfCfAAI0-246" value="" style="shape=sumEllipse;perimeter=ellipsePerimeter;whiteSpace=wrap;html=1;backgroundOutline=1;fontSize=16;" vertex="1" parent="1">
          <mxGeometry x="-1690" y="780" width="40" height="40" as="geometry" />
        </mxCell>
        <mxCell id="bJq6qHO7lRjsnfCfAAI0-233" style="edgeStyle=orthogonalEdgeStyle;rounded=0;orthogonalLoop=1;jettySize=auto;html=1;fontSize=16;entryX=0.5;entryY=0;entryDx=0;entryDy=0;" edge="1" parent="1" source="bJq6qHO7lRjsnfCfAAI0-235" target="bJq6qHO7lRjsnfCfAAI0-246">
          <mxGeometry relative="1" as="geometry">
            <mxPoint x="-1680" y="840" as="targetPoint" />
          </mxGeometry>
        </mxCell>
        <mxCell id="bJq6qHO7lRjsnfCfAAI0-234" value="&lt;span style=&quot;font-size: 12px&quot;&gt;[Non esistente]]&lt;/span&gt;" style="edgeLabel;html=1;align=center;verticalAlign=middle;resizable=0;points=[];fontSize=16;" vertex="1" connectable="0" parent="bJq6qHO7lRjsnfCfAAI0-233">
          <mxGeometry x="-0.1296" relative="1" as="geometry">
            <mxPoint as="offset" />
          </mxGeometry>
        </mxCell>
        <mxCell id="bJq6qHO7lRjsnfCfAAI0-247" value="" style="rounded=0;whiteSpace=wrap;html=1;fillColor=#d5e8d4;strokeColor=#82b366;" vertex="1" parent="1">
          <mxGeometry x="-1571.42" y="999" width="410" height="390" as="geometry" />
        </mxCell>
        <mxCell id="bJq6qHO7lRjsnfCfAAI0-248" value="Ricerca camera" style="rounded=1;whiteSpace=wrap;html=1;fontSize=16;fillColor=#fff2cc;strokeColor=#d6b656;" vertex="1" parent="1">
          <mxGeometry x="-1571.42" y="999" width="210" height="50" as="geometry" />
        </mxCell>
        <mxCell id="bJq6qHO7lRjsnfCfAAI0-249" value="" style="ellipse;html=1;shape=startState;fillColor=#000000;strokeColor=#ff0000;" vertex="1" parent="1">
          <mxGeometry x="-1320.6599999999999" y="1019" width="54.34" height="48.97" as="geometry" />
        </mxCell>
        <mxCell id="bJq6qHO7lRjsnfCfAAI0-250" value="" style="edgeStyle=orthogonalEdgeStyle;html=1;verticalAlign=bottom;endArrow=open;endSize=8;strokeColor=#ff0000;entryX=0.5;entryY=0;entryDx=0;entryDy=0;" edge="1" parent="1" source="bJq6qHO7lRjsnfCfAAI0-249" target="bJq6qHO7lRjsnfCfAAI0-252">
          <mxGeometry relative="1" as="geometry">
            <mxPoint x="1180.0894339622641" y="226.69230769230762" as="targetPoint" />
          </mxGeometry>
        </mxCell>
        <mxCell id="bJq6qHO7lRjsnfCfAAI0-251" style="edgeStyle=orthogonalEdgeStyle;rounded=0;orthogonalLoop=1;jettySize=auto;html=1;exitX=0.5;exitY=1;exitDx=0;exitDy=0;entryX=0.5;entryY=0;entryDx=0;entryDy=0;fontSize=16;" edge="1" parent="1" source="bJq6qHO7lRjsnfCfAAI0-252" target="bJq6qHO7lRjsnfCfAAI0-256">
          <mxGeometry relative="1" as="geometry">
            <mxPoint x="-1293.4905660377353" y="1179.0046153846151" as="targetPoint" />
          </mxGeometry>
        </mxCell>
        <mxCell id="bJq6qHO7lRjsnfCfAAI0-252" value="&lt;span style=&quot;font-size: 15px&quot;&gt;Inserire filtraggio&lt;br&gt;camera&lt;br&gt;&lt;/span&gt;" style="rounded=1;whiteSpace=wrap;html=1;" vertex="1" parent="1">
          <mxGeometry x="-1381.2800000000002" y="1099" width="175.57" height="40" as="geometry" />
        </mxCell>
        <mxCell id="bJq6qHO7lRjsnfCfAAI0-254" value="" style="ellipse;html=1;shape=endState;fillColor=#000000;strokeColor=#ff0000;" vertex="1" parent="1">
          <mxGeometry x="-1320.6599999999999" y="1279" width="54.34" height="50" as="geometry" />
        </mxCell>
        <mxCell id="bJq6qHO7lRjsnfCfAAI0-255" style="edgeStyle=orthogonalEdgeStyle;rounded=0;orthogonalLoop=1;jettySize=auto;html=1;exitX=0.5;exitY=1;exitDx=0;exitDy=0;entryX=0.5;entryY=0;entryDx=0;entryDy=0;" edge="1" parent="1" source="bJq6qHO7lRjsnfCfAAI0-256" target="bJq6qHO7lRjsnfCfAAI0-254">
          <mxGeometry relative="1" as="geometry" />
        </mxCell>
        <mxCell id="bJq6qHO7lRjsnfCfAAI0-256" value="&lt;font style=&quot;font-size: 16px&quot;&gt;Mostra camera&lt;br&gt;&lt;/font&gt;" style="rounded=1;whiteSpace=wrap;html=1;" vertex="1" parent="1">
          <mxGeometry x="-1371.4099999999999" y="1189" width="155.84" height="48.72" as="geometry" />
        </mxCell>
        <mxCell id="bJq6qHO7lRjsnfCfAAI0-262" value="" style="rounded=0;whiteSpace=wrap;html=1;fillColor=#d5e8d4;strokeColor=#82b366;" vertex="1" parent="1">
          <mxGeometry x="-1625.71" y="1505" width="420" height="390" as="geometry" />
        </mxCell>
        <mxCell id="bJq6qHO7lRjsnfCfAAI0-263" value="Ricerca tavolo disponibile" style="rounded=1;whiteSpace=wrap;html=1;fontSize=16;fillColor=#fff2cc;strokeColor=#d6b656;" vertex="1" parent="1">
          <mxGeometry x="-1625.71" y="1505" width="210" height="50" as="geometry" />
        </mxCell>
        <mxCell id="bJq6qHO7lRjsnfCfAAI0-264" value="" style="ellipse;html=1;shape=startState;fillColor=#000000;strokeColor=#ff0000;" vertex="1" parent="1">
          <mxGeometry x="-1374.9499999999998" y="1525" width="54.34" height="48.97" as="geometry" />
        </mxCell>
        <mxCell id="bJq6qHO7lRjsnfCfAAI0-265" value="" style="edgeStyle=orthogonalEdgeStyle;html=1;verticalAlign=bottom;endArrow=open;endSize=8;strokeColor=#ff0000;entryX=0.5;entryY=0;entryDx=0;entryDy=0;" edge="1" parent="1" source="bJq6qHO7lRjsnfCfAAI0-264" target="bJq6qHO7lRjsnfCfAAI0-267">
          <mxGeometry relative="1" as="geometry">
            <mxPoint x="1125.7994339622642" y="732.6923076923076" as="targetPoint" />
          </mxGeometry>
        </mxCell>
        <mxCell id="bJq6qHO7lRjsnfCfAAI0-266" style="edgeStyle=orthogonalEdgeStyle;rounded=0;orthogonalLoop=1;jettySize=auto;html=1;exitX=0.5;exitY=1;exitDx=0;exitDy=0;fontSize=16;" edge="1" parent="1" source="bJq6qHO7lRjsnfCfAAI0-267" target="bJq6qHO7lRjsnfCfAAI0-271">
          <mxGeometry relative="1" as="geometry">
            <mxPoint x="-1347.71" y="1685" as="targetPoint" />
          </mxGeometry>
        </mxCell>
        <mxCell id="bJq6qHO7lRjsnfCfAAI0-267" value="&lt;span style=&quot;font-size: 15px&quot;&gt;Inserire parametri di&amp;nbsp;&lt;br&gt;ricerca&lt;br&gt;&lt;/span&gt;" style="rounded=1;whiteSpace=wrap;html=1;" vertex="1" parent="1">
          <mxGeometry x="-1435.5700000000002" y="1605" width="175.57" height="40" as="geometry" />
        </mxCell>
        <mxCell id="bJq6qHO7lRjsnfCfAAI0-269" value="" style="ellipse;html=1;shape=endState;fillColor=#000000;strokeColor=#ff0000;" vertex="1" parent="1">
          <mxGeometry x="-1374.9499999999998" y="1775" width="54.34" height="50" as="geometry" />
        </mxCell>
        <mxCell id="bJq6qHO7lRjsnfCfAAI0-270" style="edgeStyle=orthogonalEdgeStyle;rounded=0;orthogonalLoop=1;jettySize=auto;html=1;exitX=0.5;exitY=1;exitDx=0;exitDy=0;entryX=0.5;entryY=0;entryDx=0;entryDy=0;" edge="1" parent="1" source="bJq6qHO7lRjsnfCfAAI0-271" target="bJq6qHO7lRjsnfCfAAI0-269">
          <mxGeometry relative="1" as="geometry" />
        </mxCell>
        <mxCell id="bJq6qHO7lRjsnfCfAAI0-271" value="&lt;font style=&quot;font-size: 16px&quot;&gt;Mostra tavolo disponibile&lt;br&gt;&lt;/font&gt;" style="rounded=1;whiteSpace=wrap;html=1;" vertex="1" parent="1">
          <mxGeometry x="-1425.6999999999998" y="1685.6399999999999" width="155.84" height="48.72" as="geometry" />
        </mxCell>
        <mxCell id="bJq6qHO7lRjsnfCfAAI0-293" value="" style="rounded=0;whiteSpace=wrap;html=1;fillColor=#d5e8d4;strokeColor=#82b366;" vertex="1" parent="1">
          <mxGeometry x="-2380" y="1515" width="660" height="390" as="geometry" />
        </mxCell>
        <mxCell id="bJq6qHO7lRjsnfCfAAI0-294" value="Ricerca camera disponibile" style="rounded=1;whiteSpace=wrap;html=1;fontSize=16;fillColor=#fff2cc;strokeColor=#d6b656;" vertex="1" parent="1">
          <mxGeometry x="-2380" y="1515" width="210" height="50" as="geometry" />
        </mxCell>
        <mxCell id="bJq6qHO7lRjsnfCfAAI0-295" value="" style="ellipse;html=1;shape=startState;fillColor=#000000;strokeColor=#ff0000;" vertex="1" parent="1">
          <mxGeometry x="-2129.24" y="1535" width="54.34" height="48.97" as="geometry" />
        </mxCell>
        <mxCell id="bJq6qHO7lRjsnfCfAAI0-296" value="" style="edgeStyle=orthogonalEdgeStyle;html=1;verticalAlign=bottom;endArrow=open;endSize=8;strokeColor=#ff0000;entryX=0.5;entryY=0;entryDx=0;entryDy=0;" edge="1" parent="1" source="bJq6qHO7lRjsnfCfAAI0-295" target="bJq6qHO7lRjsnfCfAAI0-298">
          <mxGeometry relative="1" as="geometry">
            <mxPoint x="371.5094339622642" y="742.6923076923076" as="targetPoint" />
          </mxGeometry>
        </mxCell>
        <mxCell id="bJq6qHO7lRjsnfCfAAI0-297" style="edgeStyle=orthogonalEdgeStyle;rounded=0;orthogonalLoop=1;jettySize=auto;html=1;exitX=0.5;exitY=1;exitDx=0;exitDy=0;entryX=0.5;entryY=0;entryDx=0;entryDy=0;entryPerimeter=0;fontSize=16;" edge="1" parent="1" source="bJq6qHO7lRjsnfCfAAI0-298" target="bJq6qHO7lRjsnfCfAAI0-299">
          <mxGeometry relative="1" as="geometry" />
        </mxCell>
        <mxCell id="bJq6qHO7lRjsnfCfAAI0-298" value="&lt;span style=&quot;font-size: 15px&quot;&gt;Inserire filtraggio&lt;br&gt;camera&lt;br&gt;&lt;/span&gt;" style="rounded=1;whiteSpace=wrap;html=1;" vertex="1" parent="1">
          <mxGeometry x="-2189.86" y="1615" width="175.57" height="40" as="geometry" />
        </mxCell>
        <mxCell id="bJq6qHO7lRjsnfCfAAI0-556" style="edgeStyle=orthogonalEdgeStyle;rounded=0;orthogonalLoop=1;jettySize=auto;html=1;exitX=0.5;exitY=1;exitDx=0;exitDy=0;exitPerimeter=0;entryX=0;entryY=0.5;entryDx=0;entryDy=0;fontSize=16;" edge="1" parent="1" source="bJq6qHO7lRjsnfCfAAI0-299" target="bJq6qHO7lRjsnfCfAAI0-298">
          <mxGeometry relative="1" as="geometry" />
        </mxCell>
        <mxCell id="bJq6qHO7lRjsnfCfAAI0-557" value="&lt;font style=&quot;font-size: 12px&quot;&gt;[Non disponibile]&lt;/font&gt;" style="edgeLabel;html=1;align=center;verticalAlign=middle;resizable=0;points=[];fontSize=16;" vertex="1" connectable="0" parent="bJq6qHO7lRjsnfCfAAI0-556">
          <mxGeometry x="-0.3243" y="-4" relative="1" as="geometry">
            <mxPoint as="offset" />
          </mxGeometry>
        </mxCell>
        <mxCell id="bJq6qHO7lRjsnfCfAAI0-299" value="" style="strokeWidth=2;html=1;shape=mxgraph.flowchart.decision;whiteSpace=wrap;" vertex="1" parent="1">
          <mxGeometry x="-2169.9950943396225" y="1695.0046153846154" width="135.8490566037736" height="68.20512820512819" as="geometry" />
        </mxCell>
        <mxCell id="bJq6qHO7lRjsnfCfAAI0-300" value="" style="ellipse;html=1;shape=endState;fillColor=#000000;strokeColor=#ff0000;" vertex="1" parent="1">
          <mxGeometry x="-1899.25" y="1835" width="54.34" height="50" as="geometry" />
        </mxCell>
        <mxCell id="bJq6qHO7lRjsnfCfAAI0-301" style="edgeStyle=orthogonalEdgeStyle;rounded=0;orthogonalLoop=1;jettySize=auto;html=1;exitX=0.5;exitY=1;exitDx=0;exitDy=0;entryX=0.5;entryY=0;entryDx=0;entryDy=0;" edge="1" parent="1" source="bJq6qHO7lRjsnfCfAAI0-302" target="bJq6qHO7lRjsnfCfAAI0-300">
          <mxGeometry relative="1" as="geometry" />
        </mxCell>
        <mxCell id="bJq6qHO7lRjsnfCfAAI0-302" value="&lt;font style=&quot;font-size: 16px&quot;&gt;Mostra camera&lt;br&gt;&lt;/font&gt;" style="rounded=1;whiteSpace=wrap;html=1;" vertex="1" parent="1">
          <mxGeometry x="-1950" y="1756.28" width="155.84" height="48.72" as="geometry" />
        </mxCell>
        <mxCell id="bJq6qHO7lRjsnfCfAAI0-303" style="edgeStyle=orthogonalEdgeStyle;rounded=0;orthogonalLoop=1;jettySize=auto;html=1;exitX=1;exitY=0.5;exitDx=0;exitDy=0;exitPerimeter=0;entryX=0.5;entryY=0;entryDx=0;entryDy=0;" edge="1" parent="1" source="bJq6qHO7lRjsnfCfAAI0-299" target="bJq6qHO7lRjsnfCfAAI0-302">
          <mxGeometry relative="1" as="geometry">
            <mxPoint x="622.8301886792453" y="898.5897435897435" as="targetPoint" />
          </mxGeometry>
        </mxCell>
        <mxCell id="bJq6qHO7lRjsnfCfAAI0-304" value="&lt;span style=&quot;font-size: 12px&quot;&gt;[Disponibile]&lt;/span&gt;" style="edgeLabel;html=1;align=center;verticalAlign=middle;resizable=0;points=[];" vertex="1" connectable="0" parent="bJq6qHO7lRjsnfCfAAI0-303">
          <mxGeometry x="0.037" y="2" relative="1" as="geometry">
            <mxPoint x="-11" y="2" as="offset" />
          </mxGeometry>
        </mxCell>
        <mxCell id="bJq6qHO7lRjsnfCfAAI0-310" value="" style="group" vertex="1" connectable="0" parent="1">
          <mxGeometry x="-385.17999999999995" width="750" height="480" as="geometry" />
        </mxCell>
        <mxCell id="bJq6qHO7lRjsnfCfAAI0-311" value="" style="rounded=0;whiteSpace=wrap;html=1;fillColor=#d5e8d4;strokeColor=#82b366;" vertex="1" parent="bJq6qHO7lRjsnfCfAAI0-310">
          <mxGeometry x="10" width="670" height="430" as="geometry" />
        </mxCell>
        <mxCell id="bJq6qHO7lRjsnfCfAAI0-312" value="Ricerca&lt;br&gt;cliente/dipendente/fornitore" style="rounded=1;whiteSpace=wrap;html=1;fontSize=16;fillColor=#fff2cc;strokeColor=#d6b656;" vertex="1" parent="bJq6qHO7lRjsnfCfAAI0-310">
          <mxGeometry x="10" width="210" height="50" as="geometry" />
        </mxCell>
        <mxCell id="bJq6qHO7lRjsnfCfAAI0-313" value="" style="ellipse;html=1;shape=startState;fillColor=#000000;strokeColor=#ff0000;" vertex="1" parent="bJq6qHO7lRjsnfCfAAI0-310">
          <mxGeometry x="299.34000000000003" y="10" width="54.34" height="48.97" as="geometry" />
        </mxCell>
        <mxCell id="bJq6qHO7lRjsnfCfAAI0-314" value="" style="edgeStyle=orthogonalEdgeStyle;html=1;verticalAlign=bottom;endArrow=open;endSize=8;strokeColor=#ff0000;entryX=0.5;entryY=0;entryDx=0;entryDy=0;" edge="1" parent="bJq6qHO7lRjsnfCfAAI0-310" source="bJq6qHO7lRjsnfCfAAI0-313" target="bJq6qHO7lRjsnfCfAAI0-315">
          <mxGeometry relative="1" as="geometry">
            <mxPoint x="291.5094339622642" y="87.69230769230762" as="targetPoint" />
          </mxGeometry>
        </mxCell>
        <mxCell id="bJq6qHO7lRjsnfCfAAI0-315" value="&lt;span style=&quot;font-size: 15px&quot;&gt;Inserire parola chiave&lt;br&gt;di ricerca&lt;br&gt;&lt;/span&gt;" style="rounded=1;whiteSpace=wrap;html=1;" vertex="1" parent="bJq6qHO7lRjsnfCfAAI0-310">
          <mxGeometry x="230" y="97.95000000000005" width="193.02" height="58.46" as="geometry" />
        </mxCell>
        <mxCell id="bJq6qHO7lRjsnfCfAAI0-316" value="" style="strokeWidth=2;html=1;shape=mxgraph.flowchart.decision;whiteSpace=wrap;" vertex="1" parent="bJq6qHO7lRjsnfCfAAI0-310">
          <mxGeometry x="258.58490566037733" y="205.8946153846154" width="135.8490566037736" height="68.20512820512819" as="geometry" />
        </mxCell>
        <mxCell id="bJq6qHO7lRjsnfCfAAI0-317" style="edgeStyle=orthogonalEdgeStyle;rounded=0;orthogonalLoop=1;jettySize=auto;html=1;exitX=0.5;exitY=1;exitDx=0;exitDy=0;entryX=0.5;entryY=0;entryDx=0;entryDy=0;entryPerimeter=0;" edge="1" parent="bJq6qHO7lRjsnfCfAAI0-310" source="bJq6qHO7lRjsnfCfAAI0-315" target="bJq6qHO7lRjsnfCfAAI0-316">
          <mxGeometry relative="1" as="geometry">
            <mxPoint x="326.5099999999993" y="193.46000000000004" as="targetPoint" />
          </mxGeometry>
        </mxCell>
        <mxCell id="bJq6qHO7lRjsnfCfAAI0-318" value="" style="ellipse;html=1;shape=endState;fillColor=#000000;strokeColor=#ff0000;" vertex="1" parent="bJq6qHO7lRjsnfCfAAI0-310">
          <mxGeometry x="490" y="360" width="54.34" height="50" as="geometry" />
        </mxCell>
        <mxCell id="bJq6qHO7lRjsnfCfAAI0-319" style="edgeStyle=orthogonalEdgeStyle;rounded=0;orthogonalLoop=1;jettySize=auto;html=1;exitX=0.5;exitY=1;exitDx=0;exitDy=0;entryX=0.5;entryY=0;entryDx=0;entryDy=0;" edge="1" parent="bJq6qHO7lRjsnfCfAAI0-310" source="bJq6qHO7lRjsnfCfAAI0-320" target="bJq6qHO7lRjsnfCfAAI0-318">
          <mxGeometry relative="1" as="geometry" />
        </mxCell>
        <mxCell id="bJq6qHO7lRjsnfCfAAI0-320" value="&lt;font style=&quot;font-size: 16px&quot;&gt;Visualizza&lt;br&gt;cliente/dipendente/fornitore&lt;br&gt;&lt;/font&gt;" style="rounded=1;whiteSpace=wrap;html=1;" vertex="1" parent="bJq6qHO7lRjsnfCfAAI0-310">
          <mxGeometry x="399.99" y="270" width="215.85" height="70" as="geometry" />
        </mxCell>
        <mxCell id="bJq6qHO7lRjsnfCfAAI0-321" style="edgeStyle=orthogonalEdgeStyle;rounded=0;orthogonalLoop=1;jettySize=auto;html=1;exitX=1;exitY=0.5;exitDx=0;exitDy=0;exitPerimeter=0;entryX=0.5;entryY=0;entryDx=0;entryDy=0;" edge="1" parent="bJq6qHO7lRjsnfCfAAI0-310" source="bJq6qHO7lRjsnfCfAAI0-316" target="bJq6qHO7lRjsnfCfAAI0-320">
          <mxGeometry relative="1" as="geometry">
            <mxPoint x="542.8301886792453" y="243.58974358974353" as="targetPoint" />
          </mxGeometry>
        </mxCell>
        <mxCell id="bJq6qHO7lRjsnfCfAAI0-322" value="[Esiste]" style="edgeLabel;html=1;align=center;verticalAlign=middle;resizable=0;points=[];" vertex="1" connectable="0" parent="bJq6qHO7lRjsnfCfAAI0-321">
          <mxGeometry x="0.037" y="2" relative="1" as="geometry">
            <mxPoint x="-11" y="2" as="offset" />
          </mxGeometry>
        </mxCell>
        <mxCell id="bJq6qHO7lRjsnfCfAAI0-325" value="" style="shape=sumEllipse;perimeter=ellipsePerimeter;whiteSpace=wrap;html=1;backgroundOutline=1;fontSize=16;" vertex="1" parent="bJq6qHO7lRjsnfCfAAI0-310">
          <mxGeometry x="160" y="285" width="40" height="40" as="geometry" />
        </mxCell>
        <mxCell id="bJq6qHO7lRjsnfCfAAI0-326" style="edgeStyle=orthogonalEdgeStyle;rounded=0;orthogonalLoop=1;jettySize=auto;html=1;exitX=0;exitY=0.5;exitDx=0;exitDy=0;exitPerimeter=0;entryX=0.5;entryY=0;entryDx=0;entryDy=0;" edge="1" parent="bJq6qHO7lRjsnfCfAAI0-310" source="bJq6qHO7lRjsnfCfAAI0-316" target="bJq6qHO7lRjsnfCfAAI0-325">
          <mxGeometry relative="1" as="geometry">
            <mxPoint x="111.5" y="379.99871794871797" as="targetPoint" />
          </mxGeometry>
        </mxCell>
        <mxCell id="bJq6qHO7lRjsnfCfAAI0-327" value="[Non Esiste]" style="edgeLabel;html=1;align=center;verticalAlign=middle;resizable=0;points=[];" vertex="1" connectable="0" parent="bJq6qHO7lRjsnfCfAAI0-326">
          <mxGeometry x="-0.0968" relative="1" as="geometry">
            <mxPoint x="20" as="offset" />
          </mxGeometry>
        </mxCell>
        <mxCell id="bJq6qHO7lRjsnfCfAAI0-329" value="" style="rounded=0;whiteSpace=wrap;html=1;fillColor=#d5e8d4;strokeColor=#82b366;" vertex="1" parent="1">
          <mxGeometry x="-3069.24" y="1010" width="450" height="390" as="geometry" />
        </mxCell>
        <mxCell id="bJq6qHO7lRjsnfCfAAI0-330" value="Aggiungi voce listino&lt;br&gt;ristorante" style="rounded=1;whiteSpace=wrap;html=1;fontSize=16;fillColor=#fff2cc;strokeColor=#d6b656;" vertex="1" parent="1">
          <mxGeometry x="-3069.24" y="1010" width="210" height="50" as="geometry" />
        </mxCell>
        <mxCell id="bJq6qHO7lRjsnfCfAAI0-331" value="" style="ellipse;html=1;shape=startState;fillColor=#000000;strokeColor=#ff0000;" vertex="1" parent="1">
          <mxGeometry x="-2814.0599999999995" y="1020" width="54.34" height="48.97" as="geometry" />
        </mxCell>
        <mxCell id="bJq6qHO7lRjsnfCfAAI0-332" value="" style="edgeStyle=orthogonalEdgeStyle;html=1;verticalAlign=bottom;endArrow=open;endSize=8;strokeColor=#ff0000;entryX=0.5;entryY=0;entryDx=0;entryDy=0;" edge="1" parent="1" source="bJq6qHO7lRjsnfCfAAI0-331" target="bJq6qHO7lRjsnfCfAAI0-334">
          <mxGeometry relative="1" as="geometry">
            <mxPoint x="-321.89056603773565" y="237.69230769230762" as="targetPoint" />
          </mxGeometry>
        </mxCell>
        <mxCell id="bJq6qHO7lRjsnfCfAAI0-333" style="edgeStyle=orthogonalEdgeStyle;rounded=0;orthogonalLoop=1;jettySize=auto;html=1;exitX=0.5;exitY=1;exitDx=0;exitDy=0;entryX=0.5;entryY=0;entryDx=0;entryDy=0;fontSize=16;" edge="1" parent="1" source="bJq6qHO7lRjsnfCfAAI0-334" target="bJq6qHO7lRjsnfCfAAI0-338">
          <mxGeometry relative="1" as="geometry">
            <mxPoint x="-2786.890566037736" y="1160.0046153846154" as="targetPoint" />
          </mxGeometry>
        </mxCell>
        <mxCell id="bJq6qHO7lRjsnfCfAAI0-334" value="&lt;span style=&quot;font-size: 15px&quot;&gt;Mostra listino&lt;br&gt;&lt;/span&gt;" style="rounded=1;whiteSpace=wrap;html=1;" vertex="1" parent="1">
          <mxGeometry x="-2874.6800000000003" y="1090" width="175.57" height="40" as="geometry" />
        </mxCell>
        <mxCell id="bJq6qHO7lRjsnfCfAAI0-336" value="" style="ellipse;html=1;shape=endState;fillColor=#000000;strokeColor=#ff0000;" vertex="1" parent="1">
          <mxGeometry x="-2814.0599999999995" y="1319" width="54.34" height="50" as="geometry" />
        </mxCell>
        <mxCell id="bJq6qHO7lRjsnfCfAAI0-345" style="edgeStyle=orthogonalEdgeStyle;rounded=0;orthogonalLoop=1;jettySize=auto;html=1;exitX=0.5;exitY=1;exitDx=0;exitDy=0;entryX=0.5;entryY=0;entryDx=0;entryDy=0;fontSize=16;" edge="1" parent="1" source="bJq6qHO7lRjsnfCfAAI0-338" target="bJq6qHO7lRjsnfCfAAI0-344">
          <mxGeometry relative="1" as="geometry" />
        </mxCell>
        <mxCell id="bJq6qHO7lRjsnfCfAAI0-338" value="&lt;font style=&quot;font-size: 16px&quot;&gt;Inserisci informazioni&lt;br&gt;nuova consumazione&lt;br&gt;&lt;/font&gt;" style="rounded=1;whiteSpace=wrap;html=1;" vertex="1" parent="1">
          <mxGeometry x="-2869.74" y="1160" width="165.71" height="59.36" as="geometry" />
        </mxCell>
        <mxCell id="bJq6qHO7lRjsnfCfAAI0-346" style="edgeStyle=orthogonalEdgeStyle;rounded=0;orthogonalLoop=1;jettySize=auto;html=1;exitX=0.5;exitY=1;exitDx=0;exitDy=0;entryX=0.5;entryY=0;entryDx=0;entryDy=0;fontSize=16;" edge="1" parent="1" source="bJq6qHO7lRjsnfCfAAI0-344" target="bJq6qHO7lRjsnfCfAAI0-336">
          <mxGeometry relative="1" as="geometry" />
        </mxCell>
        <mxCell id="bJq6qHO7lRjsnfCfAAI0-344" value="&lt;font style=&quot;font-size: 16px&quot;&gt;Aggiungi nuova consumaione&lt;br&gt;&lt;/font&gt;" style="rounded=1;whiteSpace=wrap;html=1;" vertex="1" parent="1">
          <mxGeometry x="-2869.7400000000007" y="1249.9999999999998" width="165.71" height="48.72" as="geometry" />
        </mxCell>
        <mxCell id="bJq6qHO7lRjsnfCfAAI0-358" value="" style="rounded=0;whiteSpace=wrap;html=1;fillColor=#d5e8d4;strokeColor=#82b366;" vertex="1" parent="1">
          <mxGeometry x="-1547.08" y="49" width="450" height="390" as="geometry" />
        </mxCell>
        <mxCell id="bJq6qHO7lRjsnfCfAAI0-359" value="Aggiungi consumazione&lt;br&gt;bar" style="rounded=1;whiteSpace=wrap;html=1;fontSize=16;fillColor=#fff2cc;strokeColor=#d6b656;" vertex="1" parent="1">
          <mxGeometry x="-1547.08" y="49" width="210" height="50" as="geometry" />
        </mxCell>
        <mxCell id="bJq6qHO7lRjsnfCfAAI0-360" value="" style="ellipse;html=1;shape=startState;fillColor=#000000;strokeColor=#ff0000;" vertex="1" parent="1">
          <mxGeometry x="-1291.8999999999996" y="59" width="54.34" height="48.97" as="geometry" />
        </mxCell>
        <mxCell id="bJq6qHO7lRjsnfCfAAI0-361" value="" style="edgeStyle=orthogonalEdgeStyle;html=1;verticalAlign=bottom;endArrow=open;endSize=8;strokeColor=#ff0000;entryX=0.5;entryY=0;entryDx=0;entryDy=0;" edge="1" parent="1" source="bJq6qHO7lRjsnfCfAAI0-360" target="bJq6qHO7lRjsnfCfAAI0-363">
          <mxGeometry relative="1" as="geometry">
            <mxPoint x="1200.2694339622644" y="-723.3076923076924" as="targetPoint" />
          </mxGeometry>
        </mxCell>
        <mxCell id="bJq6qHO7lRjsnfCfAAI0-362" style="edgeStyle=orthogonalEdgeStyle;rounded=0;orthogonalLoop=1;jettySize=auto;html=1;exitX=0.5;exitY=1;exitDx=0;exitDy=0;entryX=0.5;entryY=0;entryDx=0;entryDy=0;fontSize=16;" edge="1" parent="1" source="bJq6qHO7lRjsnfCfAAI0-363" target="bJq6qHO7lRjsnfCfAAI0-366">
          <mxGeometry relative="1" as="geometry">
            <mxPoint x="-1264.7305660377356" y="199.00461538461536" as="targetPoint" />
          </mxGeometry>
        </mxCell>
        <mxCell id="bJq6qHO7lRjsnfCfAAI0-363" value="&lt;span style=&quot;font-size: 15px&quot;&gt;Scegli consumazione&lt;br&gt;&lt;/span&gt;" style="rounded=1;whiteSpace=wrap;html=1;" vertex="1" parent="1">
          <mxGeometry x="-1352.52" y="129" width="175.57" height="40" as="geometry" />
        </mxCell>
        <mxCell id="bJq6qHO7lRjsnfCfAAI0-364" value="" style="ellipse;html=1;shape=endState;fillColor=#000000;strokeColor=#ff0000;" vertex="1" parent="1">
          <mxGeometry x="-1291.8999999999996" y="358" width="54.34" height="50" as="geometry" />
        </mxCell>
        <mxCell id="bJq6qHO7lRjsnfCfAAI0-365" style="edgeStyle=orthogonalEdgeStyle;rounded=0;orthogonalLoop=1;jettySize=auto;html=1;exitX=0.5;exitY=1;exitDx=0;exitDy=0;entryX=0.5;entryY=0;entryDx=0;entryDy=0;fontSize=16;" edge="1" parent="1" source="bJq6qHO7lRjsnfCfAAI0-366" target="bJq6qHO7lRjsnfCfAAI0-368">
          <mxGeometry relative="1" as="geometry" />
        </mxCell>
        <mxCell id="bJq6qHO7lRjsnfCfAAI0-366" value="&lt;font style=&quot;font-size: 16px&quot;&gt;Inserire quantità&lt;br&gt;&lt;/font&gt;" style="rounded=1;whiteSpace=wrap;html=1;" vertex="1" parent="1">
          <mxGeometry x="-1347.58" y="199" width="165.71" height="36" as="geometry" />
        </mxCell>
        <mxCell id="bJq6qHO7lRjsnfCfAAI0-367" style="edgeStyle=orthogonalEdgeStyle;rounded=0;orthogonalLoop=1;jettySize=auto;html=1;exitX=0.5;exitY=1;exitDx=0;exitDy=0;entryX=0.5;entryY=0;entryDx=0;entryDy=0;fontSize=16;" edge="1" parent="1" source="bJq6qHO7lRjsnfCfAAI0-368" target="bJq6qHO7lRjsnfCfAAI0-364">
          <mxGeometry relative="1" as="geometry" />
        </mxCell>
        <mxCell id="bJq6qHO7lRjsnfCfAAI0-368" value="&lt;font style=&quot;font-size: 16px&quot;&gt;Aggiungi consumazione allo scontrino&lt;br&gt;&lt;/font&gt;" style="rounded=1;whiteSpace=wrap;html=1;" vertex="1" parent="1">
          <mxGeometry x="-1347.58" y="265" width="165.71" height="72.72" as="geometry" />
        </mxCell>
        <mxCell id="bJq6qHO7lRjsnfCfAAI0-369" value="" style="rounded=0;whiteSpace=wrap;html=1;fillColor=#d5e8d4;strokeColor=#82b366;" vertex="1" parent="1">
          <mxGeometry x="-1055.18" y="49" width="410" height="340" as="geometry" />
        </mxCell>
        <mxCell id="bJq6qHO7lRjsnfCfAAI0-370" value="Rimuovi consumazione&lt;br&gt;bar" style="rounded=1;whiteSpace=wrap;html=1;fontSize=16;fillColor=#fff2cc;strokeColor=#d6b656;" vertex="1" parent="1">
          <mxGeometry x="-1055.18" y="49" width="210" height="50" as="geometry" />
        </mxCell>
        <mxCell id="bJq6qHO7lRjsnfCfAAI0-371" value="" style="ellipse;html=1;shape=startState;fillColor=#000000;strokeColor=#ff0000;" vertex="1" parent="1">
          <mxGeometry x="-814.6999999999996" y="59" width="54.34" height="48.97" as="geometry" />
        </mxCell>
        <mxCell id="bJq6qHO7lRjsnfCfAAI0-372" value="" style="edgeStyle=orthogonalEdgeStyle;html=1;verticalAlign=bottom;endArrow=open;endSize=8;strokeColor=#ff0000;" edge="1" parent="1" source="bJq6qHO7lRjsnfCfAAI0-371" target="bJq6qHO7lRjsnfCfAAI0-374">
          <mxGeometry relative="1" as="geometry">
            <mxPoint x="-788.0149999999996" y="128.99999999999955" as="targetPoint" />
          </mxGeometry>
        </mxCell>
        <mxCell id="bJq6qHO7lRjsnfCfAAI0-373" style="edgeStyle=orthogonalEdgeStyle;rounded=0;orthogonalLoop=1;jettySize=auto;html=1;exitX=0.5;exitY=1;exitDx=0;exitDy=0;entryX=0.5;entryY=0;entryDx=0;entryDy=0;fontSize=16;" edge="1" parent="1" source="bJq6qHO7lRjsnfCfAAI0-374" target="bJq6qHO7lRjsnfCfAAI0-379">
          <mxGeometry relative="1" as="geometry">
            <mxPoint x="-788.0150000000015" y="210.2800000000002" as="targetPoint" />
            <mxPoint x="-788.0149999999996" y="168.99999999999955" as="sourcePoint" />
          </mxGeometry>
        </mxCell>
        <mxCell id="bJq6qHO7lRjsnfCfAAI0-374" value="&lt;span style=&quot;font-size: 15px&quot;&gt;Seleziona consumazione dallo scontrino&lt;br&gt;&lt;/span&gt;" style="rounded=1;whiteSpace=wrap;html=1;" vertex="1" parent="1">
          <mxGeometry x="-875.3100000000002" y="129" width="175.57" height="40" as="geometry" />
        </mxCell>
        <mxCell id="bJq6qHO7lRjsnfCfAAI0-375" value="" style="ellipse;html=1;shape=endState;fillColor=#000000;strokeColor=#ff0000;" vertex="1" parent="1">
          <mxGeometry x="-814.6999999999996" y="313" width="54.34" height="50" as="geometry" />
        </mxCell>
        <mxCell id="bJq6qHO7lRjsnfCfAAI0-378" style="edgeStyle=orthogonalEdgeStyle;rounded=0;orthogonalLoop=1;jettySize=auto;html=1;exitX=0.5;exitY=1;exitDx=0;exitDy=0;entryX=0.5;entryY=0;entryDx=0;entryDy=0;fontSize=16;" edge="1" parent="1" target="bJq6qHO7lRjsnfCfAAI0-375">
          <mxGeometry relative="1" as="geometry">
            <mxPoint x="-788.0150000000015" y="283" as="sourcePoint" />
          </mxGeometry>
        </mxCell>
        <mxCell id="bJq6qHO7lRjsnfCfAAI0-554" value="" style="edgeStyle=orthogonalEdgeStyle;rounded=0;orthogonalLoop=1;jettySize=auto;html=1;fontSize=16;" edge="1" parent="1" source="bJq6qHO7lRjsnfCfAAI0-379" target="bJq6qHO7lRjsnfCfAAI0-375">
          <mxGeometry relative="1" as="geometry" />
        </mxCell>
        <mxCell id="bJq6qHO7lRjsnfCfAAI0-379" value="&lt;font style=&quot;font-size: 16px&quot;&gt;Elimina consumazione allo scontrino&lt;br&gt;&lt;/font&gt;" style="rounded=1;whiteSpace=wrap;html=1;" vertex="1" parent="1">
          <mxGeometry x="-870.8600000000001" y="211.12" width="165.71" height="72.72" as="geometry" />
        </mxCell>
        <mxCell id="bJq6qHO7lRjsnfCfAAI0-380" value="" style="rounded=0;whiteSpace=wrap;html=1;fillColor=#d5e8d4;strokeColor=#82b366;" vertex="1" parent="1">
          <mxGeometry x="-2579.24" y="1010" width="450" height="390" as="geometry" />
        </mxCell>
        <mxCell id="bJq6qHO7lRjsnfCfAAI0-381" value="Rimuovi voce listino&lt;br&gt;ristorante" style="rounded=1;whiteSpace=wrap;html=1;fontSize=16;fillColor=#fff2cc;strokeColor=#d6b656;" vertex="1" parent="1">
          <mxGeometry x="-2579.24" y="1010" width="210" height="50" as="geometry" />
        </mxCell>
        <mxCell id="bJq6qHO7lRjsnfCfAAI0-382" value="" style="ellipse;html=1;shape=startState;fillColor=#000000;strokeColor=#ff0000;" vertex="1" parent="1">
          <mxGeometry x="-2324.0599999999995" y="1020" width="54.34" height="48.97" as="geometry" />
        </mxCell>
        <mxCell id="bJq6qHO7lRjsnfCfAAI0-383" value="" style="edgeStyle=orthogonalEdgeStyle;html=1;verticalAlign=bottom;endArrow=open;endSize=8;strokeColor=#ff0000;entryX=0.5;entryY=0;entryDx=0;entryDy=0;" edge="1" parent="1" source="bJq6qHO7lRjsnfCfAAI0-382" target="bJq6qHO7lRjsnfCfAAI0-385">
          <mxGeometry relative="1" as="geometry">
            <mxPoint x="168.10943396226423" y="237.69230769230762" as="targetPoint" />
          </mxGeometry>
        </mxCell>
        <mxCell id="bJq6qHO7lRjsnfCfAAI0-384" style="edgeStyle=orthogonalEdgeStyle;rounded=0;orthogonalLoop=1;jettySize=auto;html=1;exitX=0.5;exitY=1;exitDx=0;exitDy=0;entryX=0.5;entryY=0;entryDx=0;entryDy=0;fontSize=16;" edge="1" parent="1" source="bJq6qHO7lRjsnfCfAAI0-385" target="bJq6qHO7lRjsnfCfAAI0-388">
          <mxGeometry relative="1" as="geometry">
            <mxPoint x="-2296.890566037736" y="1160.0046153846154" as="targetPoint" />
          </mxGeometry>
        </mxCell>
        <mxCell id="bJq6qHO7lRjsnfCfAAI0-385" value="&lt;span style=&quot;font-size: 15px&quot;&gt;Mostra listino&lt;br&gt;&lt;/span&gt;" style="rounded=1;whiteSpace=wrap;html=1;" vertex="1" parent="1">
          <mxGeometry x="-2384.6800000000003" y="1090" width="175.57" height="40" as="geometry" />
        </mxCell>
        <mxCell id="bJq6qHO7lRjsnfCfAAI0-386" value="" style="ellipse;html=1;shape=endState;fillColor=#000000;strokeColor=#ff0000;" vertex="1" parent="1">
          <mxGeometry x="-2324.0599999999995" y="1319" width="54.34" height="50" as="geometry" />
        </mxCell>
        <mxCell id="bJq6qHO7lRjsnfCfAAI0-387" style="edgeStyle=orthogonalEdgeStyle;rounded=0;orthogonalLoop=1;jettySize=auto;html=1;exitX=0.5;exitY=1;exitDx=0;exitDy=0;entryX=0.5;entryY=0;entryDx=0;entryDy=0;fontSize=16;" edge="1" parent="1" source="bJq6qHO7lRjsnfCfAAI0-388" target="bJq6qHO7lRjsnfCfAAI0-390">
          <mxGeometry relative="1" as="geometry" />
        </mxCell>
        <mxCell id="bJq6qHO7lRjsnfCfAAI0-388" value="&lt;font style=&quot;font-size: 16px&quot;&gt;Seleziona consumazione&lt;br&gt;&lt;/font&gt;" style="rounded=1;whiteSpace=wrap;html=1;" vertex="1" parent="1">
          <mxGeometry x="-2379.74" y="1160" width="165.71" height="59.36" as="geometry" />
        </mxCell>
        <mxCell id="bJq6qHO7lRjsnfCfAAI0-389" style="edgeStyle=orthogonalEdgeStyle;rounded=0;orthogonalLoop=1;jettySize=auto;html=1;exitX=0.5;exitY=1;exitDx=0;exitDy=0;entryX=0.5;entryY=0;entryDx=0;entryDy=0;fontSize=16;" edge="1" parent="1" source="bJq6qHO7lRjsnfCfAAI0-390" target="bJq6qHO7lRjsnfCfAAI0-386">
          <mxGeometry relative="1" as="geometry" />
        </mxCell>
        <mxCell id="bJq6qHO7lRjsnfCfAAI0-390" value="&lt;font style=&quot;font-size: 16px&quot;&gt;Rimuovi consumazione&lt;br&gt;&lt;/font&gt;" style="rounded=1;whiteSpace=wrap;html=1;" vertex="1" parent="1">
          <mxGeometry x="-2379.7400000000007" y="1249.9999999999998" width="165.71" height="48.72" as="geometry" />
        </mxCell>
        <mxCell id="bJq6qHO7lRjsnfCfAAI0-402" value="" style="rounded=0;whiteSpace=wrap;html=1;fillColor=#d5e8d4;strokeColor=#82b366;" vertex="1" parent="1">
          <mxGeometry x="-2250" y="-47" width="400" height="360" as="geometry" />
        </mxCell>
        <mxCell id="bJq6qHO7lRjsnfCfAAI0-403" value="Stampa scontrino bar" style="rounded=1;whiteSpace=wrap;html=1;fontSize=16;fillColor=#fff2cc;strokeColor=#d6b656;" vertex="1" parent="1">
          <mxGeometry x="-2250" y="-47" width="210" height="50" as="geometry" />
        </mxCell>
        <mxCell id="bJq6qHO7lRjsnfCfAAI0-404" value="" style="ellipse;html=1;shape=startState;fillColor=#000000;strokeColor=#ff0000;" vertex="1" parent="1">
          <mxGeometry x="-1994.8199999999997" y="-37" width="54.34" height="48.97" as="geometry" />
        </mxCell>
        <mxCell id="bJq6qHO7lRjsnfCfAAI0-405" value="" style="edgeStyle=orthogonalEdgeStyle;html=1;verticalAlign=bottom;endArrow=open;endSize=8;strokeColor=#ff0000;entryX=0.5;entryY=0;entryDx=0;entryDy=0;" edge="1" parent="1" source="bJq6qHO7lRjsnfCfAAI0-404" target="bJq6qHO7lRjsnfCfAAI0-407">
          <mxGeometry relative="1" as="geometry">
            <mxPoint x="497.3494339622643" y="-819.3076923076924" as="targetPoint" />
          </mxGeometry>
        </mxCell>
        <mxCell id="bJq6qHO7lRjsnfCfAAI0-406" style="edgeStyle=orthogonalEdgeStyle;rounded=0;orthogonalLoop=1;jettySize=auto;html=1;exitX=0.5;exitY=1;exitDx=0;exitDy=0;entryX=0.5;entryY=0;entryDx=0;entryDy=0;fontSize=16;" edge="1" parent="1" source="bJq6qHO7lRjsnfCfAAI0-407" target="bJq6qHO7lRjsnfCfAAI0-410">
          <mxGeometry relative="1" as="geometry">
            <mxPoint x="-1967.6505660377356" y="103.00461538461533" as="targetPoint" />
          </mxGeometry>
        </mxCell>
        <mxCell id="bJq6qHO7lRjsnfCfAAI0-407" value="&lt;span style=&quot;font-size: 15px&quot;&gt;Mostra scontrino&lt;br&gt;&lt;/span&gt;" style="rounded=1;whiteSpace=wrap;html=1;" vertex="1" parent="1">
          <mxGeometry x="-2055.44" y="32.99999999999997" width="175.57" height="40" as="geometry" />
        </mxCell>
        <mxCell id="bJq6qHO7lRjsnfCfAAI0-408" value="" style="ellipse;html=1;shape=endState;fillColor=#000000;strokeColor=#ff0000;" vertex="1" parent="1">
          <mxGeometry x="-1994.8199999999997" y="245.97" width="54.34" height="50" as="geometry" />
        </mxCell>
        <mxCell id="bJq6qHO7lRjsnfCfAAI0-409" style="edgeStyle=orthogonalEdgeStyle;rounded=0;orthogonalLoop=1;jettySize=auto;html=1;exitX=0.5;exitY=1;exitDx=0;exitDy=0;entryX=0.5;entryY=0;entryDx=0;entryDy=0;fontSize=16;" edge="1" parent="1" source="bJq6qHO7lRjsnfCfAAI0-410" target="bJq6qHO7lRjsnfCfAAI0-412">
          <mxGeometry relative="1" as="geometry" />
        </mxCell>
        <mxCell id="bJq6qHO7lRjsnfCfAAI0-410" value="&lt;font style=&quot;font-size: 16px&quot;&gt;Seleziona modalità pagamento&lt;br&gt;&lt;/font&gt;" style="rounded=1;whiteSpace=wrap;html=1;" vertex="1" parent="1">
          <mxGeometry x="-2050.5" y="103" width="165.71" height="40" as="geometry" />
        </mxCell>
        <mxCell id="bJq6qHO7lRjsnfCfAAI0-411" style="edgeStyle=orthogonalEdgeStyle;rounded=0;orthogonalLoop=1;jettySize=auto;html=1;exitX=0.5;exitY=1;exitDx=0;exitDy=0;entryX=0.5;entryY=0;entryDx=0;entryDy=0;fontSize=16;" edge="1" parent="1" source="bJq6qHO7lRjsnfCfAAI0-412" target="bJq6qHO7lRjsnfCfAAI0-408">
          <mxGeometry relative="1" as="geometry" />
        </mxCell>
        <mxCell id="bJq6qHO7lRjsnfCfAAI0-412" value="&lt;font style=&quot;font-size: 16px&quot;&gt;Salva scontrino&lt;br&gt;&lt;/font&gt;" style="rounded=1;whiteSpace=wrap;html=1;" vertex="1" parent="1">
          <mxGeometry x="-2050.5" y="169" width="165.71" height="44" as="geometry" />
        </mxCell>
        <mxCell id="bJq6qHO7lRjsnfCfAAI0-413" value="" style="rounded=0;whiteSpace=wrap;html=1;fillColor=#d5e8d4;strokeColor=#82b366;" vertex="1" parent="1">
          <mxGeometry x="-2280" y="-520" width="400" height="360" as="geometry" />
        </mxCell>
        <mxCell id="bJq6qHO7lRjsnfCfAAI0-414" value="Stampa scontrino ristorante" style="rounded=1;whiteSpace=wrap;html=1;fontSize=16;fillColor=#fff2cc;strokeColor=#d6b656;" vertex="1" parent="1">
          <mxGeometry x="-2280" y="-520" width="210" height="50" as="geometry" />
        </mxCell>
        <mxCell id="bJq6qHO7lRjsnfCfAAI0-415" value="" style="ellipse;html=1;shape=startState;fillColor=#000000;strokeColor=#ff0000;" vertex="1" parent="1">
          <mxGeometry x="-2024.8199999999997" y="-510" width="54.34" height="48.97" as="geometry" />
        </mxCell>
        <mxCell id="bJq6qHO7lRjsnfCfAAI0-416" value="" style="edgeStyle=orthogonalEdgeStyle;html=1;verticalAlign=bottom;endArrow=open;endSize=8;strokeColor=#ff0000;entryX=0.5;entryY=0;entryDx=0;entryDy=0;" edge="1" parent="1" source="bJq6qHO7lRjsnfCfAAI0-415" target="bJq6qHO7lRjsnfCfAAI0-418">
          <mxGeometry relative="1" as="geometry">
            <mxPoint x="467.34943396226436" y="-1292.3076923076924" as="targetPoint" />
          </mxGeometry>
        </mxCell>
        <mxCell id="bJq6qHO7lRjsnfCfAAI0-417" style="edgeStyle=orthogonalEdgeStyle;rounded=0;orthogonalLoop=1;jettySize=auto;html=1;exitX=0.5;exitY=1;exitDx=0;exitDy=0;entryX=0.5;entryY=0;entryDx=0;entryDy=0;fontSize=16;" edge="1" parent="1" source="bJq6qHO7lRjsnfCfAAI0-418" target="bJq6qHO7lRjsnfCfAAI0-421">
          <mxGeometry relative="1" as="geometry">
            <mxPoint x="-1997.6505660377356" y="-369.99538461538464" as="targetPoint" />
          </mxGeometry>
        </mxCell>
        <mxCell id="bJq6qHO7lRjsnfCfAAI0-418" value="&lt;span style=&quot;font-size: 15px&quot;&gt;Mostra conto prenotazione&lt;br&gt;&lt;/span&gt;" style="rounded=1;whiteSpace=wrap;html=1;" vertex="1" parent="1">
          <mxGeometry x="-2085.44" y="-440" width="175.57" height="40" as="geometry" />
        </mxCell>
        <mxCell id="bJq6qHO7lRjsnfCfAAI0-419" value="" style="ellipse;html=1;shape=endState;fillColor=#000000;strokeColor=#ff0000;" vertex="1" parent="1">
          <mxGeometry x="-2024.8199999999997" y="-227.02999999999997" width="54.34" height="50" as="geometry" />
        </mxCell>
        <mxCell id="bJq6qHO7lRjsnfCfAAI0-420" style="edgeStyle=orthogonalEdgeStyle;rounded=0;orthogonalLoop=1;jettySize=auto;html=1;exitX=0.5;exitY=1;exitDx=0;exitDy=0;entryX=0.5;entryY=0;entryDx=0;entryDy=0;fontSize=16;" edge="1" parent="1" source="bJq6qHO7lRjsnfCfAAI0-421" target="bJq6qHO7lRjsnfCfAAI0-423">
          <mxGeometry relative="1" as="geometry" />
        </mxCell>
        <mxCell id="bJq6qHO7lRjsnfCfAAI0-421" value="&lt;font style=&quot;font-size: 16px&quot;&gt;Seleziona modalità pagamento&lt;br&gt;&lt;/font&gt;" style="rounded=1;whiteSpace=wrap;html=1;" vertex="1" parent="1">
          <mxGeometry x="-2080.5" y="-370" width="165.71" height="40" as="geometry" />
        </mxCell>
        <mxCell id="bJq6qHO7lRjsnfCfAAI0-422" style="edgeStyle=orthogonalEdgeStyle;rounded=0;orthogonalLoop=1;jettySize=auto;html=1;exitX=0.5;exitY=1;exitDx=0;exitDy=0;entryX=0.5;entryY=0;entryDx=0;entryDy=0;fontSize=16;" edge="1" parent="1" source="bJq6qHO7lRjsnfCfAAI0-423" target="bJq6qHO7lRjsnfCfAAI0-419">
          <mxGeometry relative="1" as="geometry" />
        </mxCell>
        <mxCell id="bJq6qHO7lRjsnfCfAAI0-423" value="&lt;font style=&quot;font-size: 16px&quot;&gt;Salva scontrino&lt;br&gt;&lt;/font&gt;" style="rounded=1;whiteSpace=wrap;html=1;" vertex="1" parent="1">
          <mxGeometry x="-2080.5" y="-304" width="165.71" height="44" as="geometry" />
        </mxCell>
        <mxCell id="bJq6qHO7lRjsnfCfAAI0-424" value="" style="rounded=0;whiteSpace=wrap;html=1;fillColor=#d5e8d4;strokeColor=#82b366;" vertex="1" parent="1">
          <mxGeometry x="-2730" y="-520" width="400" height="290" as="geometry" />
        </mxCell>
        <mxCell id="bJq6qHO7lRjsnfCfAAI0-425" value="Mostra conto prenotazione" style="rounded=1;whiteSpace=wrap;html=1;fontSize=16;fillColor=#fff2cc;strokeColor=#d6b656;" vertex="1" parent="1">
          <mxGeometry x="-2730" y="-520" width="210" height="50" as="geometry" />
        </mxCell>
        <mxCell id="bJq6qHO7lRjsnfCfAAI0-426" value="" style="ellipse;html=1;shape=startState;fillColor=#000000;strokeColor=#ff0000;" vertex="1" parent="1">
          <mxGeometry x="-2474.8199999999997" y="-510" width="54.34" height="48.97" as="geometry" />
        </mxCell>
        <mxCell id="bJq6qHO7lRjsnfCfAAI0-427" value="" style="edgeStyle=orthogonalEdgeStyle;html=1;verticalAlign=bottom;endArrow=open;endSize=8;strokeColor=#ff0000;entryX=0.5;entryY=0;entryDx=0;entryDy=0;" edge="1" parent="1" source="bJq6qHO7lRjsnfCfAAI0-426" target="bJq6qHO7lRjsnfCfAAI0-429">
          <mxGeometry relative="1" as="geometry">
            <mxPoint x="17.349433962264357" y="-1292.3076923076924" as="targetPoint" />
          </mxGeometry>
        </mxCell>
        <mxCell id="bJq6qHO7lRjsnfCfAAI0-428" style="edgeStyle=orthogonalEdgeStyle;rounded=0;orthogonalLoop=1;jettySize=auto;html=1;exitX=0.5;exitY=1;exitDx=0;exitDy=0;entryX=0.5;entryY=0;entryDx=0;entryDy=0;fontSize=16;" edge="1" parent="1" source="bJq6qHO7lRjsnfCfAAI0-429" target="bJq6qHO7lRjsnfCfAAI0-432">
          <mxGeometry relative="1" as="geometry">
            <mxPoint x="-2447.6505660377356" y="-369.99538461538464" as="targetPoint" />
          </mxGeometry>
        </mxCell>
        <mxCell id="bJq6qHO7lRjsnfCfAAI0-429" value="&lt;span style=&quot;font-size: 15px&quot;&gt;Seleziona prenotazione&lt;br&gt;&lt;/span&gt;" style="rounded=1;whiteSpace=wrap;html=1;" vertex="1" parent="1">
          <mxGeometry x="-2535.44" y="-440" width="175.57" height="40" as="geometry" />
        </mxCell>
        <mxCell id="bJq6qHO7lRjsnfCfAAI0-430" value="" style="ellipse;html=1;shape=endState;fillColor=#000000;strokeColor=#ff0000;" vertex="1" parent="1">
          <mxGeometry x="-2474.8199999999997" y="-290" width="54.34" height="50" as="geometry" />
        </mxCell>
        <mxCell id="bJq6qHO7lRjsnfCfAAI0-431" style="edgeStyle=orthogonalEdgeStyle;rounded=0;orthogonalLoop=1;jettySize=auto;html=1;exitX=0.5;exitY=1;exitDx=0;exitDy=0;entryX=0.5;entryY=0;entryDx=0;entryDy=0;fontSize=16;" edge="1" parent="1" source="bJq6qHO7lRjsnfCfAAI0-432" target="bJq6qHO7lRjsnfCfAAI0-430">
          <mxGeometry relative="1" as="geometry">
            <mxPoint x="-2447.645" y="-304" as="targetPoint" />
          </mxGeometry>
        </mxCell>
        <mxCell id="bJq6qHO7lRjsnfCfAAI0-432" value="&lt;font style=&quot;font-size: 16px&quot;&gt;Seleziona consumazioni menù&lt;br&gt;&lt;/font&gt;" style="rounded=1;whiteSpace=wrap;html=1;" vertex="1" parent="1">
          <mxGeometry x="-2530.5" y="-370" width="165.71" height="40" as="geometry" />
        </mxCell>
        <mxCell id="bJq6qHO7lRjsnfCfAAI0-435" value="" style="rounded=0;whiteSpace=wrap;html=1;fillColor=#d5e8d4;strokeColor=#82b366;" vertex="1" parent="1">
          <mxGeometry x="-3820" y="1320" width="410" height="250" as="geometry" />
        </mxCell>
        <mxCell id="bJq6qHO7lRjsnfCfAAI0-436" value="Visualizza prenotazioni" style="rounded=1;whiteSpace=wrap;html=1;fontSize=16;fillColor=#fff2cc;strokeColor=#d6b656;" vertex="1" parent="1">
          <mxGeometry x="-3820" y="1320" width="210" height="50" as="geometry" />
        </mxCell>
        <mxCell id="bJq6qHO7lRjsnfCfAAI0-437" value="" style="ellipse;html=1;shape=startState;fillColor=#000000;strokeColor=#ff0000;" vertex="1" parent="1">
          <mxGeometry x="-3564.8199999999997" y="1330" width="54.34" height="48.97" as="geometry" />
        </mxCell>
        <mxCell id="bJq6qHO7lRjsnfCfAAI0-438" value="" style="edgeStyle=orthogonalEdgeStyle;html=1;verticalAlign=bottom;endArrow=open;endSize=8;strokeColor=#ff0000;entryX=0.5;entryY=0;entryDx=0;entryDy=0;" edge="1" parent="1" source="bJq6qHO7lRjsnfCfAAI0-437" target="bJq6qHO7lRjsnfCfAAI0-440">
          <mxGeometry relative="1" as="geometry">
            <mxPoint x="-1072.6505660377356" y="547.6923076923076" as="targetPoint" />
          </mxGeometry>
        </mxCell>
        <mxCell id="bJq6qHO7lRjsnfCfAAI0-439" style="edgeStyle=orthogonalEdgeStyle;rounded=0;orthogonalLoop=1;jettySize=auto;html=1;exitX=0.5;exitY=1;exitDx=0;exitDy=0;entryX=0.5;entryY=0;entryDx=0;entryDy=0;fontSize=16;" edge="1" parent="1" source="bJq6qHO7lRjsnfCfAAI0-440" target="bJq6qHO7lRjsnfCfAAI0-441">
          <mxGeometry relative="1" as="geometry">
            <mxPoint x="-3537.645" y="1470" as="targetPoint" />
          </mxGeometry>
        </mxCell>
        <mxCell id="bJq6qHO7lRjsnfCfAAI0-440" value="&lt;span style=&quot;font-size: 15px&quot;&gt;Mostra lista prenotazioni&lt;br&gt;&lt;/span&gt;" style="rounded=1;whiteSpace=wrap;html=1;" vertex="1" parent="1">
          <mxGeometry x="-3625.43" y="1418.97" width="175.57" height="40" as="geometry" />
        </mxCell>
        <mxCell id="bJq6qHO7lRjsnfCfAAI0-441" value="" style="ellipse;html=1;shape=endState;fillColor=#000000;strokeColor=#ff0000;" vertex="1" parent="1">
          <mxGeometry x="-3564.82" y="1490" width="54.34" height="50" as="geometry" />
        </mxCell>
        <mxCell id="bJq6qHO7lRjsnfCfAAI0-448" value="" style="group" vertex="1" connectable="0" parent="1">
          <mxGeometry x="134.82000000000005" y="-540" width="570" height="450.00000000000006" as="geometry" />
        </mxCell>
        <mxCell id="bJq6qHO7lRjsnfCfAAI0-449" value="" style="group" vertex="1" connectable="0" parent="bJq6qHO7lRjsnfCfAAI0-448">
          <mxGeometry x="-310" y="-20.51" width="880" height="460" as="geometry" />
        </mxCell>
        <mxCell id="bJq6qHO7lRjsnfCfAAI0-450" value="" style="rounded=0;whiteSpace=wrap;html=1;fillColor=#d5e8d4;strokeColor=#82b366;" vertex="1" parent="bJq6qHO7lRjsnfCfAAI0-449">
          <mxGeometry width="880" height="460" as="geometry" />
        </mxCell>
        <mxCell id="bJq6qHO7lRjsnfCfAAI0-451" value="Uscita" style="rounded=1;whiteSpace=wrap;html=1;fontSize=16;fillColor=#fff2cc;strokeColor=#d6b656;" vertex="1" parent="bJq6qHO7lRjsnfCfAAI0-449">
          <mxGeometry width="146.66666666666669" height="31.36363636363636" as="geometry" />
        </mxCell>
        <mxCell id="bJq6qHO7lRjsnfCfAAI0-466" style="edgeStyle=orthogonalEdgeStyle;rounded=0;orthogonalLoop=1;jettySize=auto;html=1;exitX=0.5;exitY=1;exitDx=0;exitDy=0;entryX=0.5;entryY=0;entryDx=0;entryDy=0;entryPerimeter=0;fontSize=16;" edge="1" parent="bJq6qHO7lRjsnfCfAAI0-449" source="bJq6qHO7lRjsnfCfAAI0-464" target="bJq6qHO7lRjsnfCfAAI0-457">
          <mxGeometry relative="1" as="geometry">
            <Array as="points">
              <mxPoint x="440" y="271" />
              <mxPoint x="440" y="271" />
            </Array>
          </mxGeometry>
        </mxCell>
        <mxCell id="bJq6qHO7lRjsnfCfAAI0-464" value="&lt;span style=&quot;font-size: 15px&quot;&gt;Seleziona Uscita&lt;/span&gt;" style="rounded=1;whiteSpace=wrap;html=1;" vertex="1" parent="bJq6qHO7lRjsnfCfAAI0-449">
          <mxGeometry x="343.0645945945946" y="180.50871794871787" width="193.86027536970934" height="58.46153846153844" as="geometry" />
        </mxCell>
        <mxCell id="bJq6qHO7lRjsnfCfAAI0-467" style="edgeStyle=orthogonalEdgeStyle;rounded=0;orthogonalLoop=1;jettySize=auto;html=1;entryX=0;entryY=0.5;entryDx=0;entryDy=0;fontSize=16;" edge="1" parent="bJq6qHO7lRjsnfCfAAI0-449" source="bJq6qHO7lRjsnfCfAAI0-457" target="bJq6qHO7lRjsnfCfAAI0-461">
          <mxGeometry relative="1" as="geometry">
            <Array as="points">
              <mxPoint x="463.7837837837838" y="314.99999999999994" />
              <mxPoint x="463.7837837837838" y="314.99999999999994" />
            </Array>
          </mxGeometry>
        </mxCell>
        <mxCell id="bJq6qHO7lRjsnfCfAAI0-468" value="&lt;font style=&quot;font-size: 12px&quot;&gt;[Chiudi applicaizone]&lt;/font&gt;" style="edgeLabel;html=1;align=center;verticalAlign=middle;resizable=0;points=[];fontSize=16;" vertex="1" connectable="0" parent="bJq6qHO7lRjsnfCfAAI0-467">
          <mxGeometry x="-0.7667" y="1" relative="1" as="geometry">
            <mxPoint x="68" y="1" as="offset" />
          </mxGeometry>
        </mxCell>
        <mxCell id="bJq6qHO7lRjsnfCfAAI0-471" style="edgeStyle=orthogonalEdgeStyle;rounded=0;orthogonalLoop=1;jettySize=auto;html=1;exitX=0;exitY=0.5;exitDx=0;exitDy=0;exitPerimeter=0;entryX=0.5;entryY=1;entryDx=0;entryDy=0;fontSize=16;" edge="1" parent="bJq6qHO7lRjsnfCfAAI0-449" source="bJq6qHO7lRjsnfCfAAI0-457" target="bJq6qHO7lRjsnfCfAAI0-470">
          <mxGeometry relative="1" as="geometry" />
        </mxCell>
        <mxCell id="bJq6qHO7lRjsnfCfAAI0-472" value="&lt;font size=&quot;1&quot;&gt;[Effetturare Logout]&lt;/font&gt;" style="edgeLabel;html=1;align=center;verticalAlign=middle;resizable=0;points=[];fontSize=16;" vertex="1" connectable="0" parent="bJq6qHO7lRjsnfCfAAI0-471">
          <mxGeometry x="0.0127" y="-2" relative="1" as="geometry">
            <mxPoint as="offset" />
          </mxGeometry>
        </mxCell>
        <mxCell id="bJq6qHO7lRjsnfCfAAI0-457" value="" style="strokeWidth=2;html=1;shape=mxgraph.flowchart.decision;whiteSpace=wrap;" vertex="1" parent="bJq6qHO7lRjsnfCfAAI0-449">
          <mxGeometry x="350.8178378378378" y="280.75999999999993" width="178.3783783783784" height="68.20999999999998" as="geometry" />
        </mxCell>
        <mxCell id="bJq6qHO7lRjsnfCfAAI0-461" value="&lt;span style=&quot;font-size: 15px&quot;&gt;Chiusura applicazione&lt;br&gt;&lt;/span&gt;" style="rounded=1;whiteSpace=wrap;html=1;" vertex="1" parent="bJq6qHO7lRjsnfCfAAI0-449">
          <mxGeometry x="696.6981489036208" y="290.506923076923" width="161.5502294747578" height="48.7179487179487" as="geometry" />
        </mxCell>
        <mxCell id="bJq6qHO7lRjsnfCfAAI0-459" value="" style="ellipse;html=1;shape=endState;fillColor=#000000;strokeColor=#ff0000;" vertex="1" parent="bJq6qHO7lRjsnfCfAAI0-449">
          <mxGeometry x="745" y="360.51" width="64.62" height="59.49" as="geometry" />
        </mxCell>
        <mxCell id="bJq6qHO7lRjsnfCfAAI0-460" style="edgeStyle=orthogonalEdgeStyle;rounded=0;orthogonalLoop=1;jettySize=auto;html=1;exitX=0.5;exitY=1;exitDx=0;exitDy=0;entryX=0.5;entryY=0;entryDx=0;entryDy=0;" edge="1" parent="bJq6qHO7lRjsnfCfAAI0-449" source="bJq6qHO7lRjsnfCfAAI0-461" target="bJq6qHO7lRjsnfCfAAI0-459">
          <mxGeometry relative="1" as="geometry" />
        </mxCell>
        <mxCell id="bJq6qHO7lRjsnfCfAAI0-454" value="&lt;span style=&quot;font-size: 15px&quot;&gt;Mostra HomeView&lt;/span&gt;&lt;span style=&quot;color: rgba(0 , 0 , 0 , 0) ; font-family: monospace ; font-size: 0px&quot;&gt;%3CmxGraphModel%3E%3Croot%3E%3CmxCell%20id%3D%220%22%2F%3E%3CmxCell%20id%3D%221%22%20parent%3D%220%22%2F%3E%3CmxCell%20id%3D%222%22%20value%3D%22%22%20style%3D%22group%22%20vertex%3D%221%22%20connectable%3D%220%22%20parent%3D%221%22%3E%3CmxGeometry%20x%3D%2250%22%20y%3D%2240%22%20width%3D%22560%22%20height%3D%22450.00000000000006%22%20as%3D%22geometry%22%2F%3E%3C%2FmxCell%3E%3CmxCell%20id%3D%223%22%20value%3D%22%22%20style%3D%22group%22%20vertex%3D%221%22%20connectable%3D%220%22%20parent%3D%222%22%3E%3CmxGeometry%20x%3D%22-180%22%20y%3D%22-20.50999999999999%22%20width%3D%22740%22%20height%3D%22460.00000000000006%22%20as%3D%22geometry%22%2F%3E%3C%2FmxCell%3E%3CmxCell%20id%3D%224%22%20value%3D%22%22%20style%3D%22rounded%3D0%3BwhiteSpace%3Dwrap%3Bhtml%3D1%3BfillColor%3D%23d5e8d4%3BstrokeColor%3D%2382b366%3B%22%20vertex%3D%221%22%20parent%3D%223%22%3E%3CmxGeometry%20width%3D%22740%22%20height%3D%22460.00000000000006%22%20as%3D%22geometry%22%2F%3E%3C%2FmxCell%3E%3CmxCell%20id%3D%225%22%20value%3D%22Login%22%20style%3D%22rounded%3D1%3BwhiteSpace%3Dwrap%3Bhtml%3D1%3BfontSize%3D16%3BfillColor%3D%23fff2cc%3BstrokeColor%3D%23d6b656%3B%22%20vertex%3D%221%22%20parent%3D%223%22%3E%3CmxGeometry%20width%3D%22123.33333333333334%22%20height%3D%2231.363636363636363%22%20as%3D%22geometry%22%2F%3E%3C%2FmxCell%3E%3CmxCell%20id%3D%226%22%20value%3D%22%22%20style%3D%22ellipse%3Bhtml%3D1%3Bshape%3DstartState%3BfillColor%3D%23000000%3BstrokeColor%3D%23ff0000%3B%22%20vertex%3D%221%22%20parent%3D%222%22%3E%3CmxGeometry%20x%3D%2254.34%22%20y%3D%22-10%22%20width%3D%2254.34%22%20height%3D%2248.97%22%20as%3D%22geometry%22%2F%3E%3C%2FmxCell%3E%3CmxCell%20id%3D%227%22%20value%3D%22%22%20style%3D%22edgeStyle%3DorthogonalEdgeStyle%3Bhtml%3D1%3BverticalAlign%3Dbottom%3BendArrow%3Dopen%3BendSize%3D8%3BstrokeColor%3D%23ff0000%3BentryX%3D0.5%3BentryY%3D0%3BentryDx%3D0%3BentryDy%3D0%3B%22%20edge%3D%221%22%20parent%3D%222%22%20source%3D%226%22%20target%3D%228%22%3E%3CmxGeometry%20relative%3D%221%22%20as%3D%22geometry%22%3E%3CmxPoint%20x%3D%2281.50943396226415%22%20y%3D%2287.69230769230766%22%20as%3D%22targetPoint%22%2F%3E%3C%2FmxGeometry%3E%3C%2FmxCell%3E%3CmxCell%20id%3D%228%22%20value%3D%22%26lt%3Bfont%20style%3D%26quot%3Bfont-size%3A%2015px%26quot%3B%26gt%3BInserire%26lt%3Bbr%26gt%3Bcredenziali%26lt%3B%2Ffont%26gt%3B%22%20style%3D%22rounded%3D1%3BwhiteSpace%3Dwrap%3Bhtml%3D1%3B%22%20vertex%3D%221%22%20parent%3D%222%22%3E%3CmxGeometry%20y%3D%2277.94871794871793%22%20width%3D%22163.0188679245283%22%20height%3D%2258.461538461538446%22%20as%3D%22geometry%22%2F%3E%3C%2FmxCell%3E%3CmxCell%20id%3D%229%22%20style%3D%22edgeStyle%3DorthogonalEdgeStyle%3Brounded%3D0%3BorthogonalLoop%3D1%3BjettySize%3Dauto%3Bhtml%3D1%3BexitX%3D0%3BexitY%3D0.5%3BexitDx%3D0%3BexitDy%3D0%3BexitPerimeter%3D0%3BentryX%3D0%3BentryY%3D0.5%3BentryDx%3D0%3BentryDy%3D0%3B%22%20edge%3D%221%22%20parent%3D%222%22%20source%3D%2211%22%20target%3D%228%22%3E%3CmxGeometry%20relative%3D%221%22%20as%3D%22geometry%22%2F%3E%3C%2FmxCell%3E%3CmxCell%20id%3D%2210%22%20value%3D%22%5BCredenziali%20errate%5D%22%20style%3D%22edgeLabel%3Bhtml%3D1%3Balign%3Dcenter%3BverticalAlign%3Dmiddle%3Bresizable%3D0%3Bpoints%3D%5B%5D%3B%22%20vertex%3D%221%22%20connectable%3D%220%22%20parent%3D%229%22%3E%3CmxGeometry%20x%3D%22-0.0968%22%20relative%3D%221%22%20as%3D%22geometry%22%3E%3CmxPoint%20as%3D%22offset%22%2F%3E%3C%2FmxGeometry%3E%3C%2FmxCell%3E%3CmxCell%20id%3D%2211%22%20value%3D%22%22%20style%3D%22strokeWidth%3D2%3Bhtml%3D1%3Bshape%3Dmxgraph.flowchart.decision%3BwhiteSpace%3Dwrap%3B%22%20vertex%3D%221%22%20parent%3D%222%22%3E%3CmxGeometry%20x%3D%2213.58490566037736%22%20y%3D%22175.38461538461533%22%20width%3D%22135.8490566037736%22%20height%3D%2268.20512820512819%22%20as%3D%22geometry%22%2F%3E%3C%2FmxCell%3E%3CmxCell%20id%3D%2212%22%20style%3D%22edgeStyle%3DorthogonalEdgeStyle%3Brounded%3D0%3BorthogonalLoop%3D1%3BjettySize%3Dauto%3Bhtml%3D1%3BexitX%3D0.5%3BexitY%3D1%3BexitDx%3D0%3BexitDy%3D0%3BentryX%3D0.5%3BentryY%3D0%3BentryDx%3D0%3BentryDy%3D0%3BentryPerimeter%3D0%3B%22%20edge%3D%221%22%20parent%3D%222%22%20source%3D%228%22%20target%3D%2211%22%3E%3CmxGeometry%20relative%3D%221%22%20as%3D%22geometry%22%2F%3E%3C%2FmxCell%3E%3CmxCell%20id%3D%2213%22%20value%3D%22%22%20style%3D%22ellipse%3Bhtml%3D1%3Bshape%3DendState%3BfillColor%3D%23000000%3BstrokeColor%3D%23ff0000%3B%22%20vertex%3D%221%22%20parent%3D%222%22%3E%3CmxGeometry%20x%3D%22278.49%22%20y%3D%22341.03%22%20width%3D%2254.34%22%20height%3D%2248.97%22%20as%3D%22geometry%22%2F%3E%3C%2FmxCell%3E%3CmxCell%20id%3D%2214%22%20style%3D%22edgeStyle%3DorthogonalEdgeStyle%3Brounded%3D0%3BorthogonalLoop%3D1%3BjettySize%3Dauto%3Bhtml%3D1%3BexitX%3D0.5%3BexitY%3D1%3BexitDx%3D0%3BexitDy%3D0%3BentryX%3D0.5%3BentryY%3D0%3BentryDx%3D0%3BentryDy%3D0%3B%22%20edge%3D%221%22%20parent%3D%222%22%20source%3D%2215%22%20target%3D%2213%22%3E%3CmxGeometry%20relative%3D%221%22%20as%3D%22geometry%22%2F%3E%3C%2FmxCell%3E%3CmxCell%20id%3D%2215%22%20value%3D%22%26lt%3Bspan%20style%3D%26quot%3Bfont-size%3A%2015px%26quot%3B%26gt%3BMostra%20HomeView%26lt%3Bbr%26gt%3B%26lt%3B%2Fspan%26gt%3B%22%20style%3D%22rounded%3D1%3BwhiteSpace%3Dwrap%3Bhtml%3D1%3B%22%20vertex%3D%221%22%20parent%3D%222%22%3E%3CmxGeometry%20x%3D%22224.15094339622644%22%20y%3D%22263.0769230769231%22%20width%3D%22135.8490566037736%22%20height%3D%2248.71794871794871%22%20as%3D%22geometry%22%2F%3E%3C%2FmxCell%3E%3CmxCell%20id%3D%2216%22%20style%3D%22edgeStyle%3DorthogonalEdgeStyle%3Brounded%3D0%3BorthogonalLoop%3D1%3BjettySize%3Dauto%3Bhtml%3D1%3BexitX%3D1%3BexitY%3D0.5%3BexitDx%3D0%3BexitDy%3D0%3BexitPerimeter%3D0%3BentryX%3D0.5%3BentryY%3D0%3BentryDx%3D0%3BentryDy%3D0%3B%22%20edge%3D%221%22%20parent%3D%222%22%20source%3D%2211%22%20target%3D%2215%22%3E%3CmxGeometry%20relative%3D%221%22%20as%3D%22geometry%22%3E%3CmxPoint%20x%3D%22332.83018867924534%22%20y%3D%22243.58974358974353%22%20as%3D%22targetPoint%22%2F%3E%3C%2FmxGeometry%3E%3C%2FmxCell%3E%3CmxCell%20id%3D%2217%22%20value%3D%22%5BCredenziali%20corrette%5D%22%20style%3D%22edgeLabel%3Bhtml%3D1%3Balign%3Dcenter%3BverticalAlign%3Dmiddle%3Bresizable%3D0%3Bpoints%3D%5B%5D%3B%22%20vertex%3D%221%22%20connectable%3D%220%22%20parent%3D%2216%22%3E%3CmxGeometry%20x%3D%220.037%22%20y%3D%222%22%20relative%3D%221%22%20as%3D%22geometry%22%3E%3CmxPoint%20as%3D%22offset%22%2F%3E%3C%2FmxGeometry%3E%3C%2FmxCell%3E%3C%2Froot%3E%3C%2FmxGraphModel%3E&lt;/span&gt;" style="rounded=1;whiteSpace=wrap;html=1;" vertex="1" parent="bJq6qHO7lRjsnfCfAAI0-449">
          <mxGeometry x="343.0745945945946" y="90.5087179487179" width="193.86027536970934" height="58.46153846153844" as="geometry" />
        </mxCell>
        <mxCell id="bJq6qHO7lRjsnfCfAAI0-465" style="edgeStyle=orthogonalEdgeStyle;rounded=0;orthogonalLoop=1;jettySize=auto;html=1;exitX=0.5;exitY=1;exitDx=0;exitDy=0;entryX=0.5;entryY=0;entryDx=0;entryDy=0;fontSize=16;" edge="1" parent="bJq6qHO7lRjsnfCfAAI0-449" source="bJq6qHO7lRjsnfCfAAI0-454" target="bJq6qHO7lRjsnfCfAAI0-464">
          <mxGeometry relative="1" as="geometry" />
        </mxCell>
        <mxCell id="bJq6qHO7lRjsnfCfAAI0-452" value="" style="ellipse;html=1;shape=startState;fillColor=#000000;strokeColor=#ff0000;" vertex="1" parent="bJq6qHO7lRjsnfCfAAI0-449">
          <mxGeometry x="407.69" width="64.62" height="59.48" as="geometry" />
        </mxCell>
        <mxCell id="bJq6qHO7lRjsnfCfAAI0-453" value="" style="edgeStyle=orthogonalEdgeStyle;html=1;verticalAlign=bottom;endArrow=open;endSize=8;strokeColor=#ff0000;entryX=0.5;entryY=0;entryDx=0;entryDy=0;" edge="1" parent="bJq6qHO7lRjsnfCfAAI0-449" source="bJq6qHO7lRjsnfCfAAI0-452" target="bJq6qHO7lRjsnfCfAAI0-454">
          <mxGeometry relative="1" as="geometry">
            <mxPoint x="310.98419173890875" y="108.20230769230764" as="targetPoint" />
          </mxGeometry>
        </mxCell>
        <mxCell id="bJq6qHO7lRjsnfCfAAI0-524" style="edgeStyle=orthogonalEdgeStyle;rounded=0;orthogonalLoop=1;jettySize=auto;html=1;exitX=0.5;exitY=0;exitDx=0;exitDy=0;fontSize=16;" edge="1" parent="bJq6qHO7lRjsnfCfAAI0-449" source="bJq6qHO7lRjsnfCfAAI0-470" target="bJq6qHO7lRjsnfCfAAI0-473">
          <mxGeometry relative="1" as="geometry" />
        </mxCell>
        <mxCell id="bJq6qHO7lRjsnfCfAAI0-470" value="&lt;span style=&quot;font-size: 15px&quot;&gt;Inserire credenziali&lt;/span&gt;" style="rounded=1;whiteSpace=wrap;html=1;" vertex="1" parent="bJq6qHO7lRjsnfCfAAI0-449">
          <mxGeometry x="80.00189189189189" y="280.75871794871784" width="193.86027536970934" height="58.46153846153844" as="geometry" />
        </mxCell>
        <mxCell id="bJq6qHO7lRjsnfCfAAI0-474" style="edgeStyle=orthogonalEdgeStyle;rounded=0;orthogonalLoop=1;jettySize=auto;html=1;exitX=0.5;exitY=0;exitDx=0;exitDy=0;exitPerimeter=0;entryX=0;entryY=0.5;entryDx=0;entryDy=0;fontSize=16;" edge="1" parent="bJq6qHO7lRjsnfCfAAI0-449" source="bJq6qHO7lRjsnfCfAAI0-473" target="bJq6qHO7lRjsnfCfAAI0-454">
          <mxGeometry relative="1" as="geometry" />
        </mxCell>
        <mxCell id="bJq6qHO7lRjsnfCfAAI0-475" value="&lt;font style=&quot;font-size: 12px&quot;&gt;[Credenziali corrette]&lt;/font&gt;" style="edgeLabel;html=1;align=center;verticalAlign=middle;resizable=0;points=[];fontSize=16;" vertex="1" connectable="0" parent="bJq6qHO7lRjsnfCfAAI0-474">
          <mxGeometry x="-0.1114" y="2" relative="1" as="geometry">
            <mxPoint as="offset" />
          </mxGeometry>
        </mxCell>
        <mxCell id="bJq6qHO7lRjsnfCfAAI0-476" style="edgeStyle=orthogonalEdgeStyle;rounded=0;orthogonalLoop=1;jettySize=auto;html=1;exitX=0;exitY=0.5;exitDx=0;exitDy=0;exitPerimeter=0;entryX=0;entryY=0.5;entryDx=0;entryDy=0;fontSize=16;" edge="1" parent="bJq6qHO7lRjsnfCfAAI0-449" source="bJq6qHO7lRjsnfCfAAI0-473" target="bJq6qHO7lRjsnfCfAAI0-470">
          <mxGeometry relative="1" as="geometry" />
        </mxCell>
        <mxCell id="bJq6qHO7lRjsnfCfAAI0-477" value="&lt;font style=&quot;font-size: 12px&quot;&gt;[Credenziali errate]&lt;/font&gt;" style="edgeLabel;html=1;align=center;verticalAlign=middle;resizable=0;points=[];fontSize=16;" vertex="1" connectable="0" parent="bJq6qHO7lRjsnfCfAAI0-476">
          <mxGeometry x="-0.2633" y="-1" relative="1" as="geometry">
            <mxPoint as="offset" />
          </mxGeometry>
        </mxCell>
        <mxCell id="bJq6qHO7lRjsnfCfAAI0-473" value="" style="strokeWidth=2;html=1;shape=mxgraph.flowchart.decision;whiteSpace=wrap;" vertex="1" parent="bJq6qHO7lRjsnfCfAAI0-449">
          <mxGeometry x="87.75" y="160" width="178.38" height="68.72" as="geometry" />
        </mxCell>
        <mxCell id="bJq6qHO7lRjsnfCfAAI0-478" value="" style="rounded=0;whiteSpace=wrap;html=1;fillColor=#d5e8d4;strokeColor=#82b366;" vertex="1" parent="1">
          <mxGeometry x="-3730" y="-485" width="400" height="290" as="geometry" />
        </mxCell>
        <mxCell id="bJq6qHO7lRjsnfCfAAI0-479" value="Ricerca Meteo" style="rounded=1;whiteSpace=wrap;html=1;fontSize=16;fillColor=#fff2cc;strokeColor=#d6b656;" vertex="1" parent="1">
          <mxGeometry x="-3730" y="-485" width="150" height="50" as="geometry" />
        </mxCell>
        <mxCell id="bJq6qHO7lRjsnfCfAAI0-480" value="" style="ellipse;html=1;shape=startState;fillColor=#000000;strokeColor=#ff0000;" vertex="1" parent="1">
          <mxGeometry x="-3474.8199999999997" y="-475" width="54.34" height="48.97" as="geometry" />
        </mxCell>
        <mxCell id="bJq6qHO7lRjsnfCfAAI0-481" value="" style="edgeStyle=orthogonalEdgeStyle;html=1;verticalAlign=bottom;endArrow=open;endSize=8;strokeColor=#ff0000;entryX=0.5;entryY=0;entryDx=0;entryDy=0;" edge="1" parent="1" source="bJq6qHO7lRjsnfCfAAI0-480" target="bJq6qHO7lRjsnfCfAAI0-483">
          <mxGeometry relative="1" as="geometry">
            <mxPoint x="-982.6505660377356" y="-1257.3076923076924" as="targetPoint" />
          </mxGeometry>
        </mxCell>
        <mxCell id="bJq6qHO7lRjsnfCfAAI0-482" style="edgeStyle=orthogonalEdgeStyle;rounded=0;orthogonalLoop=1;jettySize=auto;html=1;exitX=0.5;exitY=1;exitDx=0;exitDy=0;entryX=0.5;entryY=0;entryDx=0;entryDy=0;fontSize=16;" edge="1" parent="1" source="bJq6qHO7lRjsnfCfAAI0-483" target="bJq6qHO7lRjsnfCfAAI0-486">
          <mxGeometry relative="1" as="geometry">
            <mxPoint x="-3447.6505660377356" y="-334.99538461538464" as="targetPoint" />
          </mxGeometry>
        </mxCell>
        <mxCell id="bJq6qHO7lRjsnfCfAAI0-483" value="&lt;span style=&quot;font-size: 15px&quot;&gt;Inserisci città&lt;br&gt;&lt;/span&gt;" style="rounded=1;whiteSpace=wrap;html=1;" vertex="1" parent="1">
          <mxGeometry x="-3535.44" y="-405" width="175.57" height="40" as="geometry" />
        </mxCell>
        <mxCell id="bJq6qHO7lRjsnfCfAAI0-484" value="" style="ellipse;html=1;shape=endState;fillColor=#000000;strokeColor=#ff0000;" vertex="1" parent="1">
          <mxGeometry x="-3474.8199999999997" y="-255" width="54.34" height="50" as="geometry" />
        </mxCell>
        <mxCell id="bJq6qHO7lRjsnfCfAAI0-485" style="edgeStyle=orthogonalEdgeStyle;rounded=0;orthogonalLoop=1;jettySize=auto;html=1;exitX=0.5;exitY=1;exitDx=0;exitDy=0;entryX=0.5;entryY=0;entryDx=0;entryDy=0;fontSize=16;" edge="1" parent="1" source="bJq6qHO7lRjsnfCfAAI0-486" target="bJq6qHO7lRjsnfCfAAI0-484">
          <mxGeometry relative="1" as="geometry">
            <mxPoint x="-3447.645" y="-269" as="targetPoint" />
          </mxGeometry>
        </mxCell>
        <mxCell id="bJq6qHO7lRjsnfCfAAI0-486" value="&lt;font style=&quot;font-size: 16px&quot;&gt;Mostra meteo&lt;br&gt;&lt;/font&gt;" style="rounded=1;whiteSpace=wrap;html=1;" vertex="1" parent="1">
          <mxGeometry x="-3530.5" y="-335" width="165.71" height="40" as="geometry" />
        </mxCell>
        <mxCell id="bJq6qHO7lRjsnfCfAAI0-487" value="" style="rounded=0;whiteSpace=wrap;html=1;fillColor=#d5e8d4;strokeColor=#82b366;" vertex="1" parent="1">
          <mxGeometry x="-3721" y="1760" width="410" height="250" as="geometry" />
        </mxCell>
        <mxCell id="bJq6qHO7lRjsnfCfAAI0-488" value="Mostra camera" style="rounded=1;whiteSpace=wrap;html=1;fontSize=16;fillColor=#fff2cc;strokeColor=#d6b656;" vertex="1" parent="1">
          <mxGeometry x="-3721" y="1760" width="210" height="50" as="geometry" />
        </mxCell>
        <mxCell id="bJq6qHO7lRjsnfCfAAI0-489" value="" style="ellipse;html=1;shape=startState;fillColor=#000000;strokeColor=#ff0000;" vertex="1" parent="1">
          <mxGeometry x="-3465.8199999999997" y="1770" width="54.34" height="48.97" as="geometry" />
        </mxCell>
        <mxCell id="bJq6qHO7lRjsnfCfAAI0-490" value="" style="edgeStyle=orthogonalEdgeStyle;html=1;verticalAlign=bottom;endArrow=open;endSize=8;strokeColor=#ff0000;entryX=0.5;entryY=0;entryDx=0;entryDy=0;" edge="1" parent="1" source="bJq6qHO7lRjsnfCfAAI0-489" target="bJq6qHO7lRjsnfCfAAI0-492">
          <mxGeometry relative="1" as="geometry">
            <mxPoint x="-973.6505660377356" y="987.6923076923076" as="targetPoint" />
          </mxGeometry>
        </mxCell>
        <mxCell id="bJq6qHO7lRjsnfCfAAI0-491" style="edgeStyle=orthogonalEdgeStyle;rounded=0;orthogonalLoop=1;jettySize=auto;html=1;exitX=0.5;exitY=1;exitDx=0;exitDy=0;entryX=0.5;entryY=0;entryDx=0;entryDy=0;fontSize=16;" edge="1" parent="1" source="bJq6qHO7lRjsnfCfAAI0-492" target="bJq6qHO7lRjsnfCfAAI0-493">
          <mxGeometry relative="1" as="geometry">
            <mxPoint x="-3438.645" y="1910" as="targetPoint" />
          </mxGeometry>
        </mxCell>
        <mxCell id="bJq6qHO7lRjsnfCfAAI0-492" value="&lt;span style=&quot;font-size: 15px&quot;&gt;Mostra lista camere&lt;br&gt;&lt;/span&gt;" style="rounded=1;whiteSpace=wrap;html=1;" vertex="1" parent="1">
          <mxGeometry x="-3526.44" y="1858.97" width="175.57" height="40" as="geometry" />
        </mxCell>
        <mxCell id="bJq6qHO7lRjsnfCfAAI0-493" value="" style="ellipse;html=1;shape=endState;fillColor=#000000;strokeColor=#ff0000;" vertex="1" parent="1">
          <mxGeometry x="-3465.82" y="1930" width="54.34" height="50" as="geometry" />
        </mxCell>
        <mxCell id="bJq6qHO7lRjsnfCfAAI0-494" value="" style="rounded=0;whiteSpace=wrap;html=1;fillColor=#d5e8d4;strokeColor=#82b366;" vertex="1" parent="1">
          <mxGeometry x="-1790" y="-400" width="660" height="390" as="geometry" />
        </mxCell>
        <mxCell id="bJq6qHO7lRjsnfCfAAI0-495" value="Rimozione prenotazione&lt;br&gt;ristorante" style="rounded=1;whiteSpace=wrap;html=1;fontSize=16;fillColor=#fff2cc;strokeColor=#d6b656;" vertex="1" parent="1">
          <mxGeometry x="-1790" y="-400" width="210" height="50" as="geometry" />
        </mxCell>
        <mxCell id="bJq6qHO7lRjsnfCfAAI0-496" value="" style="ellipse;html=1;shape=startState;fillColor=#000000;strokeColor=#ff0000;" vertex="1" parent="1">
          <mxGeometry x="-1530.6599999999999" y="-390" width="54.34" height="48.97" as="geometry" />
        </mxCell>
        <mxCell id="bJq6qHO7lRjsnfCfAAI0-497" value="" style="edgeStyle=orthogonalEdgeStyle;html=1;verticalAlign=bottom;endArrow=open;endSize=8;strokeColor=#ff0000;entryX=0.5;entryY=0;entryDx=0;entryDy=0;" edge="1" parent="1" source="bJq6qHO7lRjsnfCfAAI0-496" target="bJq6qHO7lRjsnfCfAAI0-499">
          <mxGeometry relative="1" as="geometry">
            <mxPoint x="961.5094339622642" y="-1172.3076923076924" as="targetPoint" />
          </mxGeometry>
        </mxCell>
        <mxCell id="bJq6qHO7lRjsnfCfAAI0-498" style="edgeStyle=orthogonalEdgeStyle;rounded=0;orthogonalLoop=1;jettySize=auto;html=1;exitX=0.5;exitY=1;exitDx=0;exitDy=0;entryX=0.5;entryY=0;entryDx=0;entryDy=0;entryPerimeter=0;fontSize=16;" edge="1" parent="1" source="bJq6qHO7lRjsnfCfAAI0-499" target="bJq6qHO7lRjsnfCfAAI0-500">
          <mxGeometry relative="1" as="geometry" />
        </mxCell>
        <mxCell id="bJq6qHO7lRjsnfCfAAI0-499" value="&lt;span style=&quot;font-size: 15px&quot;&gt;Mostra prenotazione&lt;br&gt;&lt;/span&gt;" style="rounded=1;whiteSpace=wrap;html=1;" vertex="1" parent="1">
          <mxGeometry x="-1591.2800000000002" y="-320" width="175.57" height="40" as="geometry" />
        </mxCell>
        <mxCell id="bJq6qHO7lRjsnfCfAAI0-500" value="" style="strokeWidth=2;html=1;shape=mxgraph.flowchart.decision;whiteSpace=wrap;" vertex="1" parent="1">
          <mxGeometry x="-1571.4150943396226" y="-249.99538461538464" width="135.8490566037736" height="68.20512820512819" as="geometry" />
        </mxCell>
        <mxCell id="bJq6qHO7lRjsnfCfAAI0-501" value="" style="ellipse;html=1;shape=endState;fillColor=#000000;strokeColor=#ff0000;" vertex="1" parent="1">
          <mxGeometry x="-1349.25" y="-91" width="54.34" height="50" as="geometry" />
        </mxCell>
        <mxCell id="bJq6qHO7lRjsnfCfAAI0-502" style="edgeStyle=orthogonalEdgeStyle;rounded=0;orthogonalLoop=1;jettySize=auto;html=1;exitX=0.5;exitY=1;exitDx=0;exitDy=0;entryX=0.5;entryY=0;entryDx=0;entryDy=0;" edge="1" parent="1" source="bJq6qHO7lRjsnfCfAAI0-503" target="bJq6qHO7lRjsnfCfAAI0-501">
          <mxGeometry relative="1" as="geometry" />
        </mxCell>
        <mxCell id="bJq6qHO7lRjsnfCfAAI0-503" value="&lt;font style=&quot;font-size: 16px&quot;&gt;Elimina&lt;br&gt;&amp;nbsp;prenotazione&lt;br&gt;&lt;/font&gt;" style="rounded=1;whiteSpace=wrap;html=1;" vertex="1" parent="1">
          <mxGeometry x="-1400" y="-184.36000000000013" width="155.84" height="48.72" as="geometry" />
        </mxCell>
        <mxCell id="bJq6qHO7lRjsnfCfAAI0-504" style="edgeStyle=orthogonalEdgeStyle;rounded=0;orthogonalLoop=1;jettySize=auto;html=1;exitX=1;exitY=0.5;exitDx=0;exitDy=0;exitPerimeter=0;entryX=0.5;entryY=0;entryDx=0;entryDy=0;" edge="1" parent="1" source="bJq6qHO7lRjsnfCfAAI0-500" target="bJq6qHO7lRjsnfCfAAI0-503">
          <mxGeometry relative="1" as="geometry">
            <mxPoint x="1212.8301886792453" y="-1016.4102564102565" as="targetPoint" />
          </mxGeometry>
        </mxCell>
        <mxCell id="bJq6qHO7lRjsnfCfAAI0-505" value="&lt;span style=&quot;font-size: 12px&quot;&gt;[Esistente]&lt;/span&gt;" style="edgeLabel;html=1;align=center;verticalAlign=middle;resizable=0;points=[];" vertex="1" connectable="0" parent="bJq6qHO7lRjsnfCfAAI0-504">
          <mxGeometry x="0.037" y="2" relative="1" as="geometry">
            <mxPoint x="-11" y="2" as="offset" />
          </mxGeometry>
        </mxCell>
        <mxCell id="bJq6qHO7lRjsnfCfAAI0-506" value="" style="shape=sumEllipse;perimeter=ellipsePerimeter;whiteSpace=wrap;html=1;backgroundOutline=1;fontSize=16;" vertex="1" parent="1">
          <mxGeometry x="-1710" y="-160" width="40" height="40" as="geometry" />
        </mxCell>
        <mxCell id="bJq6qHO7lRjsnfCfAAI0-507" style="edgeStyle=orthogonalEdgeStyle;rounded=0;orthogonalLoop=1;jettySize=auto;html=1;fontSize=16;entryX=0.5;entryY=0;entryDx=0;entryDy=0;" edge="1" parent="1" source="bJq6qHO7lRjsnfCfAAI0-500" target="bJq6qHO7lRjsnfCfAAI0-506">
          <mxGeometry relative="1" as="geometry">
            <mxPoint x="-1700" y="-100" as="targetPoint" />
          </mxGeometry>
        </mxCell>
        <mxCell id="bJq6qHO7lRjsnfCfAAI0-508" value="&lt;span style=&quot;font-size: 12px&quot;&gt;[Non esistente]]&lt;/span&gt;" style="edgeLabel;html=1;align=center;verticalAlign=middle;resizable=0;points=[];fontSize=16;" vertex="1" connectable="0" parent="bJq6qHO7lRjsnfCfAAI0-507">
          <mxGeometry x="-0.1296" relative="1" as="geometry">
            <mxPoint as="offset" />
          </mxGeometry>
        </mxCell>
        <mxCell id="bJq6qHO7lRjsnfCfAAI0-509" value="" style="rounded=0;whiteSpace=wrap;html=1;fillColor=#d5e8d4;strokeColor=#82b366;" vertex="1" parent="1">
          <mxGeometry x="-1790" y="-915" width="660" height="390" as="geometry" />
        </mxCell>
        <mxCell id="bJq6qHO7lRjsnfCfAAI0-510" value="Rimozione prenotazione&lt;br&gt;ombrellone" style="rounded=1;whiteSpace=wrap;html=1;fontSize=16;fillColor=#fff2cc;strokeColor=#d6b656;" vertex="1" parent="1">
          <mxGeometry x="-1790" y="-915" width="210" height="50" as="geometry" />
        </mxCell>
        <mxCell id="bJq6qHO7lRjsnfCfAAI0-511" value="" style="ellipse;html=1;shape=startState;fillColor=#000000;strokeColor=#ff0000;" vertex="1" parent="1">
          <mxGeometry x="-1530.6599999999999" y="-905" width="54.34" height="48.97" as="geometry" />
        </mxCell>
        <mxCell id="bJq6qHO7lRjsnfCfAAI0-512" value="" style="edgeStyle=orthogonalEdgeStyle;html=1;verticalAlign=bottom;endArrow=open;endSize=8;strokeColor=#ff0000;entryX=0.5;entryY=0;entryDx=0;entryDy=0;" edge="1" parent="1" source="bJq6qHO7lRjsnfCfAAI0-511" target="bJq6qHO7lRjsnfCfAAI0-514">
          <mxGeometry relative="1" as="geometry">
            <mxPoint x="961.5094339622642" y="-1687.3076923076924" as="targetPoint" />
          </mxGeometry>
        </mxCell>
        <mxCell id="bJq6qHO7lRjsnfCfAAI0-513" style="edgeStyle=orthogonalEdgeStyle;rounded=0;orthogonalLoop=1;jettySize=auto;html=1;exitX=0.5;exitY=1;exitDx=0;exitDy=0;entryX=0.5;entryY=0;entryDx=0;entryDy=0;entryPerimeter=0;fontSize=16;" edge="1" parent="1" source="bJq6qHO7lRjsnfCfAAI0-514" target="bJq6qHO7lRjsnfCfAAI0-515">
          <mxGeometry relative="1" as="geometry" />
        </mxCell>
        <mxCell id="bJq6qHO7lRjsnfCfAAI0-514" value="&lt;span style=&quot;font-size: 15px&quot;&gt;Mostra prenotazione&lt;br&gt;&lt;/span&gt;" style="rounded=1;whiteSpace=wrap;html=1;" vertex="1" parent="1">
          <mxGeometry x="-1591.2800000000002" y="-835" width="175.57" height="40" as="geometry" />
        </mxCell>
        <mxCell id="bJq6qHO7lRjsnfCfAAI0-515" value="" style="strokeWidth=2;html=1;shape=mxgraph.flowchart.decision;whiteSpace=wrap;" vertex="1" parent="1">
          <mxGeometry x="-1571.4150943396226" y="-764.9953846153846" width="135.8490566037736" height="68.20512820512819" as="geometry" />
        </mxCell>
        <mxCell id="bJq6qHO7lRjsnfCfAAI0-516" value="" style="ellipse;html=1;shape=endState;fillColor=#000000;strokeColor=#ff0000;" vertex="1" parent="1">
          <mxGeometry x="-1349.25" y="-606" width="54.34" height="50" as="geometry" />
        </mxCell>
        <mxCell id="bJq6qHO7lRjsnfCfAAI0-517" style="edgeStyle=orthogonalEdgeStyle;rounded=0;orthogonalLoop=1;jettySize=auto;html=1;exitX=0.5;exitY=1;exitDx=0;exitDy=0;entryX=0.5;entryY=0;entryDx=0;entryDy=0;" edge="1" parent="1" source="bJq6qHO7lRjsnfCfAAI0-518" target="bJq6qHO7lRjsnfCfAAI0-516">
          <mxGeometry relative="1" as="geometry" />
        </mxCell>
        <mxCell id="bJq6qHO7lRjsnfCfAAI0-518" value="&lt;font style=&quot;font-size: 16px&quot;&gt;Elimina&lt;br&gt;&amp;nbsp;prenotazione&lt;br&gt;&lt;/font&gt;" style="rounded=1;whiteSpace=wrap;html=1;" vertex="1" parent="1">
          <mxGeometry x="-1400" y="-699.3600000000001" width="155.84" height="48.72" as="geometry" />
        </mxCell>
        <mxCell id="bJq6qHO7lRjsnfCfAAI0-519" style="edgeStyle=orthogonalEdgeStyle;rounded=0;orthogonalLoop=1;jettySize=auto;html=1;exitX=1;exitY=0.5;exitDx=0;exitDy=0;exitPerimeter=0;entryX=0.5;entryY=0;entryDx=0;entryDy=0;" edge="1" parent="1" source="bJq6qHO7lRjsnfCfAAI0-515" target="bJq6qHO7lRjsnfCfAAI0-518">
          <mxGeometry relative="1" as="geometry">
            <mxPoint x="1212.8301886792453" y="-1531.4102564102564" as="targetPoint" />
          </mxGeometry>
        </mxCell>
        <mxCell id="bJq6qHO7lRjsnfCfAAI0-520" value="&lt;span style=&quot;font-size: 12px&quot;&gt;[Esistente]&lt;/span&gt;" style="edgeLabel;html=1;align=center;verticalAlign=middle;resizable=0;points=[];" vertex="1" connectable="0" parent="bJq6qHO7lRjsnfCfAAI0-519">
          <mxGeometry x="0.037" y="2" relative="1" as="geometry">
            <mxPoint x="-11" y="2" as="offset" />
          </mxGeometry>
        </mxCell>
        <mxCell id="bJq6qHO7lRjsnfCfAAI0-521" value="" style="shape=sumEllipse;perimeter=ellipsePerimeter;whiteSpace=wrap;html=1;backgroundOutline=1;fontSize=16;" vertex="1" parent="1">
          <mxGeometry x="-1710" y="-675" width="40" height="40" as="geometry" />
        </mxCell>
        <mxCell id="bJq6qHO7lRjsnfCfAAI0-522" style="edgeStyle=orthogonalEdgeStyle;rounded=0;orthogonalLoop=1;jettySize=auto;html=1;fontSize=16;entryX=0.5;entryY=0;entryDx=0;entryDy=0;" edge="1" parent="1" source="bJq6qHO7lRjsnfCfAAI0-515" target="bJq6qHO7lRjsnfCfAAI0-521">
          <mxGeometry relative="1" as="geometry">
            <mxPoint x="-1700" y="-615" as="targetPoint" />
          </mxGeometry>
        </mxCell>
        <mxCell id="bJq6qHO7lRjsnfCfAAI0-523" value="&lt;span style=&quot;font-size: 12px&quot;&gt;[Non esistente]]&lt;/span&gt;" style="edgeLabel;html=1;align=center;verticalAlign=middle;resizable=0;points=[];fontSize=16;" vertex="1" connectable="0" parent="bJq6qHO7lRjsnfCfAAI0-522">
          <mxGeometry x="-0.1296" relative="1" as="geometry">
            <mxPoint as="offset" />
          </mxGeometry>
        </mxCell>
        <mxCell id="bJq6qHO7lRjsnfCfAAI0-525" value="" style="rounded=0;whiteSpace=wrap;html=1;fillColor=#d5e8d4;strokeColor=#82b366;" vertex="1" parent="1">
          <mxGeometry x="-1019.9999999999998" y="-960" width="440" height="340" as="geometry" />
        </mxCell>
        <mxCell id="bJq6qHO7lRjsnfCfAAI0-526" value="Aggiungi consumazione&lt;br&gt;ristorante" style="rounded=1;whiteSpace=wrap;html=1;fontSize=16;fillColor=#fff2cc;strokeColor=#d6b656;" vertex="1" parent="1">
          <mxGeometry x="-1019.9999999999998" y="-960" width="210" height="50" as="geometry" />
        </mxCell>
        <mxCell id="bJq6qHO7lRjsnfCfAAI0-527" value="" style="ellipse;html=1;shape=startState;fillColor=#000000;strokeColor=#ff0000;" vertex="1" parent="1">
          <mxGeometry x="-744.8199999999997" y="-940" width="54.34" height="48.97" as="geometry" />
        </mxCell>
        <mxCell id="bJq6qHO7lRjsnfCfAAI0-528" value="" style="edgeStyle=orthogonalEdgeStyle;html=1;verticalAlign=bottom;endArrow=open;endSize=8;strokeColor=#ff0000;entryX=0.5;entryY=0;entryDx=0;entryDy=0;" edge="1" parent="1" source="bJq6qHO7lRjsnfCfAAI0-527" target="bJq6qHO7lRjsnfCfAAI0-530">
          <mxGeometry relative="1" as="geometry">
            <mxPoint x="1747.3494339622646" y="-1722.3076923076924" as="targetPoint" />
          </mxGeometry>
        </mxCell>
        <mxCell id="bJq6qHO7lRjsnfCfAAI0-529" style="edgeStyle=orthogonalEdgeStyle;rounded=0;orthogonalLoop=1;jettySize=auto;html=1;exitX=0.5;exitY=1;exitDx=0;exitDy=0;entryX=0.5;entryY=0;entryDx=0;entryDy=0;fontSize=16;" edge="1" parent="1" source="bJq6qHO7lRjsnfCfAAI0-530" target="bJq6qHO7lRjsnfCfAAI0-535">
          <mxGeometry relative="1" as="geometry">
            <mxPoint x="-717.6449999999995" y="-800" as="targetPoint" />
          </mxGeometry>
        </mxCell>
        <mxCell id="bJq6qHO7lRjsnfCfAAI0-530" value="&lt;span style=&quot;font-size: 15px&quot;&gt;Scegli consumazione&lt;br&gt;&lt;/span&gt;" style="rounded=1;whiteSpace=wrap;html=1;" vertex="1" parent="1">
          <mxGeometry x="-805.44" y="-870" width="175.57" height="40" as="geometry" />
        </mxCell>
        <mxCell id="bJq6qHO7lRjsnfCfAAI0-531" value="" style="ellipse;html=1;shape=endState;fillColor=#000000;strokeColor=#ff0000;" vertex="1" parent="1">
          <mxGeometry x="-744.8299999999997" y="-690" width="54.34" height="50" as="geometry" />
        </mxCell>
        <mxCell id="bJq6qHO7lRjsnfCfAAI0-534" style="edgeStyle=orthogonalEdgeStyle;rounded=0;orthogonalLoop=1;jettySize=auto;html=1;exitX=0.5;exitY=1;exitDx=0;exitDy=0;entryX=0.5;entryY=0;entryDx=0;entryDy=0;fontSize=16;" edge="1" parent="1" source="bJq6qHO7lRjsnfCfAAI0-535" target="bJq6qHO7lRjsnfCfAAI0-531">
          <mxGeometry relative="1" as="geometry" />
        </mxCell>
        <mxCell id="bJq6qHO7lRjsnfCfAAI0-535" value="&lt;font style=&quot;font-size: 16px&quot;&gt;Aggiungi consumazione allo scontrino&lt;br&gt;&lt;/font&gt;" style="rounded=1;whiteSpace=wrap;html=1;" vertex="1" parent="1">
          <mxGeometry x="-800.5" y="-787.0799999999999" width="165.71" height="72.72" as="geometry" />
        </mxCell>
        <mxCell id="bJq6qHO7lRjsnfCfAAI0-545" value="" style="rounded=0;whiteSpace=wrap;html=1;fillColor=#d5e8d4;strokeColor=#82b366;" vertex="1" parent="1">
          <mxGeometry x="-539.9999999999998" y="-960" width="440" height="340" as="geometry" />
        </mxCell>
        <mxCell id="bJq6qHO7lRjsnfCfAAI0-546" value="Rimuovi consumazione&lt;br&gt;ristorante" style="rounded=1;whiteSpace=wrap;html=1;fontSize=16;fillColor=#fff2cc;strokeColor=#d6b656;" vertex="1" parent="1">
          <mxGeometry x="-539.9999999999998" y="-960" width="210" height="50" as="geometry" />
        </mxCell>
        <mxCell id="bJq6qHO7lRjsnfCfAAI0-547" value="" style="ellipse;html=1;shape=startState;fillColor=#000000;strokeColor=#ff0000;" vertex="1" parent="1">
          <mxGeometry x="-284.81999999999965" y="-950" width="54.34" height="48.97" as="geometry" />
        </mxCell>
        <mxCell id="bJq6qHO7lRjsnfCfAAI0-548" value="" style="edgeStyle=orthogonalEdgeStyle;html=1;verticalAlign=bottom;endArrow=open;endSize=8;strokeColor=#ff0000;entryX=0.5;entryY=0;entryDx=0;entryDy=0;" edge="1" parent="1" source="bJq6qHO7lRjsnfCfAAI0-547" target="bJq6qHO7lRjsnfCfAAI0-550">
          <mxGeometry relative="1" as="geometry">
            <mxPoint x="2207.3494339622644" y="-1732.3076923076924" as="targetPoint" />
          </mxGeometry>
        </mxCell>
        <mxCell id="bJq6qHO7lRjsnfCfAAI0-549" style="edgeStyle=orthogonalEdgeStyle;rounded=0;orthogonalLoop=1;jettySize=auto;html=1;exitX=0.5;exitY=1;exitDx=0;exitDy=0;entryX=0.5;entryY=0;entryDx=0;entryDy=0;fontSize=16;" edge="1" parent="1" source="bJq6qHO7lRjsnfCfAAI0-550" target="bJq6qHO7lRjsnfCfAAI0-553">
          <mxGeometry relative="1" as="geometry">
            <mxPoint x="-257.64499999999947" y="-810" as="targetPoint" />
          </mxGeometry>
        </mxCell>
        <mxCell id="bJq6qHO7lRjsnfCfAAI0-550" value="&lt;span style=&quot;font-size: 15px&quot;&gt;Seleziona consumazione dallo scontrino&lt;br&gt;&lt;/span&gt;" style="rounded=1;whiteSpace=wrap;html=1;" vertex="1" parent="1">
          <mxGeometry x="-345.44" y="-880" width="175.57" height="40" as="geometry" />
        </mxCell>
        <mxCell id="bJq6qHO7lRjsnfCfAAI0-551" value="" style="ellipse;html=1;shape=endState;fillColor=#000000;strokeColor=#ff0000;" vertex="1" parent="1">
          <mxGeometry x="-284.82999999999964" y="-700" width="54.34" height="50" as="geometry" />
        </mxCell>
        <mxCell id="bJq6qHO7lRjsnfCfAAI0-552" style="edgeStyle=orthogonalEdgeStyle;rounded=0;orthogonalLoop=1;jettySize=auto;html=1;exitX=0.5;exitY=1;exitDx=0;exitDy=0;entryX=0.5;entryY=0;entryDx=0;entryDy=0;fontSize=16;" edge="1" parent="1" source="bJq6qHO7lRjsnfCfAAI0-553" target="bJq6qHO7lRjsnfCfAAI0-551">
          <mxGeometry relative="1" as="geometry" />
        </mxCell>
        <mxCell id="bJq6qHO7lRjsnfCfAAI0-553" value="&lt;font style=&quot;font-size: 16px&quot;&gt;Rimuovi consumazione allo scontrino&lt;br&gt;&lt;/font&gt;" style="rounded=1;whiteSpace=wrap;html=1;" vertex="1" parent="1">
          <mxGeometry x="-340.49999999999994" y="-797.0799999999999" width="165.71" height="72.72" as="geometry" />
        </mxCell>
      </root>
    </mxGraphModel>
  </diagram>
</mxfile>
